%TF.GenerationSoftware,KiCad,Pcbnew,6.0.7-f9a2dced07~116~ubuntu22.04.1*%
%TF.CreationDate,2022-09-17T16:40:37+08:00*%
%TF.ProjectId,WLED-12V,574c4544-2d31-4325-962e-6b696361645f,rev?*%
%TF.SameCoordinates,Original*%
%TF.FileFunction,Copper,L2,Bot*%
%TF.FilePolarity,Positive*%
%FSLAX46Y46*%
G04 Gerber Fmt 4.6, Leading zero omitted, Abs format (unit mm)*
G04 Created by KiCad (PCBNEW 6.0.7-f9a2dced07~116~ubuntu22.04.1) date 2022-09-17 16:40:37*
%MOMM*%
%LPD*%
G01*
G04 APERTURE LIST*
%TA.AperFunction,ComponentPad*%
%ADD10C,1.524000*%
%TD*%
%TA.AperFunction,ComponentPad*%
%ADD11R,2.500000X2.500000*%
%TD*%
%TA.AperFunction,ComponentPad*%
%ADD12C,2.500000*%
%TD*%
%TA.AperFunction,ComponentPad*%
%ADD13R,2.000000X1.905000*%
%TD*%
%TA.AperFunction,ComponentPad*%
%ADD14O,2.000000X1.905000*%
%TD*%
%TA.AperFunction,ViaPad*%
%ADD15C,0.800000*%
%TD*%
%TA.AperFunction,Conductor*%
%ADD16C,0.500000*%
%TD*%
G04 APERTURE END LIST*
D10*
%TO.P,U1,1,A0(ADC0)*%
%TO.N,unconnected-(U1-Pad1)*%
X86030000Y-54680000D03*
%TO.P,U1,2,RSV*%
%TO.N,unconnected-(U1-Pad2)*%
X86030000Y-57220000D03*
%TO.P,U1,3,RSV*%
%TO.N,unconnected-(U1-Pad3)*%
X86030000Y-59760000D03*
%TO.P,U1,4,SD3(GPIO10)*%
%TO.N,unconnected-(U1-Pad4)*%
X86030000Y-62300000D03*
%TO.P,U1,5,SD2(GPIO9)*%
%TO.N,unconnected-(U1-Pad5)*%
X86030000Y-64840000D03*
%TO.P,U1,6,SD1(MOSI)*%
%TO.N,unconnected-(U1-Pad6)*%
X86030000Y-67380000D03*
%TO.P,U1,7,CMD(CS)*%
%TO.N,unconnected-(U1-Pad7)*%
X86030000Y-69920000D03*
%TO.P,U1,8,SDO(MISO)*%
%TO.N,unconnected-(U1-Pad8)*%
X86030000Y-72460000D03*
%TO.P,U1,9,CLK(SCLK)*%
%TO.N,unconnected-(U1-Pad9)*%
X86030000Y-75000000D03*
%TO.P,U1,10,GND*%
%TO.N,GND*%
X86030000Y-77540000D03*
%TO.P,U1,11,3.3V*%
%TO.N,+3.3V*%
X86030000Y-80080000D03*
%TO.P,U1,12,EN*%
%TO.N,unconnected-(U1-Pad12)*%
X86030000Y-82620000D03*
%TO.P,U1,13,RST*%
%TO.N,unconnected-(U1-Pad13)*%
X86030000Y-85160000D03*
%TO.P,U1,14,GND*%
%TO.N,GND*%
X86030000Y-87700000D03*
%TO.P,U1,15,VIN*%
%TO.N,+5V*%
X86030000Y-90240000D03*
%TO.P,U1,16,3.3V*%
%TO.N,unconnected-(U1-Pad16)*%
X113970000Y-90240000D03*
%TO.P,U1,17,GND*%
%TO.N,GND*%
X113970000Y-87700000D03*
%TO.P,U1,18,TX(GPIO1)*%
%TO.N,unconnected-(U1-Pad18)*%
X113970000Y-85160000D03*
%TO.P,U1,19,RX(DPIO3)*%
%TO.N,unconnected-(U1-Pad19)*%
X113970000Y-82620000D03*
%TO.P,U1,20,D8(GPIO15)*%
%TO.N,unconnected-(U1-Pad20)*%
X113970000Y-80080000D03*
%TO.P,U1,21,D7(GPIO13)*%
%TO.N,unconnected-(U1-Pad21)*%
X113970000Y-77540000D03*
%TO.P,U1,22,D6(GPIO12)*%
%TO.N,unconnected-(U1-Pad22)*%
X113970000Y-75000000D03*
%TO.P,U1,23,D5(GPIO14)*%
%TO.N,unconnected-(U1-Pad23)*%
X113970000Y-72460000D03*
%TO.P,U1,24,GND*%
%TO.N,GND*%
X113970000Y-69920000D03*
%TO.P,U1,25,3.3V*%
%TO.N,+3.3V*%
X113970000Y-67380000D03*
%TO.P,U1,26,D4(GPIO2)*%
%TO.N,Net-(U1-Pad26)*%
X113970000Y-64840000D03*
%TO.P,U1,27,D3(GPIO0)*%
%TO.N,unconnected-(U1-Pad27)*%
X113970000Y-62300000D03*
%TO.P,U1,28,D2(GPIO4)*%
%TO.N,unconnected-(U1-Pad28)*%
X113970000Y-59760000D03*
%TO.P,U1,29,D1(GPIO5)*%
%TO.N,unconnected-(U1-Pad29)*%
X113970000Y-57220000D03*
%TO.P,U1,30,D0(GPIO16)*%
%TO.N,unconnected-(U1-Pad30)*%
X113970000Y-54680000D03*
%TD*%
D11*
%TO.P,J1,1,Pin_1*%
%TO.N,+12V*%
X130000000Y-70000000D03*
D12*
%TO.P,J1,2,Pin_2*%
%TO.N,GND*%
X130000000Y-65000000D03*
%TD*%
D11*
%TO.P,J2,1,Pin_1*%
%TO.N,+12V*%
X130000000Y-97500000D03*
D12*
%TO.P,J2,2,Pin_2*%
%TO.N,Net-(J2-Pad2)*%
X130000000Y-92500000D03*
%TO.P,J2,3,Pin_3*%
%TO.N,GND*%
X130000000Y-87500000D03*
%TD*%
D13*
%TO.P,U2,1,VI*%
%TO.N,+12V*%
X130000000Y-47500000D03*
D14*
%TO.P,U2,2,GND*%
%TO.N,GND*%
X130000000Y-50040000D03*
%TO.P,U2,3,VO*%
%TO.N,+5V*%
X130000000Y-52580000D03*
%TD*%
D15*
%TO.N,+5V*%
X98000000Y-87000000D03*
X93000000Y-91000000D03*
%TD*%
D16*
%TO.N,+5V*%
X98000000Y-89000000D02*
X98000000Y-87000000D01*
X93000000Y-91000000D02*
X96000000Y-91000000D01*
X96000000Y-91000000D02*
X98000000Y-89000000D01*
%TD*%
%TA.AperFunction,Conductor*%
%TO.N,+5V*%
G36*
X93181619Y-90643373D02*
G01*
X93203633Y-90653594D01*
X93233300Y-90667368D01*
X93287613Y-90689822D01*
X93339248Y-90707839D01*
X93339403Y-90707882D01*
X93339410Y-90707884D01*
X93356941Y-90712725D01*
X93390161Y-90721900D01*
X93390374Y-90721943D01*
X93390373Y-90721943D01*
X93442125Y-90732445D01*
X93442129Y-90732446D01*
X93442308Y-90732482D01*
X93497645Y-90740066D01*
X93497807Y-90740080D01*
X93497811Y-90740080D01*
X93542431Y-90743817D01*
X93558126Y-90745131D01*
X93625709Y-90748155D01*
X93702348Y-90749618D01*
X93778352Y-90749949D01*
X93786609Y-90753412D01*
X93790000Y-90761649D01*
X93790000Y-91238351D01*
X93786573Y-91246624D01*
X93778352Y-91250051D01*
X93702348Y-91250381D01*
X93625709Y-91251844D01*
X93558126Y-91254868D01*
X93558005Y-91254878D01*
X93558007Y-91254878D01*
X93497811Y-91259919D01*
X93497807Y-91259919D01*
X93497645Y-91259933D01*
X93442308Y-91267517D01*
X93442129Y-91267553D01*
X93442125Y-91267554D01*
X93397140Y-91276683D01*
X93390161Y-91278099D01*
X93356941Y-91287274D01*
X93339410Y-91292115D01*
X93339403Y-91292117D01*
X93339248Y-91292160D01*
X93287613Y-91310177D01*
X93233300Y-91332631D01*
X93198374Y-91348848D01*
X93181619Y-91356627D01*
X93172672Y-91357003D01*
X93168582Y-91354448D01*
X92808769Y-91008433D01*
X92805181Y-91000229D01*
X92808769Y-90991567D01*
X93168582Y-90645552D01*
X93176921Y-90642287D01*
X93181619Y-90643373D01*
G37*
%TD.AperFunction*%
%TD*%
%TA.AperFunction,Conductor*%
%TO.N,+5V*%
G36*
X98008433Y-86808769D02*
G01*
X98354448Y-87168582D01*
X98357713Y-87176921D01*
X98356627Y-87181619D01*
X98332631Y-87233300D01*
X98310177Y-87287613D01*
X98292160Y-87339248D01*
X98278099Y-87390161D01*
X98267517Y-87442308D01*
X98259933Y-87497645D01*
X98254868Y-87558126D01*
X98251844Y-87625709D01*
X98251842Y-87625819D01*
X98250381Y-87702348D01*
X98250051Y-87778351D01*
X98246588Y-87786609D01*
X98238351Y-87790000D01*
X97761649Y-87790000D01*
X97753376Y-87786573D01*
X97749949Y-87778351D01*
X97749618Y-87702348D01*
X97748157Y-87625819D01*
X97748155Y-87625709D01*
X97745131Y-87558126D01*
X97740066Y-87497645D01*
X97732482Y-87442308D01*
X97721900Y-87390161D01*
X97707839Y-87339248D01*
X97689822Y-87287613D01*
X97667368Y-87233300D01*
X97643373Y-87181619D01*
X97642997Y-87172672D01*
X97645552Y-87168582D01*
X97991567Y-86808769D01*
X97999771Y-86805181D01*
X98008433Y-86808769D01*
G37*
%TD.AperFunction*%
%TD*%
%TA.AperFunction,Conductor*%
%TO.N,GND*%
G36*
X144433621Y-40660002D02*
G01*
X144480114Y-40713658D01*
X144491500Y-40766000D01*
X144491500Y-106554000D01*
X144471498Y-106622121D01*
X144417842Y-106668614D01*
X144365500Y-106680000D01*
X78866000Y-106680000D01*
X78797879Y-106659998D01*
X78751386Y-106606342D01*
X78740000Y-106554000D01*
X78740000Y-98798134D01*
X128241500Y-98798134D01*
X128248255Y-98860316D01*
X128299385Y-98996705D01*
X128386739Y-99113261D01*
X128503295Y-99200615D01*
X128639684Y-99251745D01*
X128701866Y-99258500D01*
X131298134Y-99258500D01*
X131360316Y-99251745D01*
X131496705Y-99200615D01*
X131613261Y-99113261D01*
X131700615Y-98996705D01*
X131751745Y-98860316D01*
X131758500Y-98798134D01*
X131758500Y-96201866D01*
X131751745Y-96139684D01*
X131700615Y-96003295D01*
X131613261Y-95886739D01*
X131496705Y-95799385D01*
X131360316Y-95748255D01*
X131298134Y-95741500D01*
X128701866Y-95741500D01*
X128639684Y-95748255D01*
X128503295Y-95799385D01*
X128386739Y-95886739D01*
X128299385Y-96003295D01*
X128248255Y-96139684D01*
X128241500Y-96201866D01*
X128241500Y-98798134D01*
X78740000Y-98798134D01*
X78740000Y-92453839D01*
X128237173Y-92453839D01*
X128249713Y-92714908D01*
X128300704Y-92971256D01*
X128389026Y-93217252D01*
X128391242Y-93221376D01*
X128455753Y-93341437D01*
X128512737Y-93447491D01*
X128515532Y-93451234D01*
X128515534Y-93451237D01*
X128666330Y-93653177D01*
X128666335Y-93653183D01*
X128669122Y-93656915D01*
X128672431Y-93660195D01*
X128672436Y-93660201D01*
X128851426Y-93837635D01*
X128854743Y-93840923D01*
X128858505Y-93843681D01*
X128858508Y-93843684D01*
X129061750Y-93992707D01*
X129065524Y-93995474D01*
X129069667Y-93997654D01*
X129069669Y-93997655D01*
X129292684Y-94114989D01*
X129292689Y-94114991D01*
X129296834Y-94117172D01*
X129543590Y-94203344D01*
X129548183Y-94204216D01*
X129795785Y-94251224D01*
X129795788Y-94251224D01*
X129800374Y-94252095D01*
X129930958Y-94257226D01*
X130056875Y-94262174D01*
X130056881Y-94262174D01*
X130061543Y-94262357D01*
X130140977Y-94253657D01*
X130316707Y-94234412D01*
X130316712Y-94234411D01*
X130321360Y-94233902D01*
X130434116Y-94204216D01*
X130569594Y-94168548D01*
X130569596Y-94168547D01*
X130574117Y-94167357D01*
X130814262Y-94064182D01*
X131036519Y-93926646D01*
X131040082Y-93923629D01*
X131040087Y-93923626D01*
X131232439Y-93760787D01*
X131232440Y-93760786D01*
X131236005Y-93757768D01*
X131327729Y-93653177D01*
X131405257Y-93564774D01*
X131405261Y-93564769D01*
X131408339Y-93561259D01*
X131549733Y-93341437D01*
X131657083Y-93103129D01*
X131728030Y-92851572D01*
X131744832Y-92719496D01*
X131760616Y-92595421D01*
X131760616Y-92595417D01*
X131761014Y-92592291D01*
X131763431Y-92500000D01*
X131744061Y-92239348D01*
X131732725Y-92189248D01*
X131687408Y-91988980D01*
X131686377Y-91984423D01*
X131667603Y-91936146D01*
X131593340Y-91745176D01*
X131593339Y-91745173D01*
X131591647Y-91740823D01*
X131566376Y-91696607D01*
X131500040Y-91580544D01*
X131461951Y-91513902D01*
X131300138Y-91308643D01*
X131109763Y-91129557D01*
X130932472Y-91006565D01*
X130898851Y-90983241D01*
X130898848Y-90983239D01*
X130895009Y-90980576D01*
X130890816Y-90978508D01*
X130664781Y-90867040D01*
X130664778Y-90867039D01*
X130660593Y-90864975D01*
X130614449Y-90850204D01*
X130416123Y-90786720D01*
X130411665Y-90785293D01*
X130153693Y-90743279D01*
X130039942Y-90741790D01*
X129897022Y-90739919D01*
X129897019Y-90739919D01*
X129892345Y-90739858D01*
X129633362Y-90775104D01*
X129382433Y-90848243D01*
X129378180Y-90850203D01*
X129378179Y-90850204D01*
X129341659Y-90867040D01*
X129145072Y-90957668D01*
X129106067Y-90983241D01*
X128930404Y-91098410D01*
X128930399Y-91098414D01*
X128926491Y-91100976D01*
X128731494Y-91275018D01*
X128564363Y-91475970D01*
X128561934Y-91479973D01*
X128436064Y-91687401D01*
X128428771Y-91699419D01*
X128327697Y-91940455D01*
X128263359Y-92193783D01*
X128237173Y-92453839D01*
X78740000Y-92453839D01*
X78740000Y-90240000D01*
X84754647Y-90240000D01*
X84774022Y-90461463D01*
X84831560Y-90676196D01*
X84833882Y-90681177D01*
X84833883Y-90681178D01*
X84923186Y-90872689D01*
X84923189Y-90872694D01*
X84925512Y-90877676D01*
X84928668Y-90882183D01*
X84928669Y-90882185D01*
X84983318Y-90960231D01*
X85053023Y-91059781D01*
X85210219Y-91216977D01*
X85214727Y-91220134D01*
X85214730Y-91220136D01*
X85288661Y-91271903D01*
X85392323Y-91344488D01*
X85397305Y-91346811D01*
X85397310Y-91346814D01*
X85588822Y-91436117D01*
X85593804Y-91438440D01*
X85599112Y-91439862D01*
X85599114Y-91439863D01*
X85664949Y-91457503D01*
X85808537Y-91495978D01*
X86030000Y-91515353D01*
X86251463Y-91495978D01*
X86395051Y-91457503D01*
X86460886Y-91439863D01*
X86460888Y-91439862D01*
X86466196Y-91438440D01*
X86471178Y-91436117D01*
X86662690Y-91346814D01*
X86662695Y-91346811D01*
X86667677Y-91344488D01*
X86771339Y-91271903D01*
X86845270Y-91220136D01*
X86845273Y-91220134D01*
X86849781Y-91216977D01*
X87006977Y-91059781D01*
X87048836Y-91000000D01*
X92086496Y-91000000D01*
X92106458Y-91189928D01*
X92165473Y-91371556D01*
X92260960Y-91536944D01*
X92265378Y-91541851D01*
X92265379Y-91541852D01*
X92356286Y-91642814D01*
X92388747Y-91678866D01*
X92441025Y-91716848D01*
X92533410Y-91783970D01*
X92543248Y-91791118D01*
X92549276Y-91793802D01*
X92549278Y-91793803D01*
X92711681Y-91866109D01*
X92717712Y-91868794D01*
X92811113Y-91888647D01*
X92898056Y-91907128D01*
X92898061Y-91907128D01*
X92904513Y-91908500D01*
X93095487Y-91908500D01*
X93101939Y-91907128D01*
X93101944Y-91907128D01*
X93188887Y-91888647D01*
X93282288Y-91868794D01*
X93288321Y-91866108D01*
X93288327Y-91866106D01*
X93355748Y-91836088D01*
X93370741Y-91830523D01*
X93393553Y-91823669D01*
X93393556Y-91823668D01*
X93397869Y-91822372D01*
X93437183Y-91804118D01*
X93442101Y-91801961D01*
X93467144Y-91791608D01*
X93473773Y-91789084D01*
X93488430Y-91783970D01*
X93496384Y-91781486D01*
X93498957Y-91780775D01*
X93505508Y-91778966D01*
X93513997Y-91776935D01*
X93524373Y-91774830D01*
X93532315Y-91773481D01*
X93550664Y-91770966D01*
X93557259Y-91770238D01*
X93588617Y-91767612D01*
X93593500Y-91767299D01*
X93601303Y-91766950D01*
X93640522Y-91765195D01*
X93643714Y-91765094D01*
X93707403Y-91763878D01*
X93709249Y-91763856D01*
X93780582Y-91763546D01*
X93806012Y-91762099D01*
X93828250Y-91760834D01*
X93828254Y-91760833D01*
X93834394Y-91760484D01*
X93837417Y-91759705D01*
X93852987Y-91758500D01*
X95932930Y-91758500D01*
X95951880Y-91759933D01*
X95966115Y-91762099D01*
X95966119Y-91762099D01*
X95973349Y-91763199D01*
X95980641Y-91762606D01*
X95980644Y-91762606D01*
X96026018Y-91758915D01*
X96036233Y-91758500D01*
X96044293Y-91758500D01*
X96057583Y-91756951D01*
X96072507Y-91755211D01*
X96076882Y-91754778D01*
X96142339Y-91749454D01*
X96142342Y-91749453D01*
X96149637Y-91748860D01*
X96156601Y-91746604D01*
X96162560Y-91745413D01*
X96168415Y-91744029D01*
X96175681Y-91743182D01*
X96244327Y-91718265D01*
X96248455Y-91716848D01*
X96310936Y-91696607D01*
X96310938Y-91696606D01*
X96317899Y-91694351D01*
X96324154Y-91690555D01*
X96329628Y-91688049D01*
X96335058Y-91685330D01*
X96341937Y-91682833D01*
X96402976Y-91642814D01*
X96406680Y-91640477D01*
X96469107Y-91602595D01*
X96477484Y-91595197D01*
X96477508Y-91595224D01*
X96480500Y-91592571D01*
X96483733Y-91589868D01*
X96489852Y-91585856D01*
X96543128Y-91529617D01*
X96545506Y-91527175D01*
X97832681Y-90240000D01*
X112694647Y-90240000D01*
X112714022Y-90461463D01*
X112771560Y-90676196D01*
X112773882Y-90681177D01*
X112773883Y-90681178D01*
X112863186Y-90872689D01*
X112863189Y-90872694D01*
X112865512Y-90877676D01*
X112868668Y-90882183D01*
X112868669Y-90882185D01*
X112923318Y-90960231D01*
X112993023Y-91059781D01*
X113150219Y-91216977D01*
X113154727Y-91220134D01*
X113154730Y-91220136D01*
X113228661Y-91271903D01*
X113332323Y-91344488D01*
X113337305Y-91346811D01*
X113337310Y-91346814D01*
X113528822Y-91436117D01*
X113533804Y-91438440D01*
X113539112Y-91439862D01*
X113539114Y-91439863D01*
X113604949Y-91457503D01*
X113748537Y-91495978D01*
X113970000Y-91515353D01*
X114191463Y-91495978D01*
X114335051Y-91457503D01*
X114400886Y-91439863D01*
X114400888Y-91439862D01*
X114406196Y-91438440D01*
X114411178Y-91436117D01*
X114602690Y-91346814D01*
X114602695Y-91346811D01*
X114607677Y-91344488D01*
X114711339Y-91271903D01*
X114785270Y-91220136D01*
X114785273Y-91220134D01*
X114789781Y-91216977D01*
X114946977Y-91059781D01*
X115016683Y-90960231D01*
X115071331Y-90882185D01*
X115071332Y-90882183D01*
X115074488Y-90877676D01*
X115076811Y-90872694D01*
X115076814Y-90872689D01*
X115166117Y-90681178D01*
X115166118Y-90681177D01*
X115168440Y-90676196D01*
X115225978Y-90461463D01*
X115245353Y-90240000D01*
X115225978Y-90018537D01*
X115168440Y-89803804D01*
X115166117Y-89798822D01*
X115076814Y-89607311D01*
X115076811Y-89607306D01*
X115074488Y-89602324D01*
X115071331Y-89597815D01*
X114950136Y-89424730D01*
X114950134Y-89424727D01*
X114946977Y-89420219D01*
X114789781Y-89263023D01*
X114785273Y-89259866D01*
X114785270Y-89259864D01*
X114654180Y-89168074D01*
X114607677Y-89135512D01*
X114602695Y-89133189D01*
X114602690Y-89133186D01*
X114497035Y-89083919D01*
X114443750Y-89037002D01*
X114424289Y-88968725D01*
X114442302Y-88909133D01*
X128955612Y-88909133D01*
X128964325Y-88920653D01*
X129062018Y-88992284D01*
X129069928Y-88997227D01*
X129292890Y-89114533D01*
X129301453Y-89118256D01*
X129539304Y-89201318D01*
X129548313Y-89203732D01*
X129795842Y-89250727D01*
X129805098Y-89251781D01*
X130056857Y-89261673D01*
X130066171Y-89261347D01*
X130316615Y-89233920D01*
X130325792Y-89232219D01*
X130569431Y-89168074D01*
X130578251Y-89165037D01*
X130809736Y-89065583D01*
X130818008Y-89061276D01*
X131032249Y-88928700D01*
X131039188Y-88923658D01*
X131047518Y-88911019D01*
X131041456Y-88900666D01*
X130012812Y-87872022D01*
X129998868Y-87864408D01*
X129997035Y-87864539D01*
X129990420Y-87868790D01*
X128962270Y-88896940D01*
X128955612Y-88909133D01*
X114442302Y-88909133D01*
X114444831Y-88900765D01*
X114497035Y-88855529D01*
X114602445Y-88806376D01*
X114611931Y-88800898D01*
X114655764Y-88770207D01*
X114664139Y-88759729D01*
X114657071Y-88746281D01*
X113982812Y-88072022D01*
X113968868Y-88064408D01*
X113967035Y-88064539D01*
X113960420Y-88068790D01*
X113282207Y-88747003D01*
X113275777Y-88758777D01*
X113285074Y-88770793D01*
X113328069Y-88800898D01*
X113337555Y-88806376D01*
X113442965Y-88855529D01*
X113496250Y-88902446D01*
X113515711Y-88970723D01*
X113495169Y-89038683D01*
X113442965Y-89083919D01*
X113337311Y-89133186D01*
X113337306Y-89133189D01*
X113332324Y-89135512D01*
X113327817Y-89138668D01*
X113327815Y-89138669D01*
X113154730Y-89259864D01*
X113154727Y-89259866D01*
X113150219Y-89263023D01*
X112993023Y-89420219D01*
X112989866Y-89424727D01*
X112989864Y-89424730D01*
X112868669Y-89597815D01*
X112865512Y-89602324D01*
X112863189Y-89607306D01*
X112863186Y-89607311D01*
X112773883Y-89798822D01*
X112771560Y-89803804D01*
X112714022Y-90018537D01*
X112694647Y-90240000D01*
X97832681Y-90240000D01*
X98488911Y-89583770D01*
X98503323Y-89571384D01*
X98514918Y-89562851D01*
X98514923Y-89562846D01*
X98520818Y-89558508D01*
X98525557Y-89552930D01*
X98525560Y-89552927D01*
X98555035Y-89518232D01*
X98561965Y-89510716D01*
X98567660Y-89505021D01*
X98585281Y-89482749D01*
X98588072Y-89479345D01*
X98630591Y-89429297D01*
X98630592Y-89429295D01*
X98635333Y-89423715D01*
X98638661Y-89417199D01*
X98642028Y-89412150D01*
X98645195Y-89407021D01*
X98649734Y-89401284D01*
X98680655Y-89335125D01*
X98682561Y-89331225D01*
X98715769Y-89266192D01*
X98717508Y-89259084D01*
X98719607Y-89253441D01*
X98721524Y-89247678D01*
X98724622Y-89241050D01*
X98739487Y-89169583D01*
X98740457Y-89165299D01*
X98756473Y-89099845D01*
X98757808Y-89094390D01*
X98758500Y-89083236D01*
X98758536Y-89083238D01*
X98758775Y-89079245D01*
X98759149Y-89075053D01*
X98760640Y-89067885D01*
X98758546Y-88990479D01*
X98758500Y-88987072D01*
X98758500Y-87823910D01*
X98759862Y-87805437D01*
X98762886Y-87785031D01*
X98763546Y-87780581D01*
X98763856Y-87709249D01*
X98763878Y-87707398D01*
X98763915Y-87705475D01*
X112695628Y-87705475D01*
X112714038Y-87915896D01*
X112715941Y-87926691D01*
X112770609Y-88130715D01*
X112774355Y-88141007D01*
X112863623Y-88332441D01*
X112869103Y-88341932D01*
X112899794Y-88385765D01*
X112910271Y-88394140D01*
X112923718Y-88387072D01*
X113597978Y-87712812D01*
X113604356Y-87701132D01*
X114334408Y-87701132D01*
X114334539Y-87702965D01*
X114338790Y-87709580D01*
X115017003Y-88387793D01*
X115028777Y-88394223D01*
X115040793Y-88384926D01*
X115070897Y-88341932D01*
X115076377Y-88332441D01*
X115165645Y-88141007D01*
X115169391Y-88130715D01*
X115224059Y-87926691D01*
X115225962Y-87915896D01*
X115244372Y-87705475D01*
X115244372Y-87694525D01*
X115225962Y-87484104D01*
X115224059Y-87473309D01*
X115220097Y-87458523D01*
X128237898Y-87458523D01*
X128249987Y-87710175D01*
X128251124Y-87719435D01*
X128300274Y-87966535D01*
X128302768Y-87975528D01*
X128387900Y-88212639D01*
X128391700Y-88221174D01*
X128510946Y-88443101D01*
X128515957Y-88450968D01*
X128579446Y-88535990D01*
X128590704Y-88544439D01*
X128603123Y-88537667D01*
X129627978Y-87512812D01*
X129634356Y-87501132D01*
X130364408Y-87501132D01*
X130364539Y-87502965D01*
X130368790Y-87509580D01*
X131399913Y-88540703D01*
X131412293Y-88547463D01*
X131420634Y-88541219D01*
X131546765Y-88345127D01*
X131551212Y-88336936D01*
X131654691Y-88107222D01*
X131657882Y-88098455D01*
X131726269Y-87855976D01*
X131728129Y-87846834D01*
X131760116Y-87595396D01*
X131760597Y-87589108D01*
X131762847Y-87503160D01*
X131762696Y-87496851D01*
X131743912Y-87244074D01*
X131742536Y-87234868D01*
X131686929Y-86989126D01*
X131684205Y-86980215D01*
X131592888Y-86745392D01*
X131588877Y-86736983D01*
X131463854Y-86518240D01*
X131458643Y-86510514D01*
X131421391Y-86463261D01*
X131409466Y-86454790D01*
X131397934Y-86461276D01*
X130372022Y-87487188D01*
X130364408Y-87501132D01*
X129634356Y-87501132D01*
X129635592Y-87498868D01*
X129635461Y-87497035D01*
X129631210Y-87490420D01*
X128601321Y-86460531D01*
X128588013Y-86453264D01*
X128577974Y-86460386D01*
X128567761Y-86472666D01*
X128562346Y-86480258D01*
X128431646Y-86695646D01*
X128427408Y-86703963D01*
X128329981Y-86936299D01*
X128327020Y-86945149D01*
X128265006Y-87189331D01*
X128263384Y-87198528D01*
X128238143Y-87449198D01*
X128237898Y-87458523D01*
X115220097Y-87458523D01*
X115169391Y-87269285D01*
X115165645Y-87258993D01*
X115076377Y-87067559D01*
X115070897Y-87058068D01*
X115040206Y-87014235D01*
X115029729Y-87005860D01*
X115016282Y-87012928D01*
X114342022Y-87687188D01*
X114334408Y-87701132D01*
X113604356Y-87701132D01*
X113605592Y-87698868D01*
X113605461Y-87697035D01*
X113601210Y-87690420D01*
X112922997Y-87012207D01*
X112911223Y-87005777D01*
X112899207Y-87015074D01*
X112869103Y-87058068D01*
X112863623Y-87067559D01*
X112774355Y-87258993D01*
X112770609Y-87269285D01*
X112715941Y-87473309D01*
X112714038Y-87484104D01*
X112695628Y-87694525D01*
X112695628Y-87705475D01*
X98763915Y-87705475D01*
X98765093Y-87643731D01*
X98765196Y-87640503D01*
X98767299Y-87593500D01*
X98767612Y-87588617D01*
X98770238Y-87557259D01*
X98770966Y-87550664D01*
X98773481Y-87532315D01*
X98774830Y-87524373D01*
X98776935Y-87513997D01*
X98778966Y-87505508D01*
X98781486Y-87496384D01*
X98783970Y-87488430D01*
X98789084Y-87473773D01*
X98791608Y-87467144D01*
X98801961Y-87442101D01*
X98804121Y-87437177D01*
X98820997Y-87400830D01*
X98822372Y-87397869D01*
X98823433Y-87394781D01*
X98824656Y-87391744D01*
X98824944Y-87391860D01*
X98828787Y-87383418D01*
X98828539Y-87383307D01*
X98831223Y-87377279D01*
X98834527Y-87371556D01*
X98893542Y-87189928D01*
X98899714Y-87131210D01*
X98912814Y-87006565D01*
X98913504Y-87000000D01*
X98893542Y-86810072D01*
X98834527Y-86628444D01*
X98739040Y-86463056D01*
X98648948Y-86362998D01*
X98615675Y-86326045D01*
X98615674Y-86326044D01*
X98611253Y-86321134D01*
X98456752Y-86208882D01*
X98450724Y-86206198D01*
X98450722Y-86206197D01*
X98288319Y-86133891D01*
X98288318Y-86133891D01*
X98282288Y-86131206D01*
X98188888Y-86111353D01*
X98101944Y-86092872D01*
X98101939Y-86092872D01*
X98095487Y-86091500D01*
X97904513Y-86091500D01*
X97898061Y-86092872D01*
X97898056Y-86092872D01*
X97811112Y-86111353D01*
X97717712Y-86131206D01*
X97711682Y-86133891D01*
X97711681Y-86133891D01*
X97549278Y-86206197D01*
X97549276Y-86206198D01*
X97543248Y-86208882D01*
X97388747Y-86321134D01*
X97384326Y-86326044D01*
X97384325Y-86326045D01*
X97351053Y-86362998D01*
X97260960Y-86463056D01*
X97165473Y-86628444D01*
X97106458Y-86810072D01*
X97086496Y-87000000D01*
X97087186Y-87006565D01*
X97100287Y-87131210D01*
X97106458Y-87189928D01*
X97165473Y-87371556D01*
X97168777Y-87377279D01*
X97171462Y-87383309D01*
X97171455Y-87383312D01*
X97176349Y-87393617D01*
X97177625Y-87397862D01*
X97195887Y-87437196D01*
X97198027Y-87442077D01*
X97208389Y-87467138D01*
X97210919Y-87473780D01*
X97216032Y-87488437D01*
X97218513Y-87496384D01*
X97221033Y-87505508D01*
X97223064Y-87513997D01*
X97225169Y-87524373D01*
X97226518Y-87532315D01*
X97229033Y-87550664D01*
X97229761Y-87557259D01*
X97232387Y-87588617D01*
X97232700Y-87593500D01*
X97234803Y-87640503D01*
X97234906Y-87643731D01*
X97236121Y-87707400D01*
X97236143Y-87709251D01*
X97236454Y-87780587D01*
X97239514Y-87834371D01*
X97240294Y-87837399D01*
X97241500Y-87852977D01*
X97241500Y-88633629D01*
X97221498Y-88701750D01*
X97204595Y-88722724D01*
X95722724Y-90204595D01*
X95660412Y-90238621D01*
X95633629Y-90241500D01*
X93823916Y-90241500D01*
X93805443Y-90240138D01*
X93780588Y-90236454D01*
X93776101Y-90236434D01*
X93776095Y-90236434D01*
X93714122Y-90236164D01*
X93709251Y-90236143D01*
X93707405Y-90236121D01*
X93643714Y-90234905D01*
X93640522Y-90234804D01*
X93601303Y-90233049D01*
X93593500Y-90232700D01*
X93588617Y-90232387D01*
X93557259Y-90229761D01*
X93550664Y-90229033D01*
X93532315Y-90226518D01*
X93524373Y-90225169D01*
X93513997Y-90223064D01*
X93505508Y-90221033D01*
X93498957Y-90219224D01*
X93496384Y-90218513D01*
X93488437Y-90216032D01*
X93473780Y-90210919D01*
X93467138Y-90208389D01*
X93442077Y-90198027D01*
X93437196Y-90195887D01*
X93397862Y-90177625D01*
X93394783Y-90176567D01*
X93394775Y-90176564D01*
X93353557Y-90162404D01*
X93343247Y-90158347D01*
X93288319Y-90133891D01*
X93288317Y-90133890D01*
X93282288Y-90131206D01*
X93188888Y-90111353D01*
X93101944Y-90092872D01*
X93101939Y-90092872D01*
X93095487Y-90091500D01*
X92904513Y-90091500D01*
X92898061Y-90092872D01*
X92898056Y-90092872D01*
X92811112Y-90111353D01*
X92717712Y-90131206D01*
X92711682Y-90133891D01*
X92711681Y-90133891D01*
X92549278Y-90206197D01*
X92549276Y-90206198D01*
X92543248Y-90208882D01*
X92537907Y-90212762D01*
X92537906Y-90212763D01*
X92502316Y-90238621D01*
X92388747Y-90321134D01*
X92384326Y-90326044D01*
X92384325Y-90326045D01*
X92267328Y-90455984D01*
X92260960Y-90463056D01*
X92165473Y-90628444D01*
X92106458Y-90810072D01*
X92105768Y-90816633D01*
X92105768Y-90816635D01*
X92098879Y-90882185D01*
X92086496Y-91000000D01*
X87048836Y-91000000D01*
X87076683Y-90960231D01*
X87131331Y-90882185D01*
X87131332Y-90882183D01*
X87134488Y-90877676D01*
X87136811Y-90872694D01*
X87136814Y-90872689D01*
X87226117Y-90681178D01*
X87226118Y-90681177D01*
X87228440Y-90676196D01*
X87285978Y-90461463D01*
X87305353Y-90240000D01*
X87285978Y-90018537D01*
X87228440Y-89803804D01*
X87226117Y-89798822D01*
X87136814Y-89607311D01*
X87136811Y-89607306D01*
X87134488Y-89602324D01*
X87131331Y-89597815D01*
X87010136Y-89424730D01*
X87010134Y-89424727D01*
X87006977Y-89420219D01*
X86849781Y-89263023D01*
X86845273Y-89259866D01*
X86845270Y-89259864D01*
X86714180Y-89168074D01*
X86667677Y-89135512D01*
X86662695Y-89133189D01*
X86662690Y-89133186D01*
X86557035Y-89083919D01*
X86503750Y-89037002D01*
X86484289Y-88968725D01*
X86504831Y-88900765D01*
X86557035Y-88855529D01*
X86662445Y-88806376D01*
X86671931Y-88800898D01*
X86715764Y-88770207D01*
X86724139Y-88759729D01*
X86717071Y-88746281D01*
X86042812Y-88072022D01*
X86028868Y-88064408D01*
X86027035Y-88064539D01*
X86020420Y-88068790D01*
X85342207Y-88747003D01*
X85335777Y-88758777D01*
X85345074Y-88770793D01*
X85388069Y-88800898D01*
X85397555Y-88806376D01*
X85502965Y-88855529D01*
X85556250Y-88902446D01*
X85575711Y-88970723D01*
X85555169Y-89038683D01*
X85502965Y-89083919D01*
X85397311Y-89133186D01*
X85397306Y-89133189D01*
X85392324Y-89135512D01*
X85387817Y-89138668D01*
X85387815Y-89138669D01*
X85214730Y-89259864D01*
X85214727Y-89259866D01*
X85210219Y-89263023D01*
X85053023Y-89420219D01*
X85049866Y-89424727D01*
X85049864Y-89424730D01*
X84928669Y-89597815D01*
X84925512Y-89602324D01*
X84923189Y-89607306D01*
X84923186Y-89607311D01*
X84833883Y-89798822D01*
X84831560Y-89803804D01*
X84774022Y-90018537D01*
X84754647Y-90240000D01*
X78740000Y-90240000D01*
X78740000Y-87705475D01*
X84755628Y-87705475D01*
X84774038Y-87915896D01*
X84775941Y-87926691D01*
X84830609Y-88130715D01*
X84834355Y-88141007D01*
X84923623Y-88332441D01*
X84929103Y-88341932D01*
X84959794Y-88385765D01*
X84970271Y-88394140D01*
X84983718Y-88387072D01*
X85657978Y-87712812D01*
X85664356Y-87701132D01*
X86394408Y-87701132D01*
X86394539Y-87702965D01*
X86398790Y-87709580D01*
X87077003Y-88387793D01*
X87088777Y-88394223D01*
X87100793Y-88384926D01*
X87130897Y-88341932D01*
X87136377Y-88332441D01*
X87225645Y-88141007D01*
X87229391Y-88130715D01*
X87284059Y-87926691D01*
X87285962Y-87915896D01*
X87304372Y-87705475D01*
X87304372Y-87694525D01*
X87285962Y-87484104D01*
X87284059Y-87473309D01*
X87229391Y-87269285D01*
X87225645Y-87258993D01*
X87136377Y-87067559D01*
X87130897Y-87058068D01*
X87100206Y-87014235D01*
X87089729Y-87005860D01*
X87076282Y-87012928D01*
X86402022Y-87687188D01*
X86394408Y-87701132D01*
X85664356Y-87701132D01*
X85665592Y-87698868D01*
X85665461Y-87697035D01*
X85661210Y-87690420D01*
X84982997Y-87012207D01*
X84971223Y-87005777D01*
X84959207Y-87015074D01*
X84929103Y-87058068D01*
X84923623Y-87067559D01*
X84834355Y-87258993D01*
X84830609Y-87269285D01*
X84775941Y-87473309D01*
X84774038Y-87484104D01*
X84755628Y-87694525D01*
X84755628Y-87705475D01*
X78740000Y-87705475D01*
X78740000Y-85160000D01*
X84754647Y-85160000D01*
X84774022Y-85381463D01*
X84831560Y-85596196D01*
X84833882Y-85601177D01*
X84833883Y-85601178D01*
X84923186Y-85792689D01*
X84923189Y-85792694D01*
X84925512Y-85797676D01*
X84928668Y-85802183D01*
X84928669Y-85802185D01*
X84974407Y-85867505D01*
X85053023Y-85979781D01*
X85210219Y-86136977D01*
X85214727Y-86140134D01*
X85214730Y-86140136D01*
X85290495Y-86193187D01*
X85392323Y-86264488D01*
X85397305Y-86266811D01*
X85397310Y-86266814D01*
X85502965Y-86316081D01*
X85556250Y-86362998D01*
X85575711Y-86431275D01*
X85555169Y-86499235D01*
X85502965Y-86544471D01*
X85397559Y-86593623D01*
X85388068Y-86599103D01*
X85344235Y-86629794D01*
X85335860Y-86640271D01*
X85342928Y-86653718D01*
X86017188Y-87327978D01*
X86031132Y-87335592D01*
X86032965Y-87335461D01*
X86039580Y-87331210D01*
X86717793Y-86652997D01*
X86724223Y-86641223D01*
X86714926Y-86629207D01*
X86671931Y-86599102D01*
X86662445Y-86593624D01*
X86557035Y-86544471D01*
X86503750Y-86497554D01*
X86484289Y-86429277D01*
X86504831Y-86361317D01*
X86557035Y-86316081D01*
X86662690Y-86266814D01*
X86662695Y-86266811D01*
X86667677Y-86264488D01*
X86769505Y-86193187D01*
X86845270Y-86140136D01*
X86845273Y-86140134D01*
X86849781Y-86136977D01*
X87006977Y-85979781D01*
X87085594Y-85867505D01*
X87131331Y-85802185D01*
X87131332Y-85802183D01*
X87134488Y-85797676D01*
X87136811Y-85792694D01*
X87136814Y-85792689D01*
X87226117Y-85601178D01*
X87226118Y-85601177D01*
X87228440Y-85596196D01*
X87285978Y-85381463D01*
X87305353Y-85160000D01*
X112694647Y-85160000D01*
X112714022Y-85381463D01*
X112771560Y-85596196D01*
X112773882Y-85601177D01*
X112773883Y-85601178D01*
X112863186Y-85792689D01*
X112863189Y-85792694D01*
X112865512Y-85797676D01*
X112868668Y-85802183D01*
X112868669Y-85802185D01*
X112914407Y-85867505D01*
X112993023Y-85979781D01*
X113150219Y-86136977D01*
X113154727Y-86140134D01*
X113154730Y-86140136D01*
X113230495Y-86193187D01*
X113332323Y-86264488D01*
X113337305Y-86266811D01*
X113337310Y-86266814D01*
X113442965Y-86316081D01*
X113496250Y-86362998D01*
X113515711Y-86431275D01*
X113495169Y-86499235D01*
X113442965Y-86544471D01*
X113337559Y-86593623D01*
X113328068Y-86599103D01*
X113284235Y-86629794D01*
X113275860Y-86640271D01*
X113282928Y-86653718D01*
X113957188Y-87327978D01*
X113971132Y-87335592D01*
X113972965Y-87335461D01*
X113979580Y-87331210D01*
X114657793Y-86652997D01*
X114664223Y-86641223D01*
X114654926Y-86629207D01*
X114611931Y-86599102D01*
X114602445Y-86593624D01*
X114497035Y-86544471D01*
X114443750Y-86497554D01*
X114424289Y-86429277D01*
X114444831Y-86361317D01*
X114497035Y-86316081D01*
X114602690Y-86266814D01*
X114602695Y-86266811D01*
X114607677Y-86264488D01*
X114709505Y-86193187D01*
X114785270Y-86140136D01*
X114785273Y-86140134D01*
X114789781Y-86136977D01*
X114837955Y-86088803D01*
X128953216Y-86088803D01*
X128957789Y-86098579D01*
X129987188Y-87127978D01*
X130001132Y-87135592D01*
X130002965Y-87135461D01*
X130009580Y-87131210D01*
X131038419Y-86102371D01*
X131044803Y-86090681D01*
X131035391Y-86078570D01*
X130898593Y-85983670D01*
X130890565Y-85978942D01*
X130664593Y-85867505D01*
X130655960Y-85864017D01*
X130415998Y-85787205D01*
X130406938Y-85785029D01*
X130158260Y-85744529D01*
X130148973Y-85743717D01*
X129897053Y-85740419D01*
X129887742Y-85740989D01*
X129638097Y-85774964D01*
X129628978Y-85776902D01*
X129387098Y-85847404D01*
X129378367Y-85850667D01*
X129149558Y-85956151D01*
X129141406Y-85960670D01*
X128962353Y-86078062D01*
X128953216Y-86088803D01*
X114837955Y-86088803D01*
X114946977Y-85979781D01*
X115025594Y-85867505D01*
X115071331Y-85802185D01*
X115071332Y-85802183D01*
X115074488Y-85797676D01*
X115076811Y-85792694D01*
X115076814Y-85792689D01*
X115166117Y-85601178D01*
X115166118Y-85601177D01*
X115168440Y-85596196D01*
X115225978Y-85381463D01*
X115245353Y-85160000D01*
X115225978Y-84938537D01*
X115168440Y-84723804D01*
X115166117Y-84718822D01*
X115076814Y-84527311D01*
X115076811Y-84527306D01*
X115074488Y-84522324D01*
X114946977Y-84340219D01*
X114789781Y-84183023D01*
X114785273Y-84179866D01*
X114785270Y-84179864D01*
X114709505Y-84126813D01*
X114607677Y-84055512D01*
X114602695Y-84053189D01*
X114602690Y-84053186D01*
X114497627Y-84004195D01*
X114444342Y-83957278D01*
X114424881Y-83889001D01*
X114445423Y-83821041D01*
X114497627Y-83775805D01*
X114602690Y-83726814D01*
X114602695Y-83726811D01*
X114607677Y-83724488D01*
X114709505Y-83653187D01*
X114785270Y-83600136D01*
X114785273Y-83600134D01*
X114789781Y-83596977D01*
X114946977Y-83439781D01*
X115074488Y-83257676D01*
X115076811Y-83252694D01*
X115076814Y-83252689D01*
X115166117Y-83061178D01*
X115166118Y-83061177D01*
X115168440Y-83056196D01*
X115225978Y-82841463D01*
X115245353Y-82620000D01*
X115225978Y-82398537D01*
X115168440Y-82183804D01*
X115166117Y-82178822D01*
X115076814Y-81987311D01*
X115076811Y-81987306D01*
X115074488Y-81982324D01*
X114946977Y-81800219D01*
X114789781Y-81643023D01*
X114785273Y-81639866D01*
X114785270Y-81639864D01*
X114709505Y-81586813D01*
X114607677Y-81515512D01*
X114602695Y-81513189D01*
X114602690Y-81513186D01*
X114497627Y-81464195D01*
X114444342Y-81417278D01*
X114424881Y-81349001D01*
X114445423Y-81281041D01*
X114497627Y-81235805D01*
X114602690Y-81186814D01*
X114602695Y-81186811D01*
X114607677Y-81184488D01*
X114709505Y-81113187D01*
X114785270Y-81060136D01*
X114785273Y-81060134D01*
X114789781Y-81056977D01*
X114946977Y-80899781D01*
X115074488Y-80717676D01*
X115076811Y-80712694D01*
X115076814Y-80712689D01*
X115166117Y-80521178D01*
X115166118Y-80521177D01*
X115168440Y-80516196D01*
X115225978Y-80301463D01*
X115245353Y-80080000D01*
X115225978Y-79858537D01*
X115168440Y-79643804D01*
X115166117Y-79638822D01*
X115076814Y-79447311D01*
X115076811Y-79447306D01*
X115074488Y-79442324D01*
X114946977Y-79260219D01*
X114789781Y-79103023D01*
X114785273Y-79099866D01*
X114785270Y-79099864D01*
X114709505Y-79046813D01*
X114607677Y-78975512D01*
X114602695Y-78973189D01*
X114602690Y-78973186D01*
X114497627Y-78924195D01*
X114444342Y-78877278D01*
X114424881Y-78809001D01*
X114445423Y-78741041D01*
X114497627Y-78695805D01*
X114602690Y-78646814D01*
X114602695Y-78646811D01*
X114607677Y-78644488D01*
X114709505Y-78573187D01*
X114785270Y-78520136D01*
X114785273Y-78520134D01*
X114789781Y-78516977D01*
X114946977Y-78359781D01*
X115034894Y-78234223D01*
X115071331Y-78182185D01*
X115071332Y-78182183D01*
X115074488Y-78177676D01*
X115076811Y-78172694D01*
X115076814Y-78172689D01*
X115166117Y-77981178D01*
X115166118Y-77981177D01*
X115168440Y-77976196D01*
X115225978Y-77761463D01*
X115245353Y-77540000D01*
X115225978Y-77318537D01*
X115168440Y-77103804D01*
X115166117Y-77098822D01*
X115076814Y-76907311D01*
X115076811Y-76907306D01*
X115074488Y-76902324D01*
X115071331Y-76897815D01*
X114950136Y-76724730D01*
X114950134Y-76724727D01*
X114946977Y-76720219D01*
X114789781Y-76563023D01*
X114785273Y-76559866D01*
X114785270Y-76559864D01*
X114709505Y-76506813D01*
X114607677Y-76435512D01*
X114602695Y-76433189D01*
X114602690Y-76433186D01*
X114497627Y-76384195D01*
X114444342Y-76337278D01*
X114424881Y-76269001D01*
X114445423Y-76201041D01*
X114497627Y-76155805D01*
X114602690Y-76106814D01*
X114602695Y-76106811D01*
X114607677Y-76104488D01*
X114709505Y-76033187D01*
X114785270Y-75980136D01*
X114785273Y-75980134D01*
X114789781Y-75976977D01*
X114946977Y-75819781D01*
X115074488Y-75637676D01*
X115076811Y-75632694D01*
X115076814Y-75632689D01*
X115166117Y-75441178D01*
X115166118Y-75441177D01*
X115168440Y-75436196D01*
X115225978Y-75221463D01*
X115245353Y-75000000D01*
X115225978Y-74778537D01*
X115168440Y-74563804D01*
X115166117Y-74558822D01*
X115076814Y-74367311D01*
X115076811Y-74367306D01*
X115074488Y-74362324D01*
X114946977Y-74180219D01*
X114789781Y-74023023D01*
X114785273Y-74019866D01*
X114785270Y-74019864D01*
X114709505Y-73966813D01*
X114607677Y-73895512D01*
X114602695Y-73893189D01*
X114602690Y-73893186D01*
X114497627Y-73844195D01*
X114444342Y-73797278D01*
X114424881Y-73729001D01*
X114445423Y-73661041D01*
X114497627Y-73615805D01*
X114602690Y-73566814D01*
X114602695Y-73566811D01*
X114607677Y-73564488D01*
X114709505Y-73493187D01*
X114785270Y-73440136D01*
X114785273Y-73440134D01*
X114789781Y-73436977D01*
X114946977Y-73279781D01*
X115074488Y-73097676D01*
X115076811Y-73092694D01*
X115076814Y-73092689D01*
X115166117Y-72901178D01*
X115166118Y-72901177D01*
X115168440Y-72896196D01*
X115225978Y-72681463D01*
X115245353Y-72460000D01*
X115225978Y-72238537D01*
X115168440Y-72023804D01*
X115166117Y-72018822D01*
X115076814Y-71827311D01*
X115076811Y-71827306D01*
X115074488Y-71822324D01*
X115029540Y-71758131D01*
X114950136Y-71644730D01*
X114950134Y-71644727D01*
X114946977Y-71640219D01*
X114789781Y-71483023D01*
X114785273Y-71479866D01*
X114785270Y-71479864D01*
X114709505Y-71426813D01*
X114607677Y-71355512D01*
X114602695Y-71353189D01*
X114602690Y-71353186D01*
X114497035Y-71303919D01*
X114490465Y-71298134D01*
X128241500Y-71298134D01*
X128248255Y-71360316D01*
X128299385Y-71496705D01*
X128386739Y-71613261D01*
X128503295Y-71700615D01*
X128639684Y-71751745D01*
X128701866Y-71758500D01*
X131298134Y-71758500D01*
X131360316Y-71751745D01*
X131496705Y-71700615D01*
X131613261Y-71613261D01*
X131700615Y-71496705D01*
X131751745Y-71360316D01*
X131758500Y-71298134D01*
X131758500Y-68701866D01*
X131751745Y-68639684D01*
X131700615Y-68503295D01*
X131613261Y-68386739D01*
X131496705Y-68299385D01*
X131360316Y-68248255D01*
X131298134Y-68241500D01*
X128701866Y-68241500D01*
X128639684Y-68248255D01*
X128503295Y-68299385D01*
X128386739Y-68386739D01*
X128299385Y-68503295D01*
X128248255Y-68639684D01*
X128241500Y-68701866D01*
X128241500Y-71298134D01*
X114490465Y-71298134D01*
X114443750Y-71257002D01*
X114424289Y-71188725D01*
X114444831Y-71120765D01*
X114497035Y-71075529D01*
X114602445Y-71026376D01*
X114611931Y-71020898D01*
X114655764Y-70990207D01*
X114664139Y-70979729D01*
X114657071Y-70966281D01*
X113982812Y-70292022D01*
X113968868Y-70284408D01*
X113967035Y-70284539D01*
X113960420Y-70288790D01*
X113282207Y-70967003D01*
X113275777Y-70978777D01*
X113285074Y-70990793D01*
X113328069Y-71020898D01*
X113337555Y-71026376D01*
X113442965Y-71075529D01*
X113496250Y-71122446D01*
X113515711Y-71190723D01*
X113495169Y-71258683D01*
X113442965Y-71303919D01*
X113337311Y-71353186D01*
X113337306Y-71353189D01*
X113332324Y-71355512D01*
X113327817Y-71358668D01*
X113327815Y-71358669D01*
X113154730Y-71479864D01*
X113154727Y-71479866D01*
X113150219Y-71483023D01*
X112993023Y-71640219D01*
X112989866Y-71644727D01*
X112989864Y-71644730D01*
X112910460Y-71758131D01*
X112865512Y-71822324D01*
X112863189Y-71827306D01*
X112863186Y-71827311D01*
X112773883Y-72018822D01*
X112771560Y-72023804D01*
X112714022Y-72238537D01*
X112694647Y-72460000D01*
X112714022Y-72681463D01*
X112771560Y-72896196D01*
X112773882Y-72901177D01*
X112773883Y-72901178D01*
X112863186Y-73092689D01*
X112863189Y-73092694D01*
X112865512Y-73097676D01*
X112993023Y-73279781D01*
X113150219Y-73436977D01*
X113154727Y-73440134D01*
X113154730Y-73440136D01*
X113230495Y-73493187D01*
X113332323Y-73564488D01*
X113337305Y-73566811D01*
X113337310Y-73566814D01*
X113442373Y-73615805D01*
X113495658Y-73662722D01*
X113515119Y-73730999D01*
X113494577Y-73798959D01*
X113442373Y-73844195D01*
X113337311Y-73893186D01*
X113337306Y-73893189D01*
X113332324Y-73895512D01*
X113327817Y-73898668D01*
X113327815Y-73898669D01*
X113154730Y-74019864D01*
X113154727Y-74019866D01*
X113150219Y-74023023D01*
X112993023Y-74180219D01*
X112865512Y-74362324D01*
X112863189Y-74367306D01*
X112863186Y-74367311D01*
X112773883Y-74558822D01*
X112771560Y-74563804D01*
X112714022Y-74778537D01*
X112694647Y-75000000D01*
X112714022Y-75221463D01*
X112771560Y-75436196D01*
X112773882Y-75441177D01*
X112773883Y-75441178D01*
X112863186Y-75632689D01*
X112863189Y-75632694D01*
X112865512Y-75637676D01*
X112993023Y-75819781D01*
X113150219Y-75976977D01*
X113154727Y-75980134D01*
X113154730Y-75980136D01*
X113230495Y-76033187D01*
X113332323Y-76104488D01*
X113337305Y-76106811D01*
X113337310Y-76106814D01*
X113442373Y-76155805D01*
X113495658Y-76202722D01*
X113515119Y-76270999D01*
X113494577Y-76338959D01*
X113442373Y-76384195D01*
X113337311Y-76433186D01*
X113337306Y-76433189D01*
X113332324Y-76435512D01*
X113327817Y-76438668D01*
X113327815Y-76438669D01*
X113154730Y-76559864D01*
X113154727Y-76559866D01*
X113150219Y-76563023D01*
X112993023Y-76720219D01*
X112989866Y-76724727D01*
X112989864Y-76724730D01*
X112868669Y-76897815D01*
X112865512Y-76902324D01*
X112863189Y-76907306D01*
X112863186Y-76907311D01*
X112773883Y-77098822D01*
X112771560Y-77103804D01*
X112714022Y-77318537D01*
X112694647Y-77540000D01*
X112714022Y-77761463D01*
X112771560Y-77976196D01*
X112773882Y-77981177D01*
X112773883Y-77981178D01*
X112863186Y-78172689D01*
X112863189Y-78172694D01*
X112865512Y-78177676D01*
X112868668Y-78182183D01*
X112868669Y-78182185D01*
X112905107Y-78234223D01*
X112993023Y-78359781D01*
X113150219Y-78516977D01*
X113154727Y-78520134D01*
X113154730Y-78520136D01*
X113230495Y-78573187D01*
X113332323Y-78644488D01*
X113337305Y-78646811D01*
X113337310Y-78646814D01*
X113442373Y-78695805D01*
X113495658Y-78742722D01*
X113515119Y-78810999D01*
X113494577Y-78878959D01*
X113442373Y-78924195D01*
X113337311Y-78973186D01*
X113337306Y-78973189D01*
X113332324Y-78975512D01*
X113327817Y-78978668D01*
X113327815Y-78978669D01*
X113154730Y-79099864D01*
X113154727Y-79099866D01*
X113150219Y-79103023D01*
X112993023Y-79260219D01*
X112865512Y-79442324D01*
X112863189Y-79447306D01*
X112863186Y-79447311D01*
X112773883Y-79638822D01*
X112771560Y-79643804D01*
X112714022Y-79858537D01*
X112694647Y-80080000D01*
X112714022Y-80301463D01*
X112771560Y-80516196D01*
X112773882Y-80521177D01*
X112773883Y-80521178D01*
X112863186Y-80712689D01*
X112863189Y-80712694D01*
X112865512Y-80717676D01*
X112993023Y-80899781D01*
X113150219Y-81056977D01*
X113154727Y-81060134D01*
X113154730Y-81060136D01*
X113230495Y-81113187D01*
X113332323Y-81184488D01*
X113337305Y-81186811D01*
X113337310Y-81186814D01*
X113442373Y-81235805D01*
X113495658Y-81282722D01*
X113515119Y-81350999D01*
X113494577Y-81418959D01*
X113442373Y-81464195D01*
X113337311Y-81513186D01*
X113337306Y-81513189D01*
X113332324Y-81515512D01*
X113327817Y-81518668D01*
X113327815Y-81518669D01*
X113154730Y-81639864D01*
X113154727Y-81639866D01*
X113150219Y-81643023D01*
X112993023Y-81800219D01*
X112865512Y-81982324D01*
X112863189Y-81987306D01*
X112863186Y-81987311D01*
X112773883Y-82178822D01*
X112771560Y-82183804D01*
X112714022Y-82398537D01*
X112694647Y-82620000D01*
X112714022Y-82841463D01*
X112771560Y-83056196D01*
X112773882Y-83061177D01*
X112773883Y-83061178D01*
X112863186Y-83252689D01*
X112863189Y-83252694D01*
X112865512Y-83257676D01*
X112993023Y-83439781D01*
X113150219Y-83596977D01*
X113154727Y-83600134D01*
X113154730Y-83600136D01*
X113230495Y-83653187D01*
X113332323Y-83724488D01*
X113337305Y-83726811D01*
X113337310Y-83726814D01*
X113442373Y-83775805D01*
X113495658Y-83822722D01*
X113515119Y-83890999D01*
X113494577Y-83958959D01*
X113442373Y-84004195D01*
X113337311Y-84053186D01*
X113337306Y-84053189D01*
X113332324Y-84055512D01*
X113327817Y-84058668D01*
X113327815Y-84058669D01*
X113154730Y-84179864D01*
X113154727Y-84179866D01*
X113150219Y-84183023D01*
X112993023Y-84340219D01*
X112865512Y-84522324D01*
X112863189Y-84527306D01*
X112863186Y-84527311D01*
X112773883Y-84718822D01*
X112771560Y-84723804D01*
X112714022Y-84938537D01*
X112694647Y-85160000D01*
X87305353Y-85160000D01*
X87285978Y-84938537D01*
X87228440Y-84723804D01*
X87226117Y-84718822D01*
X87136814Y-84527311D01*
X87136811Y-84527306D01*
X87134488Y-84522324D01*
X87006977Y-84340219D01*
X86849781Y-84183023D01*
X86845273Y-84179866D01*
X86845270Y-84179864D01*
X86769505Y-84126813D01*
X86667677Y-84055512D01*
X86662695Y-84053189D01*
X86662690Y-84053186D01*
X86557627Y-84004195D01*
X86504342Y-83957278D01*
X86484881Y-83889001D01*
X86505423Y-83821041D01*
X86557627Y-83775805D01*
X86662690Y-83726814D01*
X86662695Y-83726811D01*
X86667677Y-83724488D01*
X86769505Y-83653187D01*
X86845270Y-83600136D01*
X86845273Y-83600134D01*
X86849781Y-83596977D01*
X87006977Y-83439781D01*
X87134488Y-83257676D01*
X87136811Y-83252694D01*
X87136814Y-83252689D01*
X87226117Y-83061178D01*
X87226118Y-83061177D01*
X87228440Y-83056196D01*
X87285978Y-82841463D01*
X87305353Y-82620000D01*
X87285978Y-82398537D01*
X87228440Y-82183804D01*
X87226117Y-82178822D01*
X87136814Y-81987311D01*
X87136811Y-81987306D01*
X87134488Y-81982324D01*
X87006977Y-81800219D01*
X86849781Y-81643023D01*
X86845273Y-81639866D01*
X86845270Y-81639864D01*
X86769505Y-81586813D01*
X86667677Y-81515512D01*
X86662695Y-81513189D01*
X86662690Y-81513186D01*
X86557627Y-81464195D01*
X86504342Y-81417278D01*
X86484881Y-81349001D01*
X86505423Y-81281041D01*
X86557627Y-81235805D01*
X86662690Y-81186814D01*
X86662695Y-81186811D01*
X86667677Y-81184488D01*
X86769505Y-81113187D01*
X86845270Y-81060136D01*
X86845273Y-81060134D01*
X86849781Y-81056977D01*
X87006977Y-80899781D01*
X87134488Y-80717676D01*
X87136811Y-80712694D01*
X87136814Y-80712689D01*
X87226117Y-80521178D01*
X87226118Y-80521177D01*
X87228440Y-80516196D01*
X87285978Y-80301463D01*
X87305353Y-80080000D01*
X87285978Y-79858537D01*
X87228440Y-79643804D01*
X87226117Y-79638822D01*
X87136814Y-79447311D01*
X87136811Y-79447306D01*
X87134488Y-79442324D01*
X87006977Y-79260219D01*
X86849781Y-79103023D01*
X86845273Y-79099866D01*
X86845270Y-79099864D01*
X86769505Y-79046813D01*
X86667677Y-78975512D01*
X86662695Y-78973189D01*
X86662690Y-78973186D01*
X86557035Y-78923919D01*
X86503750Y-78877002D01*
X86484289Y-78808725D01*
X86504831Y-78740765D01*
X86557035Y-78695529D01*
X86662445Y-78646376D01*
X86671931Y-78640898D01*
X86715764Y-78610207D01*
X86724139Y-78599729D01*
X86717071Y-78586281D01*
X86042812Y-77912022D01*
X86028868Y-77904408D01*
X86027035Y-77904539D01*
X86020420Y-77908790D01*
X85342207Y-78587003D01*
X85335777Y-78598777D01*
X85345074Y-78610793D01*
X85388069Y-78640898D01*
X85397555Y-78646376D01*
X85502965Y-78695529D01*
X85556250Y-78742446D01*
X85575711Y-78810723D01*
X85555169Y-78878683D01*
X85502965Y-78923919D01*
X85397311Y-78973186D01*
X85397306Y-78973189D01*
X85392324Y-78975512D01*
X85387817Y-78978668D01*
X85387815Y-78978669D01*
X85214730Y-79099864D01*
X85214727Y-79099866D01*
X85210219Y-79103023D01*
X85053023Y-79260219D01*
X84925512Y-79442324D01*
X84923189Y-79447306D01*
X84923186Y-79447311D01*
X84833883Y-79638822D01*
X84831560Y-79643804D01*
X84774022Y-79858537D01*
X84754647Y-80080000D01*
X84774022Y-80301463D01*
X84831560Y-80516196D01*
X84833882Y-80521177D01*
X84833883Y-80521178D01*
X84923186Y-80712689D01*
X84923189Y-80712694D01*
X84925512Y-80717676D01*
X85053023Y-80899781D01*
X85210219Y-81056977D01*
X85214727Y-81060134D01*
X85214730Y-81060136D01*
X85290495Y-81113187D01*
X85392323Y-81184488D01*
X85397305Y-81186811D01*
X85397310Y-81186814D01*
X85502373Y-81235805D01*
X85555658Y-81282722D01*
X85575119Y-81350999D01*
X85554577Y-81418959D01*
X85502373Y-81464195D01*
X85397311Y-81513186D01*
X85397306Y-81513189D01*
X85392324Y-81515512D01*
X85387817Y-81518668D01*
X85387815Y-81518669D01*
X85214730Y-81639864D01*
X85214727Y-81639866D01*
X85210219Y-81643023D01*
X85053023Y-81800219D01*
X84925512Y-81982324D01*
X84923189Y-81987306D01*
X84923186Y-81987311D01*
X84833883Y-82178822D01*
X84831560Y-82183804D01*
X84774022Y-82398537D01*
X84754647Y-82620000D01*
X84774022Y-82841463D01*
X84831560Y-83056196D01*
X84833882Y-83061177D01*
X84833883Y-83061178D01*
X84923186Y-83252689D01*
X84923189Y-83252694D01*
X84925512Y-83257676D01*
X85053023Y-83439781D01*
X85210219Y-83596977D01*
X85214727Y-83600134D01*
X85214730Y-83600136D01*
X85290495Y-83653187D01*
X85392323Y-83724488D01*
X85397305Y-83726811D01*
X85397310Y-83726814D01*
X85502373Y-83775805D01*
X85555658Y-83822722D01*
X85575119Y-83890999D01*
X85554577Y-83958959D01*
X85502373Y-84004195D01*
X85397311Y-84053186D01*
X85397306Y-84053189D01*
X85392324Y-84055512D01*
X85387817Y-84058668D01*
X85387815Y-84058669D01*
X85214730Y-84179864D01*
X85214727Y-84179866D01*
X85210219Y-84183023D01*
X85053023Y-84340219D01*
X84925512Y-84522324D01*
X84923189Y-84527306D01*
X84923186Y-84527311D01*
X84833883Y-84718822D01*
X84831560Y-84723804D01*
X84774022Y-84938537D01*
X84754647Y-85160000D01*
X78740000Y-85160000D01*
X78740000Y-77545475D01*
X84755628Y-77545475D01*
X84774038Y-77755896D01*
X84775941Y-77766691D01*
X84830609Y-77970715D01*
X84834355Y-77981007D01*
X84923623Y-78172441D01*
X84929103Y-78181932D01*
X84959794Y-78225765D01*
X84970271Y-78234140D01*
X84983718Y-78227072D01*
X85657978Y-77552812D01*
X85664356Y-77541132D01*
X86394408Y-77541132D01*
X86394539Y-77542965D01*
X86398790Y-77549580D01*
X87077003Y-78227793D01*
X87088777Y-78234223D01*
X87100793Y-78224926D01*
X87130897Y-78181932D01*
X87136377Y-78172441D01*
X87225645Y-77981007D01*
X87229391Y-77970715D01*
X87284059Y-77766691D01*
X87285962Y-77755896D01*
X87304372Y-77545475D01*
X87304372Y-77534525D01*
X87285962Y-77324104D01*
X87284059Y-77313309D01*
X87229391Y-77109285D01*
X87225645Y-77098993D01*
X87136377Y-76907559D01*
X87130897Y-76898068D01*
X87100206Y-76854235D01*
X87089729Y-76845860D01*
X87076282Y-76852928D01*
X86402022Y-77527188D01*
X86394408Y-77541132D01*
X85664356Y-77541132D01*
X85665592Y-77538868D01*
X85665461Y-77537035D01*
X85661210Y-77530420D01*
X84982997Y-76852207D01*
X84971223Y-76845777D01*
X84959207Y-76855074D01*
X84929103Y-76898068D01*
X84923623Y-76907559D01*
X84834355Y-77098993D01*
X84830609Y-77109285D01*
X84775941Y-77313309D01*
X84774038Y-77324104D01*
X84755628Y-77534525D01*
X84755628Y-77545475D01*
X78740000Y-77545475D01*
X78740000Y-75000000D01*
X84754647Y-75000000D01*
X84774022Y-75221463D01*
X84831560Y-75436196D01*
X84833882Y-75441177D01*
X84833883Y-75441178D01*
X84923186Y-75632689D01*
X84923189Y-75632694D01*
X84925512Y-75637676D01*
X85053023Y-75819781D01*
X85210219Y-75976977D01*
X85214727Y-75980134D01*
X85214730Y-75980136D01*
X85290495Y-76033187D01*
X85392323Y-76104488D01*
X85397305Y-76106811D01*
X85397310Y-76106814D01*
X85502965Y-76156081D01*
X85556250Y-76202998D01*
X85575711Y-76271275D01*
X85555169Y-76339235D01*
X85502965Y-76384471D01*
X85397559Y-76433623D01*
X85388068Y-76439103D01*
X85344235Y-76469794D01*
X85335860Y-76480271D01*
X85342928Y-76493718D01*
X86017188Y-77167978D01*
X86031132Y-77175592D01*
X86032965Y-77175461D01*
X86039580Y-77171210D01*
X86717793Y-76492997D01*
X86724223Y-76481223D01*
X86714926Y-76469207D01*
X86671931Y-76439102D01*
X86662445Y-76433624D01*
X86557035Y-76384471D01*
X86503750Y-76337554D01*
X86484289Y-76269277D01*
X86504831Y-76201317D01*
X86557035Y-76156081D01*
X86662690Y-76106814D01*
X86662695Y-76106811D01*
X86667677Y-76104488D01*
X86769505Y-76033187D01*
X86845270Y-75980136D01*
X86845273Y-75980134D01*
X86849781Y-75976977D01*
X87006977Y-75819781D01*
X87134488Y-75637676D01*
X87136811Y-75632694D01*
X87136814Y-75632689D01*
X87226117Y-75441178D01*
X87226118Y-75441177D01*
X87228440Y-75436196D01*
X87285978Y-75221463D01*
X87305353Y-75000000D01*
X87285978Y-74778537D01*
X87228440Y-74563804D01*
X87226117Y-74558822D01*
X87136814Y-74367311D01*
X87136811Y-74367306D01*
X87134488Y-74362324D01*
X87006977Y-74180219D01*
X86849781Y-74023023D01*
X86845273Y-74019866D01*
X86845270Y-74019864D01*
X86769505Y-73966813D01*
X86667677Y-73895512D01*
X86662695Y-73893189D01*
X86662690Y-73893186D01*
X86557627Y-73844195D01*
X86504342Y-73797278D01*
X86484881Y-73729001D01*
X86505423Y-73661041D01*
X86557627Y-73615805D01*
X86662690Y-73566814D01*
X86662695Y-73566811D01*
X86667677Y-73564488D01*
X86769505Y-73493187D01*
X86845270Y-73440136D01*
X86845273Y-73440134D01*
X86849781Y-73436977D01*
X87006977Y-73279781D01*
X87134488Y-73097676D01*
X87136811Y-73092694D01*
X87136814Y-73092689D01*
X87226117Y-72901178D01*
X87226118Y-72901177D01*
X87228440Y-72896196D01*
X87285978Y-72681463D01*
X87305353Y-72460000D01*
X87285978Y-72238537D01*
X87228440Y-72023804D01*
X87226117Y-72018822D01*
X87136814Y-71827311D01*
X87136811Y-71827306D01*
X87134488Y-71822324D01*
X87089540Y-71758131D01*
X87010136Y-71644730D01*
X87010134Y-71644727D01*
X87006977Y-71640219D01*
X86849781Y-71483023D01*
X86845273Y-71479866D01*
X86845270Y-71479864D01*
X86769505Y-71426813D01*
X86667677Y-71355512D01*
X86662695Y-71353189D01*
X86662690Y-71353186D01*
X86557627Y-71304195D01*
X86504342Y-71257278D01*
X86484881Y-71189001D01*
X86505423Y-71121041D01*
X86557627Y-71075805D01*
X86662690Y-71026814D01*
X86662695Y-71026811D01*
X86667677Y-71024488D01*
X86769505Y-70953187D01*
X86845270Y-70900136D01*
X86845273Y-70900134D01*
X86849781Y-70896977D01*
X87006977Y-70739781D01*
X87094894Y-70614223D01*
X87131331Y-70562185D01*
X87131332Y-70562183D01*
X87134488Y-70557676D01*
X87136811Y-70552694D01*
X87136814Y-70552689D01*
X87226117Y-70361178D01*
X87226118Y-70361177D01*
X87228440Y-70356196D01*
X87285978Y-70141463D01*
X87304874Y-69925475D01*
X112695628Y-69925475D01*
X112714038Y-70135896D01*
X112715941Y-70146691D01*
X112770609Y-70350715D01*
X112774355Y-70361007D01*
X112863623Y-70552441D01*
X112869103Y-70561932D01*
X112899794Y-70605765D01*
X112910271Y-70614140D01*
X112923718Y-70607072D01*
X113597978Y-69932812D01*
X113604356Y-69921132D01*
X114334408Y-69921132D01*
X114334539Y-69922965D01*
X114338790Y-69929580D01*
X115017003Y-70607793D01*
X115028777Y-70614223D01*
X115040793Y-70604926D01*
X115070897Y-70561932D01*
X115076377Y-70552441D01*
X115165645Y-70361007D01*
X115169391Y-70350715D01*
X115224059Y-70146691D01*
X115225962Y-70135896D01*
X115244372Y-69925475D01*
X115244372Y-69914525D01*
X115225962Y-69704104D01*
X115224059Y-69693309D01*
X115169391Y-69489285D01*
X115165645Y-69478993D01*
X115076377Y-69287559D01*
X115070897Y-69278068D01*
X115040206Y-69234235D01*
X115029729Y-69225860D01*
X115016282Y-69232928D01*
X114342022Y-69907188D01*
X114334408Y-69921132D01*
X113604356Y-69921132D01*
X113605592Y-69918868D01*
X113605461Y-69917035D01*
X113601210Y-69910420D01*
X112922997Y-69232207D01*
X112911223Y-69225777D01*
X112899207Y-69235074D01*
X112869103Y-69278068D01*
X112863623Y-69287559D01*
X112774355Y-69478993D01*
X112770609Y-69489285D01*
X112715941Y-69693309D01*
X112714038Y-69704104D01*
X112695628Y-69914525D01*
X112695628Y-69925475D01*
X87304874Y-69925475D01*
X87305353Y-69920000D01*
X87285978Y-69698537D01*
X87228440Y-69483804D01*
X87226117Y-69478822D01*
X87136814Y-69287311D01*
X87136811Y-69287306D01*
X87134488Y-69282324D01*
X87131331Y-69277815D01*
X87010136Y-69104730D01*
X87010134Y-69104727D01*
X87006977Y-69100219D01*
X86849781Y-68943023D01*
X86845273Y-68939866D01*
X86845270Y-68939864D01*
X86769505Y-68886813D01*
X86667677Y-68815512D01*
X86662695Y-68813189D01*
X86662690Y-68813186D01*
X86557627Y-68764195D01*
X86504342Y-68717278D01*
X86484881Y-68649001D01*
X86505423Y-68581041D01*
X86557627Y-68535805D01*
X86662690Y-68486814D01*
X86662695Y-68486811D01*
X86667677Y-68484488D01*
X86807277Y-68386739D01*
X86845270Y-68360136D01*
X86845273Y-68360134D01*
X86849781Y-68356977D01*
X87006977Y-68199781D01*
X87134488Y-68017676D01*
X87136811Y-68012694D01*
X87136814Y-68012689D01*
X87226117Y-67821178D01*
X87226118Y-67821177D01*
X87228440Y-67816196D01*
X87285978Y-67601463D01*
X87305353Y-67380000D01*
X112694647Y-67380000D01*
X112714022Y-67601463D01*
X112771560Y-67816196D01*
X112773882Y-67821177D01*
X112773883Y-67821178D01*
X112863186Y-68012689D01*
X112863189Y-68012694D01*
X112865512Y-68017676D01*
X112993023Y-68199781D01*
X113150219Y-68356977D01*
X113154727Y-68360134D01*
X113154730Y-68360136D01*
X113192723Y-68386739D01*
X113332323Y-68484488D01*
X113337305Y-68486811D01*
X113337310Y-68486814D01*
X113442965Y-68536081D01*
X113496250Y-68582998D01*
X113515711Y-68651275D01*
X113495169Y-68719235D01*
X113442965Y-68764471D01*
X113337559Y-68813623D01*
X113328068Y-68819103D01*
X113284235Y-68849794D01*
X113275860Y-68860271D01*
X113282928Y-68873718D01*
X113957188Y-69547978D01*
X113971132Y-69555592D01*
X113972965Y-69555461D01*
X113979580Y-69551210D01*
X114657793Y-68872997D01*
X114664223Y-68861223D01*
X114654926Y-68849207D01*
X114611931Y-68819102D01*
X114602445Y-68813624D01*
X114497035Y-68764471D01*
X114443750Y-68717554D01*
X114424289Y-68649277D01*
X114444831Y-68581317D01*
X114497035Y-68536081D01*
X114602690Y-68486814D01*
X114602695Y-68486811D01*
X114607677Y-68484488D01*
X114747277Y-68386739D01*
X114785270Y-68360136D01*
X114785273Y-68360134D01*
X114789781Y-68356977D01*
X114946977Y-68199781D01*
X115074488Y-68017676D01*
X115076811Y-68012694D01*
X115076814Y-68012689D01*
X115166117Y-67821178D01*
X115166118Y-67821177D01*
X115168440Y-67816196D01*
X115225978Y-67601463D01*
X115245353Y-67380000D01*
X115225978Y-67158537D01*
X115168440Y-66943804D01*
X115078898Y-66751781D01*
X115076814Y-66747311D01*
X115076811Y-66747306D01*
X115074488Y-66742324D01*
X115071331Y-66737815D01*
X114950136Y-66564730D01*
X114950134Y-66564727D01*
X114946977Y-66560219D01*
X114795891Y-66409133D01*
X128955612Y-66409133D01*
X128964325Y-66420653D01*
X129062018Y-66492284D01*
X129069928Y-66497227D01*
X129292890Y-66614533D01*
X129301453Y-66618256D01*
X129539304Y-66701318D01*
X129548313Y-66703732D01*
X129795842Y-66750727D01*
X129805098Y-66751781D01*
X130056857Y-66761673D01*
X130066171Y-66761347D01*
X130316615Y-66733920D01*
X130325792Y-66732219D01*
X130569431Y-66668074D01*
X130578251Y-66665037D01*
X130809736Y-66565583D01*
X130818008Y-66561276D01*
X131032249Y-66428700D01*
X131039188Y-66423658D01*
X131047518Y-66411019D01*
X131041456Y-66400666D01*
X130012812Y-65372022D01*
X129998868Y-65364408D01*
X129997035Y-65364539D01*
X129990420Y-65368790D01*
X128962270Y-66396940D01*
X128955612Y-66409133D01*
X114795891Y-66409133D01*
X114789781Y-66403023D01*
X114785273Y-66399866D01*
X114785270Y-66399864D01*
X114709505Y-66346813D01*
X114607677Y-66275512D01*
X114602695Y-66273189D01*
X114602690Y-66273186D01*
X114497627Y-66224195D01*
X114444342Y-66177278D01*
X114424881Y-66109001D01*
X114445423Y-66041041D01*
X114497627Y-65995805D01*
X114602690Y-65946814D01*
X114602695Y-65946811D01*
X114607677Y-65944488D01*
X114761277Y-65836936D01*
X114785270Y-65820136D01*
X114785273Y-65820134D01*
X114789781Y-65816977D01*
X114946977Y-65659781D01*
X115074488Y-65477676D01*
X115076811Y-65472694D01*
X115076814Y-65472689D01*
X115166117Y-65281178D01*
X115166118Y-65281177D01*
X115168440Y-65276196D01*
X115225978Y-65061463D01*
X115234984Y-64958523D01*
X128237898Y-64958523D01*
X128249987Y-65210175D01*
X128251124Y-65219435D01*
X128300274Y-65466535D01*
X128302768Y-65475528D01*
X128387900Y-65712639D01*
X128391700Y-65721174D01*
X128510946Y-65943101D01*
X128515957Y-65950968D01*
X128579446Y-66035990D01*
X128590704Y-66044439D01*
X128603123Y-66037667D01*
X129627978Y-65012812D01*
X129634356Y-65001132D01*
X130364408Y-65001132D01*
X130364539Y-65002965D01*
X130368790Y-65009580D01*
X131399913Y-66040703D01*
X131412293Y-66047463D01*
X131420634Y-66041219D01*
X131546765Y-65845127D01*
X131551212Y-65836936D01*
X131654691Y-65607222D01*
X131657882Y-65598455D01*
X131726269Y-65355976D01*
X131728129Y-65346834D01*
X131760116Y-65095396D01*
X131760597Y-65089108D01*
X131762847Y-65003160D01*
X131762696Y-64996851D01*
X131743912Y-64744074D01*
X131742536Y-64734868D01*
X131686929Y-64489126D01*
X131684205Y-64480215D01*
X131592888Y-64245392D01*
X131588877Y-64236983D01*
X131463854Y-64018240D01*
X131458643Y-64010514D01*
X131421391Y-63963261D01*
X131409466Y-63954790D01*
X131397934Y-63961276D01*
X130372022Y-64987188D01*
X130364408Y-65001132D01*
X129634356Y-65001132D01*
X129635592Y-64998868D01*
X129635461Y-64997035D01*
X129631210Y-64990420D01*
X128601321Y-63960531D01*
X128588013Y-63953264D01*
X128577974Y-63960386D01*
X128567761Y-63972666D01*
X128562346Y-63980258D01*
X128431646Y-64195646D01*
X128427408Y-64203963D01*
X128329981Y-64436299D01*
X128327020Y-64445149D01*
X128265006Y-64689331D01*
X128263384Y-64698528D01*
X128238143Y-64949198D01*
X128237898Y-64958523D01*
X115234984Y-64958523D01*
X115245353Y-64840000D01*
X115225978Y-64618537D01*
X115187503Y-64474949D01*
X115169863Y-64409114D01*
X115169862Y-64409112D01*
X115168440Y-64403804D01*
X115090650Y-64236983D01*
X115076814Y-64207311D01*
X115076811Y-64207306D01*
X115074488Y-64202324D01*
X114946977Y-64020219D01*
X114789781Y-63863023D01*
X114785273Y-63859866D01*
X114785270Y-63859864D01*
X114709505Y-63806813D01*
X114607677Y-63735512D01*
X114602695Y-63733189D01*
X114602690Y-63733186D01*
X114497627Y-63684195D01*
X114444342Y-63637278D01*
X114430525Y-63588803D01*
X128953216Y-63588803D01*
X128957789Y-63598579D01*
X129987188Y-64627978D01*
X130001132Y-64635592D01*
X130002965Y-64635461D01*
X130009580Y-64631210D01*
X131038419Y-63602371D01*
X131044803Y-63590681D01*
X131035391Y-63578570D01*
X130898593Y-63483670D01*
X130890565Y-63478942D01*
X130664593Y-63367505D01*
X130655960Y-63364017D01*
X130415998Y-63287205D01*
X130406938Y-63285029D01*
X130158260Y-63244529D01*
X130148973Y-63243717D01*
X129897053Y-63240419D01*
X129887742Y-63240989D01*
X129638097Y-63274964D01*
X129628978Y-63276902D01*
X129387098Y-63347404D01*
X129378367Y-63350667D01*
X129149558Y-63456151D01*
X129141406Y-63460670D01*
X128962353Y-63578062D01*
X128953216Y-63588803D01*
X114430525Y-63588803D01*
X114424881Y-63569001D01*
X114445423Y-63501041D01*
X114497627Y-63455805D01*
X114602690Y-63406814D01*
X114602695Y-63406811D01*
X114607677Y-63404488D01*
X114778282Y-63285029D01*
X114785270Y-63280136D01*
X114785273Y-63280134D01*
X114789781Y-63276977D01*
X114946977Y-63119781D01*
X115074488Y-62937676D01*
X115076811Y-62932694D01*
X115076814Y-62932689D01*
X115166117Y-62741178D01*
X115166118Y-62741177D01*
X115168440Y-62736196D01*
X115225978Y-62521463D01*
X115245353Y-62300000D01*
X115225978Y-62078537D01*
X115168440Y-61863804D01*
X115166117Y-61858822D01*
X115076814Y-61667311D01*
X115076811Y-61667306D01*
X115074488Y-61662324D01*
X114946977Y-61480219D01*
X114789781Y-61323023D01*
X114785273Y-61319866D01*
X114785270Y-61319864D01*
X114709505Y-61266813D01*
X114607677Y-61195512D01*
X114602695Y-61193189D01*
X114602690Y-61193186D01*
X114497627Y-61144195D01*
X114444342Y-61097278D01*
X114424881Y-61029001D01*
X114445423Y-60961041D01*
X114497627Y-60915805D01*
X114602690Y-60866814D01*
X114602695Y-60866811D01*
X114607677Y-60864488D01*
X114709505Y-60793187D01*
X114785270Y-60740136D01*
X114785273Y-60740134D01*
X114789781Y-60736977D01*
X114946977Y-60579781D01*
X115074488Y-60397676D01*
X115076811Y-60392694D01*
X115076814Y-60392689D01*
X115166117Y-60201178D01*
X115166118Y-60201177D01*
X115168440Y-60196196D01*
X115225978Y-59981463D01*
X115245353Y-59760000D01*
X115225978Y-59538537D01*
X115168440Y-59323804D01*
X115166117Y-59318822D01*
X115076814Y-59127311D01*
X115076811Y-59127306D01*
X115074488Y-59122324D01*
X114946977Y-58940219D01*
X114789781Y-58783023D01*
X114785273Y-58779866D01*
X114785270Y-58779864D01*
X114709505Y-58726813D01*
X114607677Y-58655512D01*
X114602695Y-58653189D01*
X114602690Y-58653186D01*
X114497627Y-58604195D01*
X114444342Y-58557278D01*
X114424881Y-58489001D01*
X114445423Y-58421041D01*
X114497627Y-58375805D01*
X114602690Y-58326814D01*
X114602695Y-58326811D01*
X114607677Y-58324488D01*
X114709505Y-58253187D01*
X114785270Y-58200136D01*
X114785273Y-58200134D01*
X114789781Y-58196977D01*
X114946977Y-58039781D01*
X115074488Y-57857676D01*
X115076811Y-57852694D01*
X115076814Y-57852689D01*
X115166117Y-57661178D01*
X115166118Y-57661177D01*
X115168440Y-57656196D01*
X115225978Y-57441463D01*
X115245353Y-57220000D01*
X115225978Y-56998537D01*
X115168440Y-56783804D01*
X115166117Y-56778822D01*
X115076814Y-56587311D01*
X115076811Y-56587306D01*
X115074488Y-56582324D01*
X114946977Y-56400219D01*
X114789781Y-56243023D01*
X114785273Y-56239866D01*
X114785270Y-56239864D01*
X114709505Y-56186813D01*
X114607677Y-56115512D01*
X114602695Y-56113189D01*
X114602690Y-56113186D01*
X114497627Y-56064195D01*
X114444342Y-56017278D01*
X114424881Y-55949001D01*
X114445423Y-55881041D01*
X114497627Y-55835805D01*
X114602690Y-55786814D01*
X114602695Y-55786811D01*
X114607677Y-55784488D01*
X114709505Y-55713187D01*
X114785270Y-55660136D01*
X114785273Y-55660134D01*
X114789781Y-55656977D01*
X114946977Y-55499781D01*
X115074488Y-55317676D01*
X115076811Y-55312694D01*
X115076814Y-55312689D01*
X115166117Y-55121178D01*
X115166118Y-55121177D01*
X115168440Y-55116196D01*
X115225978Y-54901463D01*
X115245353Y-54680000D01*
X115225978Y-54458537D01*
X115168440Y-54243804D01*
X115166117Y-54238822D01*
X115076814Y-54047311D01*
X115076811Y-54047306D01*
X115074488Y-54042324D01*
X115063580Y-54026746D01*
X114950136Y-53864730D01*
X114950134Y-53864727D01*
X114946977Y-53860219D01*
X114789781Y-53703023D01*
X114785273Y-53699866D01*
X114785270Y-53699864D01*
X114709505Y-53646813D01*
X114607677Y-53575512D01*
X114602695Y-53573189D01*
X114602690Y-53573186D01*
X114411178Y-53483883D01*
X114411177Y-53483882D01*
X114406196Y-53481560D01*
X114400888Y-53480138D01*
X114400886Y-53480137D01*
X114335051Y-53462497D01*
X114191463Y-53424022D01*
X113970000Y-53404647D01*
X113748537Y-53424022D01*
X113604949Y-53462497D01*
X113539114Y-53480137D01*
X113539112Y-53480138D01*
X113533804Y-53481560D01*
X113528823Y-53483882D01*
X113528822Y-53483883D01*
X113337311Y-53573186D01*
X113337306Y-53573189D01*
X113332324Y-53575512D01*
X113327817Y-53578668D01*
X113327815Y-53578669D01*
X113154730Y-53699864D01*
X113154727Y-53699866D01*
X113150219Y-53703023D01*
X112993023Y-53860219D01*
X112989866Y-53864727D01*
X112989864Y-53864730D01*
X112876420Y-54026746D01*
X112865512Y-54042324D01*
X112863189Y-54047306D01*
X112863186Y-54047311D01*
X112773883Y-54238822D01*
X112771560Y-54243804D01*
X112714022Y-54458537D01*
X112694647Y-54680000D01*
X112714022Y-54901463D01*
X112771560Y-55116196D01*
X112773882Y-55121177D01*
X112773883Y-55121178D01*
X112863186Y-55312689D01*
X112863189Y-55312694D01*
X112865512Y-55317676D01*
X112993023Y-55499781D01*
X113150219Y-55656977D01*
X113154727Y-55660134D01*
X113154730Y-55660136D01*
X113230495Y-55713187D01*
X113332323Y-55784488D01*
X113337305Y-55786811D01*
X113337310Y-55786814D01*
X113442373Y-55835805D01*
X113495658Y-55882722D01*
X113515119Y-55950999D01*
X113494577Y-56018959D01*
X113442373Y-56064195D01*
X113337311Y-56113186D01*
X113337306Y-56113189D01*
X113332324Y-56115512D01*
X113327817Y-56118668D01*
X113327815Y-56118669D01*
X113154730Y-56239864D01*
X113154727Y-56239866D01*
X113150219Y-56243023D01*
X112993023Y-56400219D01*
X112865512Y-56582324D01*
X112863189Y-56587306D01*
X112863186Y-56587311D01*
X112773883Y-56778822D01*
X112771560Y-56783804D01*
X112714022Y-56998537D01*
X112694647Y-57220000D01*
X112714022Y-57441463D01*
X112771560Y-57656196D01*
X112773882Y-57661177D01*
X112773883Y-57661178D01*
X112863186Y-57852689D01*
X112863189Y-57852694D01*
X112865512Y-57857676D01*
X112993023Y-58039781D01*
X113150219Y-58196977D01*
X113154727Y-58200134D01*
X113154730Y-58200136D01*
X113230495Y-58253187D01*
X113332323Y-58324488D01*
X113337305Y-58326811D01*
X113337310Y-58326814D01*
X113442373Y-58375805D01*
X113495658Y-58422722D01*
X113515119Y-58490999D01*
X113494577Y-58558959D01*
X113442373Y-58604195D01*
X113337311Y-58653186D01*
X113337306Y-58653189D01*
X113332324Y-58655512D01*
X113327817Y-58658668D01*
X113327815Y-58658669D01*
X113154730Y-58779864D01*
X113154727Y-58779866D01*
X113150219Y-58783023D01*
X112993023Y-58940219D01*
X112865512Y-59122324D01*
X112863189Y-59127306D01*
X112863186Y-59127311D01*
X112773883Y-59318822D01*
X112771560Y-59323804D01*
X112714022Y-59538537D01*
X112694647Y-59760000D01*
X112714022Y-59981463D01*
X112771560Y-60196196D01*
X112773882Y-60201177D01*
X112773883Y-60201178D01*
X112863186Y-60392689D01*
X112863189Y-60392694D01*
X112865512Y-60397676D01*
X112993023Y-60579781D01*
X113150219Y-60736977D01*
X113154727Y-60740134D01*
X113154730Y-60740136D01*
X113230495Y-60793187D01*
X113332323Y-60864488D01*
X113337305Y-60866811D01*
X113337310Y-60866814D01*
X113442373Y-60915805D01*
X113495658Y-60962722D01*
X113515119Y-61030999D01*
X113494577Y-61098959D01*
X113442373Y-61144195D01*
X113337311Y-61193186D01*
X113337306Y-61193189D01*
X113332324Y-61195512D01*
X113327817Y-61198668D01*
X113327815Y-61198669D01*
X113154730Y-61319864D01*
X113154727Y-61319866D01*
X113150219Y-61323023D01*
X112993023Y-61480219D01*
X112865512Y-61662324D01*
X112863189Y-61667306D01*
X112863186Y-61667311D01*
X112773883Y-61858822D01*
X112771560Y-61863804D01*
X112714022Y-62078537D01*
X112694647Y-62300000D01*
X112714022Y-62521463D01*
X112771560Y-62736196D01*
X112773882Y-62741177D01*
X112773883Y-62741178D01*
X112863186Y-62932689D01*
X112863189Y-62932694D01*
X112865512Y-62937676D01*
X112993023Y-63119781D01*
X113150219Y-63276977D01*
X113154727Y-63280134D01*
X113154730Y-63280136D01*
X113161718Y-63285029D01*
X113332323Y-63404488D01*
X113337305Y-63406811D01*
X113337310Y-63406814D01*
X113442373Y-63455805D01*
X113495658Y-63502722D01*
X113515119Y-63570999D01*
X113494577Y-63638959D01*
X113442373Y-63684195D01*
X113337311Y-63733186D01*
X113337306Y-63733189D01*
X113332324Y-63735512D01*
X113327817Y-63738668D01*
X113327815Y-63738669D01*
X113154730Y-63859864D01*
X113154727Y-63859866D01*
X113150219Y-63863023D01*
X112993023Y-64020219D01*
X112865512Y-64202324D01*
X112863189Y-64207306D01*
X112863186Y-64207311D01*
X112849350Y-64236983D01*
X112771560Y-64403804D01*
X112770138Y-64409112D01*
X112770137Y-64409114D01*
X112752497Y-64474949D01*
X112714022Y-64618537D01*
X112694647Y-64840000D01*
X112714022Y-65061463D01*
X112771560Y-65276196D01*
X112773882Y-65281177D01*
X112773883Y-65281178D01*
X112863186Y-65472689D01*
X112863189Y-65472694D01*
X112865512Y-65477676D01*
X112993023Y-65659781D01*
X113150219Y-65816977D01*
X113154727Y-65820134D01*
X113154730Y-65820136D01*
X113178723Y-65836936D01*
X113332323Y-65944488D01*
X113337305Y-65946811D01*
X113337310Y-65946814D01*
X113442373Y-65995805D01*
X113495658Y-66042722D01*
X113515119Y-66110999D01*
X113494577Y-66178959D01*
X113442373Y-66224195D01*
X113337311Y-66273186D01*
X113337306Y-66273189D01*
X113332324Y-66275512D01*
X113327817Y-66278668D01*
X113327815Y-66278669D01*
X113154730Y-66399864D01*
X113154727Y-66399866D01*
X113150219Y-66403023D01*
X112993023Y-66560219D01*
X112989866Y-66564727D01*
X112989864Y-66564730D01*
X112868669Y-66737815D01*
X112865512Y-66742324D01*
X112863189Y-66747306D01*
X112863186Y-66747311D01*
X112861102Y-66751781D01*
X112771560Y-66943804D01*
X112714022Y-67158537D01*
X112694647Y-67380000D01*
X87305353Y-67380000D01*
X87285978Y-67158537D01*
X87228440Y-66943804D01*
X87138898Y-66751781D01*
X87136814Y-66747311D01*
X87136811Y-66747306D01*
X87134488Y-66742324D01*
X87131331Y-66737815D01*
X87010136Y-66564730D01*
X87010134Y-66564727D01*
X87006977Y-66560219D01*
X86849781Y-66403023D01*
X86845273Y-66399866D01*
X86845270Y-66399864D01*
X86769505Y-66346813D01*
X86667677Y-66275512D01*
X86662695Y-66273189D01*
X86662690Y-66273186D01*
X86557627Y-66224195D01*
X86504342Y-66177278D01*
X86484881Y-66109001D01*
X86505423Y-66041041D01*
X86557627Y-65995805D01*
X86662690Y-65946814D01*
X86662695Y-65946811D01*
X86667677Y-65944488D01*
X86821277Y-65836936D01*
X86845270Y-65820136D01*
X86845273Y-65820134D01*
X86849781Y-65816977D01*
X87006977Y-65659781D01*
X87134488Y-65477676D01*
X87136811Y-65472694D01*
X87136814Y-65472689D01*
X87226117Y-65281178D01*
X87226118Y-65281177D01*
X87228440Y-65276196D01*
X87285978Y-65061463D01*
X87305353Y-64840000D01*
X87285978Y-64618537D01*
X87247503Y-64474949D01*
X87229863Y-64409114D01*
X87229862Y-64409112D01*
X87228440Y-64403804D01*
X87150650Y-64236983D01*
X87136814Y-64207311D01*
X87136811Y-64207306D01*
X87134488Y-64202324D01*
X87006977Y-64020219D01*
X86849781Y-63863023D01*
X86845273Y-63859866D01*
X86845270Y-63859864D01*
X86769505Y-63806813D01*
X86667677Y-63735512D01*
X86662695Y-63733189D01*
X86662690Y-63733186D01*
X86557627Y-63684195D01*
X86504342Y-63637278D01*
X86484881Y-63569001D01*
X86505423Y-63501041D01*
X86557627Y-63455805D01*
X86662690Y-63406814D01*
X86662695Y-63406811D01*
X86667677Y-63404488D01*
X86838282Y-63285029D01*
X86845270Y-63280136D01*
X86845273Y-63280134D01*
X86849781Y-63276977D01*
X87006977Y-63119781D01*
X87134488Y-62937676D01*
X87136811Y-62932694D01*
X87136814Y-62932689D01*
X87226117Y-62741178D01*
X87226118Y-62741177D01*
X87228440Y-62736196D01*
X87285978Y-62521463D01*
X87305353Y-62300000D01*
X87285978Y-62078537D01*
X87228440Y-61863804D01*
X87226117Y-61858822D01*
X87136814Y-61667311D01*
X87136811Y-61667306D01*
X87134488Y-61662324D01*
X87006977Y-61480219D01*
X86849781Y-61323023D01*
X86845273Y-61319866D01*
X86845270Y-61319864D01*
X86769505Y-61266813D01*
X86667677Y-61195512D01*
X86662695Y-61193189D01*
X86662690Y-61193186D01*
X86557627Y-61144195D01*
X86504342Y-61097278D01*
X86484881Y-61029001D01*
X86505423Y-60961041D01*
X86557627Y-60915805D01*
X86662690Y-60866814D01*
X86662695Y-60866811D01*
X86667677Y-60864488D01*
X86769505Y-60793187D01*
X86845270Y-60740136D01*
X86845273Y-60740134D01*
X86849781Y-60736977D01*
X87006977Y-60579781D01*
X87134488Y-60397676D01*
X87136811Y-60392694D01*
X87136814Y-60392689D01*
X87226117Y-60201178D01*
X87226118Y-60201177D01*
X87228440Y-60196196D01*
X87285978Y-59981463D01*
X87305353Y-59760000D01*
X87285978Y-59538537D01*
X87228440Y-59323804D01*
X87226117Y-59318822D01*
X87136814Y-59127311D01*
X87136811Y-59127306D01*
X87134488Y-59122324D01*
X87006977Y-58940219D01*
X86849781Y-58783023D01*
X86845273Y-58779866D01*
X86845270Y-58779864D01*
X86769505Y-58726813D01*
X86667677Y-58655512D01*
X86662695Y-58653189D01*
X86662690Y-58653186D01*
X86557627Y-58604195D01*
X86504342Y-58557278D01*
X86484881Y-58489001D01*
X86505423Y-58421041D01*
X86557627Y-58375805D01*
X86662690Y-58326814D01*
X86662695Y-58326811D01*
X86667677Y-58324488D01*
X86769505Y-58253187D01*
X86845270Y-58200136D01*
X86845273Y-58200134D01*
X86849781Y-58196977D01*
X87006977Y-58039781D01*
X87134488Y-57857676D01*
X87136811Y-57852694D01*
X87136814Y-57852689D01*
X87226117Y-57661178D01*
X87226118Y-57661177D01*
X87228440Y-57656196D01*
X87285978Y-57441463D01*
X87305353Y-57220000D01*
X87285978Y-56998537D01*
X87228440Y-56783804D01*
X87226117Y-56778822D01*
X87136814Y-56587311D01*
X87136811Y-56587306D01*
X87134488Y-56582324D01*
X87006977Y-56400219D01*
X86849781Y-56243023D01*
X86845273Y-56239866D01*
X86845270Y-56239864D01*
X86769505Y-56186813D01*
X86667677Y-56115512D01*
X86662695Y-56113189D01*
X86662690Y-56113186D01*
X86557627Y-56064195D01*
X86504342Y-56017278D01*
X86484881Y-55949001D01*
X86505423Y-55881041D01*
X86557627Y-55835805D01*
X86662690Y-55786814D01*
X86662695Y-55786811D01*
X86667677Y-55784488D01*
X86769505Y-55713187D01*
X86845270Y-55660136D01*
X86845273Y-55660134D01*
X86849781Y-55656977D01*
X87006977Y-55499781D01*
X87134488Y-55317676D01*
X87136811Y-55312694D01*
X87136814Y-55312689D01*
X87226117Y-55121178D01*
X87226118Y-55121177D01*
X87228440Y-55116196D01*
X87285978Y-54901463D01*
X87305353Y-54680000D01*
X87285978Y-54458537D01*
X87228440Y-54243804D01*
X87226117Y-54238822D01*
X87136814Y-54047311D01*
X87136811Y-54047306D01*
X87134488Y-54042324D01*
X87123580Y-54026746D01*
X87010136Y-53864730D01*
X87010134Y-53864727D01*
X87006977Y-53860219D01*
X86849781Y-53703023D01*
X86845273Y-53699866D01*
X86845270Y-53699864D01*
X86769505Y-53646813D01*
X86667677Y-53575512D01*
X86662695Y-53573189D01*
X86662690Y-53573186D01*
X86471178Y-53483883D01*
X86471177Y-53483882D01*
X86466196Y-53481560D01*
X86460888Y-53480138D01*
X86460886Y-53480137D01*
X86395051Y-53462497D01*
X86251463Y-53424022D01*
X86030000Y-53404647D01*
X85808537Y-53424022D01*
X85664949Y-53462497D01*
X85599114Y-53480137D01*
X85599112Y-53480138D01*
X85593804Y-53481560D01*
X85588823Y-53483882D01*
X85588822Y-53483883D01*
X85397311Y-53573186D01*
X85397306Y-53573189D01*
X85392324Y-53575512D01*
X85387817Y-53578668D01*
X85387815Y-53578669D01*
X85214730Y-53699864D01*
X85214727Y-53699866D01*
X85210219Y-53703023D01*
X85053023Y-53860219D01*
X85049866Y-53864727D01*
X85049864Y-53864730D01*
X84936420Y-54026746D01*
X84925512Y-54042324D01*
X84923189Y-54047306D01*
X84923186Y-54047311D01*
X84833883Y-54238822D01*
X84831560Y-54243804D01*
X84774022Y-54458537D01*
X84754647Y-54680000D01*
X84774022Y-54901463D01*
X84831560Y-55116196D01*
X84833882Y-55121177D01*
X84833883Y-55121178D01*
X84923186Y-55312689D01*
X84923189Y-55312694D01*
X84925512Y-55317676D01*
X85053023Y-55499781D01*
X85210219Y-55656977D01*
X85214727Y-55660134D01*
X85214730Y-55660136D01*
X85290495Y-55713187D01*
X85392323Y-55784488D01*
X85397305Y-55786811D01*
X85397310Y-55786814D01*
X85502373Y-55835805D01*
X85555658Y-55882722D01*
X85575119Y-55950999D01*
X85554577Y-56018959D01*
X85502373Y-56064195D01*
X85397311Y-56113186D01*
X85397306Y-56113189D01*
X85392324Y-56115512D01*
X85387817Y-56118668D01*
X85387815Y-56118669D01*
X85214730Y-56239864D01*
X85214727Y-56239866D01*
X85210219Y-56243023D01*
X85053023Y-56400219D01*
X84925512Y-56582324D01*
X84923189Y-56587306D01*
X84923186Y-56587311D01*
X84833883Y-56778822D01*
X84831560Y-56783804D01*
X84774022Y-56998537D01*
X84754647Y-57220000D01*
X84774022Y-57441463D01*
X84831560Y-57656196D01*
X84833882Y-57661177D01*
X84833883Y-57661178D01*
X84923186Y-57852689D01*
X84923189Y-57852694D01*
X84925512Y-57857676D01*
X85053023Y-58039781D01*
X85210219Y-58196977D01*
X85214727Y-58200134D01*
X85214730Y-58200136D01*
X85290495Y-58253187D01*
X85392323Y-58324488D01*
X85397305Y-58326811D01*
X85397310Y-58326814D01*
X85502373Y-58375805D01*
X85555658Y-58422722D01*
X85575119Y-58490999D01*
X85554577Y-58558959D01*
X85502373Y-58604195D01*
X85397311Y-58653186D01*
X85397306Y-58653189D01*
X85392324Y-58655512D01*
X85387817Y-58658668D01*
X85387815Y-58658669D01*
X85214730Y-58779864D01*
X85214727Y-58779866D01*
X85210219Y-58783023D01*
X85053023Y-58940219D01*
X84925512Y-59122324D01*
X84923189Y-59127306D01*
X84923186Y-59127311D01*
X84833883Y-59318822D01*
X84831560Y-59323804D01*
X84774022Y-59538537D01*
X84754647Y-59760000D01*
X84774022Y-59981463D01*
X84831560Y-60196196D01*
X84833882Y-60201177D01*
X84833883Y-60201178D01*
X84923186Y-60392689D01*
X84923189Y-60392694D01*
X84925512Y-60397676D01*
X85053023Y-60579781D01*
X85210219Y-60736977D01*
X85214727Y-60740134D01*
X85214730Y-60740136D01*
X85290495Y-60793187D01*
X85392323Y-60864488D01*
X85397305Y-60866811D01*
X85397310Y-60866814D01*
X85502373Y-60915805D01*
X85555658Y-60962722D01*
X85575119Y-61030999D01*
X85554577Y-61098959D01*
X85502373Y-61144195D01*
X85397311Y-61193186D01*
X85397306Y-61193189D01*
X85392324Y-61195512D01*
X85387817Y-61198668D01*
X85387815Y-61198669D01*
X85214730Y-61319864D01*
X85214727Y-61319866D01*
X85210219Y-61323023D01*
X85053023Y-61480219D01*
X84925512Y-61662324D01*
X84923189Y-61667306D01*
X84923186Y-61667311D01*
X84833883Y-61858822D01*
X84831560Y-61863804D01*
X84774022Y-62078537D01*
X84754647Y-62300000D01*
X84774022Y-62521463D01*
X84831560Y-62736196D01*
X84833882Y-62741177D01*
X84833883Y-62741178D01*
X84923186Y-62932689D01*
X84923189Y-62932694D01*
X84925512Y-62937676D01*
X85053023Y-63119781D01*
X85210219Y-63276977D01*
X85214727Y-63280134D01*
X85214730Y-63280136D01*
X85221718Y-63285029D01*
X85392323Y-63404488D01*
X85397305Y-63406811D01*
X85397310Y-63406814D01*
X85502373Y-63455805D01*
X85555658Y-63502722D01*
X85575119Y-63570999D01*
X85554577Y-63638959D01*
X85502373Y-63684195D01*
X85397311Y-63733186D01*
X85397306Y-63733189D01*
X85392324Y-63735512D01*
X85387817Y-63738668D01*
X85387815Y-63738669D01*
X85214730Y-63859864D01*
X85214727Y-63859866D01*
X85210219Y-63863023D01*
X85053023Y-64020219D01*
X84925512Y-64202324D01*
X84923189Y-64207306D01*
X84923186Y-64207311D01*
X84909350Y-64236983D01*
X84831560Y-64403804D01*
X84830138Y-64409112D01*
X84830137Y-64409114D01*
X84812497Y-64474949D01*
X84774022Y-64618537D01*
X84754647Y-64840000D01*
X84774022Y-65061463D01*
X84831560Y-65276196D01*
X84833882Y-65281177D01*
X84833883Y-65281178D01*
X84923186Y-65472689D01*
X84923189Y-65472694D01*
X84925512Y-65477676D01*
X85053023Y-65659781D01*
X85210219Y-65816977D01*
X85214727Y-65820134D01*
X85214730Y-65820136D01*
X85238723Y-65836936D01*
X85392323Y-65944488D01*
X85397305Y-65946811D01*
X85397310Y-65946814D01*
X85502373Y-65995805D01*
X85555658Y-66042722D01*
X85575119Y-66110999D01*
X85554577Y-66178959D01*
X85502373Y-66224195D01*
X85397311Y-66273186D01*
X85397306Y-66273189D01*
X85392324Y-66275512D01*
X85387817Y-66278668D01*
X85387815Y-66278669D01*
X85214730Y-66399864D01*
X85214727Y-66399866D01*
X85210219Y-66403023D01*
X85053023Y-66560219D01*
X85049866Y-66564727D01*
X85049864Y-66564730D01*
X84928669Y-66737815D01*
X84925512Y-66742324D01*
X84923189Y-66747306D01*
X84923186Y-66747311D01*
X84921102Y-66751781D01*
X84831560Y-66943804D01*
X84774022Y-67158537D01*
X84754647Y-67380000D01*
X84774022Y-67601463D01*
X84831560Y-67816196D01*
X84833882Y-67821177D01*
X84833883Y-67821178D01*
X84923186Y-68012689D01*
X84923189Y-68012694D01*
X84925512Y-68017676D01*
X85053023Y-68199781D01*
X85210219Y-68356977D01*
X85214727Y-68360134D01*
X85214730Y-68360136D01*
X85252723Y-68386739D01*
X85392323Y-68484488D01*
X85397305Y-68486811D01*
X85397310Y-68486814D01*
X85502373Y-68535805D01*
X85555658Y-68582722D01*
X85575119Y-68650999D01*
X85554577Y-68718959D01*
X85502373Y-68764195D01*
X85397311Y-68813186D01*
X85397306Y-68813189D01*
X85392324Y-68815512D01*
X85387817Y-68818668D01*
X85387815Y-68818669D01*
X85214730Y-68939864D01*
X85214727Y-68939866D01*
X85210219Y-68943023D01*
X85053023Y-69100219D01*
X85049866Y-69104727D01*
X85049864Y-69104730D01*
X84928669Y-69277815D01*
X84925512Y-69282324D01*
X84923189Y-69287306D01*
X84923186Y-69287311D01*
X84833883Y-69478822D01*
X84831560Y-69483804D01*
X84774022Y-69698537D01*
X84754647Y-69920000D01*
X84774022Y-70141463D01*
X84831560Y-70356196D01*
X84833882Y-70361177D01*
X84833883Y-70361178D01*
X84923186Y-70552689D01*
X84923189Y-70552694D01*
X84925512Y-70557676D01*
X84928668Y-70562183D01*
X84928669Y-70562185D01*
X84965107Y-70614223D01*
X85053023Y-70739781D01*
X85210219Y-70896977D01*
X85214727Y-70900134D01*
X85214730Y-70900136D01*
X85290495Y-70953187D01*
X85392323Y-71024488D01*
X85397305Y-71026811D01*
X85397310Y-71026814D01*
X85502373Y-71075805D01*
X85555658Y-71122722D01*
X85575119Y-71190999D01*
X85554577Y-71258959D01*
X85502373Y-71304195D01*
X85397311Y-71353186D01*
X85397306Y-71353189D01*
X85392324Y-71355512D01*
X85387817Y-71358668D01*
X85387815Y-71358669D01*
X85214730Y-71479864D01*
X85214727Y-71479866D01*
X85210219Y-71483023D01*
X85053023Y-71640219D01*
X85049866Y-71644727D01*
X85049864Y-71644730D01*
X84970460Y-71758131D01*
X84925512Y-71822324D01*
X84923189Y-71827306D01*
X84923186Y-71827311D01*
X84833883Y-72018822D01*
X84831560Y-72023804D01*
X84774022Y-72238537D01*
X84754647Y-72460000D01*
X84774022Y-72681463D01*
X84831560Y-72896196D01*
X84833882Y-72901177D01*
X84833883Y-72901178D01*
X84923186Y-73092689D01*
X84923189Y-73092694D01*
X84925512Y-73097676D01*
X85053023Y-73279781D01*
X85210219Y-73436977D01*
X85214727Y-73440134D01*
X85214730Y-73440136D01*
X85290495Y-73493187D01*
X85392323Y-73564488D01*
X85397305Y-73566811D01*
X85397310Y-73566814D01*
X85502373Y-73615805D01*
X85555658Y-73662722D01*
X85575119Y-73730999D01*
X85554577Y-73798959D01*
X85502373Y-73844195D01*
X85397311Y-73893186D01*
X85397306Y-73893189D01*
X85392324Y-73895512D01*
X85387817Y-73898668D01*
X85387815Y-73898669D01*
X85214730Y-74019864D01*
X85214727Y-74019866D01*
X85210219Y-74023023D01*
X85053023Y-74180219D01*
X84925512Y-74362324D01*
X84923189Y-74367306D01*
X84923186Y-74367311D01*
X84833883Y-74558822D01*
X84831560Y-74563804D01*
X84774022Y-74778537D01*
X84754647Y-75000000D01*
X78740000Y-75000000D01*
X78740000Y-52682263D01*
X128490064Y-52682263D01*
X128526404Y-52919744D01*
X128563094Y-53031997D01*
X128599434Y-53143183D01*
X128599437Y-53143189D01*
X128601042Y-53148101D01*
X128711975Y-53361200D01*
X128715085Y-53365342D01*
X128801276Y-53480137D01*
X128856223Y-53553320D01*
X129029912Y-53719301D01*
X129228378Y-53854686D01*
X129233061Y-53856860D01*
X129233065Y-53856862D01*
X129441595Y-53953658D01*
X129441599Y-53953659D01*
X129446290Y-53955837D01*
X129677798Y-54020040D01*
X129682935Y-54020589D01*
X129870593Y-54040644D01*
X129870601Y-54040644D01*
X129873928Y-54041000D01*
X130108402Y-54041000D01*
X130110975Y-54040788D01*
X130110986Y-54040788D01*
X130211946Y-54032487D01*
X130286937Y-54026322D01*
X130519944Y-53967794D01*
X130648771Y-53911779D01*
X130735526Y-53874057D01*
X130735529Y-53874055D01*
X130740263Y-53871997D01*
X130941977Y-53741502D01*
X131119670Y-53579814D01*
X131198390Y-53480137D01*
X131265367Y-53395330D01*
X131265370Y-53395325D01*
X131268568Y-53391276D01*
X131282885Y-53365342D01*
X131382177Y-53185474D01*
X131382179Y-53185470D01*
X131384674Y-53180950D01*
X131464870Y-52954485D01*
X131470183Y-52924659D01*
X131506095Y-52723052D01*
X131506096Y-52723046D01*
X131507001Y-52717963D01*
X131509936Y-52477737D01*
X131473596Y-52240256D01*
X131436906Y-52128003D01*
X131400566Y-52016817D01*
X131400563Y-52016811D01*
X131398958Y-52011899D01*
X131288025Y-51798800D01*
X131143777Y-51606680D01*
X130970088Y-51440699D01*
X130932649Y-51415160D01*
X130887648Y-51360249D01*
X130879477Y-51289725D01*
X130910731Y-51225978D01*
X130935210Y-51205284D01*
X130937326Y-51203915D01*
X130945498Y-51197622D01*
X131115480Y-51042950D01*
X131122506Y-51035417D01*
X131264945Y-50855056D01*
X131270650Y-50846469D01*
X131381714Y-50645278D01*
X131385944Y-50635866D01*
X131462659Y-50419232D01*
X131465293Y-50409261D01*
X131482647Y-50311837D01*
X131481187Y-50298540D01*
X131466630Y-50294000D01*
X128531904Y-50294000D01*
X128518560Y-50297918D01*
X128516573Y-50312194D01*
X128526110Y-50374515D01*
X128528499Y-50384543D01*
X128599898Y-50602988D01*
X128603895Y-50612497D01*
X128710011Y-50816344D01*
X128715505Y-50825069D01*
X128853493Y-51008852D01*
X128860336Y-51016559D01*
X129026491Y-51175339D01*
X129034498Y-51181823D01*
X129067356Y-51204237D01*
X129112359Y-51259148D01*
X129120532Y-51329672D01*
X129089278Y-51393420D01*
X129064796Y-51414116D01*
X129063181Y-51415161D01*
X129058023Y-51418498D01*
X128880330Y-51580186D01*
X128856141Y-51610815D01*
X128734633Y-51764670D01*
X128734630Y-51764675D01*
X128731432Y-51768724D01*
X128728939Y-51773240D01*
X128728937Y-51773243D01*
X128617823Y-51974526D01*
X128615326Y-51979050D01*
X128535130Y-52205515D01*
X128534223Y-52210608D01*
X128534222Y-52210611D01*
X128528942Y-52240256D01*
X128492999Y-52442037D01*
X128490064Y-52682263D01*
X78740000Y-52682263D01*
X78740000Y-48500634D01*
X128491500Y-48500634D01*
X128498255Y-48562816D01*
X128549385Y-48699205D01*
X128636739Y-48815761D01*
X128753295Y-48903115D01*
X128772368Y-48910265D01*
X128773683Y-48910758D01*
X128830447Y-48953401D01*
X128855146Y-49019962D01*
X128839938Y-49089311D01*
X128828334Y-49106832D01*
X128735055Y-49224944D01*
X128729350Y-49233531D01*
X128618286Y-49434722D01*
X128614056Y-49444134D01*
X128537341Y-49660768D01*
X128534707Y-49670739D01*
X128517353Y-49768163D01*
X128518813Y-49781460D01*
X128533370Y-49786000D01*
X131468096Y-49786000D01*
X131481440Y-49782082D01*
X131483427Y-49767806D01*
X131473890Y-49705485D01*
X131471501Y-49695457D01*
X131400102Y-49477012D01*
X131396105Y-49467503D01*
X131289989Y-49263656D01*
X131284500Y-49254939D01*
X131171098Y-49103901D01*
X131146193Y-49037416D01*
X131161186Y-48968020D01*
X131211316Y-48917747D01*
X131227625Y-48910268D01*
X131246705Y-48903115D01*
X131363261Y-48815761D01*
X131450615Y-48699205D01*
X131501745Y-48562816D01*
X131508500Y-48500634D01*
X131508500Y-46499366D01*
X131501745Y-46437184D01*
X131450615Y-46300795D01*
X131363261Y-46184239D01*
X131246705Y-46096885D01*
X131110316Y-46045755D01*
X131048134Y-46039000D01*
X128951866Y-46039000D01*
X128889684Y-46045755D01*
X128753295Y-46096885D01*
X128636739Y-46184239D01*
X128549385Y-46300795D01*
X128498255Y-46437184D01*
X128491500Y-46499366D01*
X128491500Y-48500634D01*
X78740000Y-48500634D01*
X78740000Y-40766000D01*
X78760002Y-40697879D01*
X78813658Y-40651386D01*
X78866000Y-40640000D01*
X144365500Y-40640000D01*
X144433621Y-40660002D01*
G37*
%TD.AperFunction*%
%TD*%
M02*
