%TF.GenerationSoftware,KiCad,Pcbnew,6.0.7-f9a2dced07~116~ubuntu22.04.1*%
%TF.CreationDate,2022-09-17T16:40:37+08:00*%
%TF.ProjectId,WLED-12V,574c4544-2d31-4325-962e-6b696361645f,rev?*%
%TF.SameCoordinates,Original*%
%TF.FileFunction,Copper,L1,Top*%
%TF.FilePolarity,Positive*%
%FSLAX46Y46*%
G04 Gerber Fmt 4.6, Leading zero omitted, Abs format (unit mm)*
G04 Created by KiCad (PCBNEW 6.0.7-f9a2dced07~116~ubuntu22.04.1) date 2022-09-17 16:40:37*
%MOMM*%
%LPD*%
G01*
G04 APERTURE LIST*
G04 Aperture macros list*
%AMRoundRect*
0 Rectangle with rounded corners*
0 $1 Rounding radius*
0 $2 $3 $4 $5 $6 $7 $8 $9 X,Y pos of 4 corners*
0 Add a 4 corners polygon primitive as box body*
4,1,4,$2,$3,$4,$5,$6,$7,$8,$9,$2,$3,0*
0 Add four circle primitives for the rounded corners*
1,1,$1+$1,$2,$3*
1,1,$1+$1,$4,$5*
1,1,$1+$1,$6,$7*
1,1,$1+$1,$8,$9*
0 Add four rect primitives between the rounded corners*
20,1,$1+$1,$2,$3,$4,$5,0*
20,1,$1+$1,$4,$5,$6,$7,0*
20,1,$1+$1,$6,$7,$8,$9,0*
20,1,$1+$1,$8,$9,$2,$3,0*%
G04 Aperture macros list end*
%TA.AperFunction,SMDPad,CuDef*%
%ADD10RoundRect,0.250000X0.475000X-0.250000X0.475000X0.250000X-0.475000X0.250000X-0.475000X-0.250000X0*%
%TD*%
%TA.AperFunction,ComponentPad*%
%ADD11C,1.524000*%
%TD*%
%TA.AperFunction,SMDPad,CuDef*%
%ADD12RoundRect,0.250000X0.262500X0.450000X-0.262500X0.450000X-0.262500X-0.450000X0.262500X-0.450000X0*%
%TD*%
%TA.AperFunction,ComponentPad*%
%ADD13R,2.500000X2.500000*%
%TD*%
%TA.AperFunction,ComponentPad*%
%ADD14C,2.500000*%
%TD*%
%TA.AperFunction,ComponentPad*%
%ADD15R,2.000000X1.905000*%
%TD*%
%TA.AperFunction,ComponentPad*%
%ADD16O,2.000000X1.905000*%
%TD*%
%TA.AperFunction,SMDPad,CuDef*%
%ADD17R,0.750000X0.250000*%
%TD*%
%TA.AperFunction,ViaPad*%
%ADD18C,0.800000*%
%TD*%
%TA.AperFunction,Conductor*%
%ADD19C,0.250000*%
%TD*%
%TA.AperFunction,Conductor*%
%ADD20C,2.000000*%
%TD*%
%TA.AperFunction,Conductor*%
%ADD21C,0.500000*%
%TD*%
G04 APERTURE END LIST*
D10*
%TO.P,C1,1*%
%TO.N,+12V*%
X122500000Y-48450000D03*
%TO.P,C1,2*%
%TO.N,GND*%
X122500000Y-46550000D03*
%TD*%
D11*
%TO.P,U1,1,A0(ADC0)*%
%TO.N,unconnected-(U1-Pad1)*%
X86030000Y-54680000D03*
%TO.P,U1,2,RSV*%
%TO.N,unconnected-(U1-Pad2)*%
X86030000Y-57220000D03*
%TO.P,U1,3,RSV*%
%TO.N,unconnected-(U1-Pad3)*%
X86030000Y-59760000D03*
%TO.P,U1,4,SD3(GPIO10)*%
%TO.N,unconnected-(U1-Pad4)*%
X86030000Y-62300000D03*
%TO.P,U1,5,SD2(GPIO9)*%
%TO.N,unconnected-(U1-Pad5)*%
X86030000Y-64840000D03*
%TO.P,U1,6,SD1(MOSI)*%
%TO.N,unconnected-(U1-Pad6)*%
X86030000Y-67380000D03*
%TO.P,U1,7,CMD(CS)*%
%TO.N,unconnected-(U1-Pad7)*%
X86030000Y-69920000D03*
%TO.P,U1,8,SDO(MISO)*%
%TO.N,unconnected-(U1-Pad8)*%
X86030000Y-72460000D03*
%TO.P,U1,9,CLK(SCLK)*%
%TO.N,unconnected-(U1-Pad9)*%
X86030000Y-75000000D03*
%TO.P,U1,10,GND*%
%TO.N,GND*%
X86030000Y-77540000D03*
%TO.P,U1,11,3.3V*%
%TO.N,+3.3V*%
X86030000Y-80080000D03*
%TO.P,U1,12,EN*%
%TO.N,unconnected-(U1-Pad12)*%
X86030000Y-82620000D03*
%TO.P,U1,13,RST*%
%TO.N,unconnected-(U1-Pad13)*%
X86030000Y-85160000D03*
%TO.P,U1,14,GND*%
%TO.N,GND*%
X86030000Y-87700000D03*
%TO.P,U1,15,VIN*%
%TO.N,+5V*%
X86030000Y-90240000D03*
%TO.P,U1,16,3.3V*%
%TO.N,unconnected-(U1-Pad16)*%
X113970000Y-90240000D03*
%TO.P,U1,17,GND*%
%TO.N,GND*%
X113970000Y-87700000D03*
%TO.P,U1,18,TX(GPIO1)*%
%TO.N,unconnected-(U1-Pad18)*%
X113970000Y-85160000D03*
%TO.P,U1,19,RX(DPIO3)*%
%TO.N,unconnected-(U1-Pad19)*%
X113970000Y-82620000D03*
%TO.P,U1,20,D8(GPIO15)*%
%TO.N,unconnected-(U1-Pad20)*%
X113970000Y-80080000D03*
%TO.P,U1,21,D7(GPIO13)*%
%TO.N,unconnected-(U1-Pad21)*%
X113970000Y-77540000D03*
%TO.P,U1,22,D6(GPIO12)*%
%TO.N,unconnected-(U1-Pad22)*%
X113970000Y-75000000D03*
%TO.P,U1,23,D5(GPIO14)*%
%TO.N,unconnected-(U1-Pad23)*%
X113970000Y-72460000D03*
%TO.P,U1,24,GND*%
%TO.N,GND*%
X113970000Y-69920000D03*
%TO.P,U1,25,3.3V*%
%TO.N,+3.3V*%
X113970000Y-67380000D03*
%TO.P,U1,26,D4(GPIO2)*%
%TO.N,Net-(U1-Pad26)*%
X113970000Y-64840000D03*
%TO.P,U1,27,D3(GPIO0)*%
%TO.N,unconnected-(U1-Pad27)*%
X113970000Y-62300000D03*
%TO.P,U1,28,D2(GPIO4)*%
%TO.N,unconnected-(U1-Pad28)*%
X113970000Y-59760000D03*
%TO.P,U1,29,D1(GPIO5)*%
%TO.N,unconnected-(U1-Pad29)*%
X113970000Y-57220000D03*
%TO.P,U1,30,D0(GPIO16)*%
%TO.N,unconnected-(U1-Pad30)*%
X113970000Y-54680000D03*
%TD*%
D12*
%TO.P,R1,1*%
%TO.N,+3.3V*%
X103412500Y-60000000D03*
%TO.P,R1,2*%
%TO.N,Net-(R1-Pad2)*%
X101587500Y-60000000D03*
%TD*%
D13*
%TO.P,J1,1,Pin_1*%
%TO.N,+12V*%
X130000000Y-70000000D03*
D14*
%TO.P,J1,2,Pin_2*%
%TO.N,GND*%
X130000000Y-65000000D03*
%TD*%
D13*
%TO.P,J2,1,Pin_1*%
%TO.N,+12V*%
X130000000Y-97500000D03*
D14*
%TO.P,J2,2,Pin_2*%
%TO.N,Net-(J2-Pad2)*%
X130000000Y-92500000D03*
%TO.P,J2,3,Pin_3*%
%TO.N,GND*%
X130000000Y-87500000D03*
%TD*%
D15*
%TO.P,U2,1,VI*%
%TO.N,+12V*%
X130000000Y-47500000D03*
D16*
%TO.P,U2,2,GND*%
%TO.N,GND*%
X130000000Y-50040000D03*
%TO.P,U2,3,VO*%
%TO.N,+5V*%
X130000000Y-52580000D03*
%TD*%
D17*
%TO.P,U3,1,VCCA*%
%TO.N,+3.3V*%
X104050000Y-65750000D03*
%TO.P,U3,2,A1*%
%TO.N,Net-(U1-Pad26)*%
X104050000Y-65250000D03*
%TO.P,U3,3,A2*%
%TO.N,unconnected-(U3-Pad3)*%
X104050000Y-64750000D03*
%TO.P,U3,4,GND*%
%TO.N,GND*%
X104050000Y-64250000D03*
%TO.P,U3,5,DIR*%
%TO.N,Net-(R1-Pad2)*%
X100950000Y-64250000D03*
%TO.P,U3,6,B2*%
%TO.N,unconnected-(U3-Pad6)*%
X100950000Y-64750000D03*
%TO.P,U3,7,B1*%
%TO.N,Net-(J2-Pad2)*%
X100950000Y-65250000D03*
%TO.P,U3,8,VCCB*%
%TO.N,+5V*%
X100950000Y-65750000D03*
%TD*%
D10*
%TO.P,C2,1*%
%TO.N,+5V*%
X122500000Y-55000000D03*
%TO.P,C2,2*%
%TO.N,GND*%
X122500000Y-53100000D03*
%TD*%
%TO.P,C4,1*%
%TO.N,GND*%
X99000000Y-70950000D03*
%TO.P,C4,2*%
%TO.N,+5V*%
X99000000Y-69050000D03*
%TD*%
%TO.P,C3,1*%
%TO.N,GND*%
X105000000Y-70950000D03*
%TO.P,C3,2*%
%TO.N,+3.3V*%
X105000000Y-69050000D03*
%TD*%
D18*
%TO.N,+5V*%
X98000000Y-87000000D03*
X93000000Y-91000000D03*
%TD*%
D19*
%TO.N,+3.3V*%
X104050000Y-65750000D02*
X103215000Y-65750000D01*
X103412500Y-61687500D02*
X103412500Y-60000000D01*
X103215000Y-65750000D02*
X102235000Y-64770000D01*
X102235000Y-64770000D02*
X102235000Y-62865000D01*
X102235000Y-62865000D02*
X103412500Y-61687500D01*
D20*
%TO.N,+12V*%
X135000000Y-97500000D02*
X140000000Y-92500000D01*
D21*
X123450000Y-47500000D02*
X130000000Y-47500000D01*
D20*
X140000000Y-52500000D02*
X135000000Y-47500000D01*
D21*
X122500000Y-48450000D02*
X123450000Y-47500000D01*
D20*
X135000000Y-47500000D02*
X130000000Y-47500000D01*
X130000000Y-70000000D02*
X140000000Y-80000000D01*
X140000000Y-92500000D02*
X140000000Y-80000000D01*
X130000000Y-97500000D02*
X135000000Y-97500000D01*
X140000000Y-80000000D02*
X140000000Y-52500000D01*
D19*
%TO.N,GND*%
X84460000Y-77540000D02*
X83000000Y-79000000D01*
X86030000Y-77540000D02*
X84460000Y-77540000D01*
X105750000Y-64250000D02*
X107000000Y-63000000D01*
D21*
X113970000Y-87700000D02*
X112700000Y-87700000D01*
D19*
X84700000Y-87700000D02*
X86030000Y-87700000D01*
D21*
X120000000Y-48000000D02*
X120000000Y-52000000D01*
X126960000Y-50040000D02*
X130000000Y-50040000D01*
X130000000Y-65000000D02*
X124000000Y-65000000D01*
X132040000Y-50040000D02*
X134000000Y-52000000D01*
X134000000Y-63000000D02*
X132000000Y-65000000D01*
X122500000Y-46550000D02*
X121450000Y-46550000D01*
X110000000Y-85000000D02*
X110000000Y-71000000D01*
X105050000Y-71000000D02*
X105000000Y-70950000D01*
X123900000Y-53100000D02*
X126960000Y-50040000D01*
X111080000Y-69920000D02*
X110000000Y-71000000D01*
D19*
X104050000Y-64250000D02*
X105750000Y-64250000D01*
X116000000Y-53000000D02*
X123000000Y-60000000D01*
X107000000Y-63000000D02*
X107000000Y-54000000D01*
D21*
X99000000Y-70950000D02*
X105000000Y-70950000D01*
X121450000Y-46550000D02*
X120000000Y-48000000D01*
X132000000Y-65000000D02*
X130000000Y-65000000D01*
X120000000Y-52000000D02*
X121100000Y-53100000D01*
D19*
X128000000Y-60000000D02*
X130000000Y-62000000D01*
X123000000Y-60000000D02*
X128000000Y-60000000D01*
D21*
X122500000Y-53100000D02*
X123900000Y-53100000D01*
X130000000Y-87500000D02*
X114170000Y-87500000D01*
D19*
X83000000Y-79000000D02*
X83000000Y-86000000D01*
X130000000Y-62000000D02*
X130000000Y-65000000D01*
D21*
X113970000Y-69920000D02*
X111080000Y-69920000D01*
X119080000Y-69920000D02*
X113970000Y-69920000D01*
D19*
X108000000Y-53000000D02*
X116000000Y-53000000D01*
X107000000Y-54000000D02*
X108000000Y-53000000D01*
X83000000Y-86000000D02*
X84700000Y-87700000D01*
D21*
X121100000Y-53100000D02*
X122500000Y-53100000D01*
X110000000Y-71000000D02*
X105050000Y-71000000D01*
X112700000Y-87700000D02*
X110000000Y-85000000D01*
X114170000Y-87500000D02*
X113970000Y-87700000D01*
X124000000Y-65000000D02*
X119080000Y-69920000D01*
X134000000Y-52000000D02*
X134000000Y-63000000D01*
X130000000Y-50040000D02*
X132040000Y-50040000D01*
%TO.N,+5V*%
X86030000Y-90240000D02*
X92240000Y-90240000D01*
D19*
X100250000Y-65750000D02*
X99000000Y-67000000D01*
D21*
X126000000Y-55000000D02*
X122500000Y-55000000D01*
X92240000Y-90240000D02*
X93000000Y-91000000D01*
X81000000Y-55000000D02*
X81000000Y-89000000D01*
D19*
X96950000Y-69050000D02*
X99000000Y-69050000D01*
X99000000Y-67000000D02*
X99000000Y-69050000D01*
X96000000Y-70000000D02*
X96950000Y-69050000D01*
X96000000Y-85000000D02*
X96000000Y-70000000D01*
D21*
X82240000Y-90240000D02*
X86030000Y-90240000D01*
D19*
X100950000Y-65750000D02*
X100250000Y-65750000D01*
D21*
X128420000Y-52580000D02*
X126000000Y-55000000D01*
X121000000Y-55000000D02*
X117000000Y-51000000D01*
X117000000Y-51000000D02*
X85000000Y-51000000D01*
X130000000Y-52580000D02*
X128420000Y-52580000D01*
D19*
X98000000Y-87000000D02*
X96000000Y-85000000D01*
D21*
X85000000Y-51000000D02*
X81000000Y-55000000D01*
X81000000Y-89000000D02*
X82240000Y-90240000D01*
X122500000Y-55000000D02*
X121000000Y-55000000D01*
%TO.N,+3.3V*%
X103000000Y-57000000D02*
X103412500Y-57412500D01*
X88920000Y-80080000D02*
X91000000Y-78000000D01*
X113970000Y-67380000D02*
X109620000Y-67380000D01*
D19*
X104050000Y-65750000D02*
X104050000Y-68100000D01*
D21*
X91000000Y-59000000D02*
X93000000Y-57000000D01*
X107950000Y-69050000D02*
X105000000Y-69050000D01*
X103412500Y-57412500D02*
X103412500Y-60000000D01*
D19*
X104050000Y-68100000D02*
X105000000Y-69050000D01*
D21*
X93000000Y-57000000D02*
X103000000Y-57000000D01*
X109620000Y-67380000D02*
X107950000Y-69050000D01*
X86030000Y-80080000D02*
X88920000Y-80080000D01*
X91000000Y-78000000D02*
X91000000Y-59000000D01*
D19*
%TO.N,Net-(J2-Pad2)*%
X97750000Y-65250000D02*
X94000000Y-69000000D01*
X102000000Y-95000000D02*
X118000000Y-95000000D01*
X120500000Y-92500000D02*
X130000000Y-92500000D01*
X94000000Y-69000000D02*
X94000000Y-87000000D01*
X118000000Y-95000000D02*
X120500000Y-92500000D01*
X100950000Y-65250000D02*
X97750000Y-65250000D01*
X94000000Y-87000000D02*
X102000000Y-95000000D01*
%TO.N,Net-(R1-Pad2)*%
X99000000Y-61000000D02*
X100000000Y-60000000D01*
X100000000Y-60000000D02*
X101587500Y-60000000D01*
X99000000Y-63000000D02*
X99000000Y-61000000D01*
X100250000Y-64250000D02*
X99000000Y-63000000D01*
X100950000Y-64250000D02*
X100250000Y-64250000D01*
%TO.N,Net-(U1-Pad26)*%
X113560000Y-65250000D02*
X113970000Y-64840000D01*
X104050000Y-65250000D02*
X113560000Y-65250000D01*
%TD*%
%TA.AperFunction,Conductor*%
%TO.N,GND*%
G36*
X114309590Y-69238046D02*
G01*
X114436049Y-69303395D01*
X114436514Y-69303648D01*
X114551325Y-69369719D01*
X114551581Y-69369871D01*
X114653451Y-69431997D01*
X114748178Y-69489150D01*
X114748297Y-69489215D01*
X114841290Y-69540141D01*
X114841300Y-69540146D01*
X114841490Y-69540250D01*
X114841702Y-69540346D01*
X114841703Y-69540346D01*
X114938968Y-69584171D01*
X114938978Y-69584175D01*
X114939249Y-69584297D01*
X114939542Y-69584395D01*
X114939543Y-69584395D01*
X115047004Y-69620190D01*
X115047008Y-69620191D01*
X115047317Y-69620294D01*
X115123808Y-69636886D01*
X115171265Y-69647180D01*
X115171267Y-69647180D01*
X115171556Y-69647243D01*
X115171840Y-69647276D01*
X115171847Y-69647277D01*
X115316624Y-69664005D01*
X115317829Y-69664144D01*
X115318062Y-69664152D01*
X115318064Y-69664152D01*
X115480693Y-69669620D01*
X115488846Y-69673323D01*
X115492000Y-69681313D01*
X115492000Y-70158687D01*
X115488573Y-70166960D01*
X115480693Y-70170380D01*
X115318064Y-70175847D01*
X115318062Y-70175847D01*
X115317829Y-70175855D01*
X115317604Y-70175881D01*
X115171847Y-70192722D01*
X115171840Y-70192723D01*
X115171556Y-70192756D01*
X115171267Y-70192819D01*
X115171265Y-70192819D01*
X115123808Y-70203113D01*
X115047317Y-70219705D01*
X115047008Y-70219808D01*
X115047004Y-70219809D01*
X114939543Y-70255604D01*
X114939249Y-70255702D01*
X114938978Y-70255824D01*
X114938968Y-70255828D01*
X114842098Y-70299475D01*
X114841490Y-70299749D01*
X114841300Y-70299853D01*
X114841290Y-70299858D01*
X114770778Y-70338473D01*
X114748178Y-70350849D01*
X114748067Y-70350916D01*
X114748060Y-70350920D01*
X114653451Y-70408002D01*
X114551581Y-70470128D01*
X114551325Y-70470280D01*
X114436514Y-70536351D01*
X114436049Y-70536604D01*
X114309590Y-70601954D01*
X114300667Y-70602708D01*
X114296109Y-70599993D01*
X114230193Y-70536604D01*
X114161152Y-70470211D01*
X113970000Y-70286389D01*
X113589000Y-69920000D01*
X113970000Y-69553611D01*
X114296110Y-69240007D01*
X114304448Y-69236742D01*
X114309590Y-69238046D01*
G37*
%TD.AperFunction*%
%TD*%
%TA.AperFunction,Conductor*%
%TO.N,Net-(U1-Pad26)*%
G36*
X114279336Y-64634077D02*
G01*
X114286748Y-64639102D01*
X114288435Y-64647896D01*
X114288074Y-64649241D01*
X114252719Y-64755145D01*
X113977864Y-65578446D01*
X113972774Y-65593692D01*
X113966904Y-65600454D01*
X113961248Y-65601679D01*
X113897571Y-65599342D01*
X113797267Y-65595661D01*
X113796330Y-65595589D01*
X113650521Y-65578446D01*
X113649599Y-65578300D01*
X113522907Y-65553042D01*
X113522176Y-65552872D01*
X113407135Y-65522143D01*
X113406761Y-65522036D01*
X113403357Y-65521005D01*
X113296076Y-65488500D01*
X113182628Y-65454904D01*
X113182505Y-65454873D01*
X113182497Y-65454871D01*
X113059560Y-65424082D01*
X113059550Y-65424080D01*
X113059355Y-65424031D01*
X113003581Y-65413929D01*
X112919216Y-65398647D01*
X112919204Y-65398645D01*
X112918998Y-65398608D01*
X112918773Y-65398584D01*
X112918770Y-65398584D01*
X112754509Y-65381378D01*
X112754299Y-65381356D01*
X112754105Y-65381350D01*
X112754095Y-65381349D01*
X112666238Y-65378505D01*
X112569320Y-65375367D01*
X112561163Y-65371674D01*
X112558000Y-65363673D01*
X112558000Y-65135982D01*
X112561427Y-65127709D01*
X112568959Y-65124305D01*
X112697506Y-65116150D01*
X112697511Y-65116149D01*
X112697972Y-65116120D01*
X112812144Y-65090370D01*
X112812672Y-65090135D01*
X112812675Y-65090134D01*
X112904331Y-65049339D01*
X112904333Y-65049338D01*
X112904901Y-65049085D01*
X112980633Y-64993598D01*
X113043726Y-64925244D01*
X113098569Y-64845356D01*
X113149550Y-64755269D01*
X113149615Y-64755145D01*
X113201016Y-64656393D01*
X113201056Y-64656317D01*
X113257364Y-64550043D01*
X113257595Y-64549626D01*
X113318960Y-64444414D01*
X113326089Y-64438994D01*
X113331427Y-64438850D01*
X114279336Y-64634077D01*
G37*
%TD.AperFunction*%
%TD*%
%TA.AperFunction,Conductor*%
%TO.N,Net-(J2-Pad2)*%
G36*
X129461351Y-91380974D02*
G01*
X130495016Y-92375000D01*
X130616231Y-92491567D01*
X130619819Y-92499771D01*
X130616231Y-92508433D01*
X130011518Y-93089956D01*
X129461350Y-93619026D01*
X129453011Y-93622291D01*
X129447591Y-93620839D01*
X129444303Y-93619026D01*
X129218127Y-93494323D01*
X129217124Y-93493701D01*
X129022263Y-93358558D01*
X129021517Y-93357995D01*
X128856050Y-93222298D01*
X128855687Y-93221988D01*
X128707459Y-93089956D01*
X128564742Y-92966243D01*
X128564738Y-92966240D01*
X128564586Y-92966108D01*
X128415151Y-92854971D01*
X128414819Y-92854785D01*
X128414814Y-92854782D01*
X128343739Y-92815012D01*
X128247065Y-92760918D01*
X128048238Y-92688323D01*
X127806579Y-92641559D01*
X127521048Y-92625617D01*
X127512979Y-92621734D01*
X127510000Y-92613935D01*
X127510000Y-92386065D01*
X127513427Y-92377792D01*
X127521048Y-92374383D01*
X127806579Y-92358440D01*
X128048238Y-92311676D01*
X128247065Y-92239081D01*
X128343739Y-92184987D01*
X128414814Y-92145217D01*
X128414819Y-92145214D01*
X128415151Y-92145028D01*
X128564586Y-92033891D01*
X128707459Y-91910043D01*
X128855687Y-91778011D01*
X128856050Y-91777701D01*
X129021517Y-91642004D01*
X129022268Y-91641437D01*
X129217124Y-91506298D01*
X129218127Y-91505676D01*
X129447591Y-91379161D01*
X129456490Y-91378168D01*
X129461351Y-91380974D01*
G37*
%TD.AperFunction*%
%TD*%
%TA.AperFunction,Conductor*%
%TO.N,+3.3V*%
G36*
X86369590Y-79398046D02*
G01*
X86496049Y-79463395D01*
X86496514Y-79463648D01*
X86611325Y-79529719D01*
X86611581Y-79529871D01*
X86713451Y-79591997D01*
X86808178Y-79649150D01*
X86808297Y-79649215D01*
X86901290Y-79700141D01*
X86901300Y-79700146D01*
X86901490Y-79700250D01*
X86901702Y-79700346D01*
X86901703Y-79700346D01*
X86998968Y-79744171D01*
X86998978Y-79744175D01*
X86999249Y-79744297D01*
X86999542Y-79744395D01*
X86999543Y-79744395D01*
X87107004Y-79780190D01*
X87107008Y-79780191D01*
X87107317Y-79780294D01*
X87183808Y-79796886D01*
X87231265Y-79807180D01*
X87231267Y-79807180D01*
X87231556Y-79807243D01*
X87231840Y-79807276D01*
X87231847Y-79807277D01*
X87376624Y-79824005D01*
X87377829Y-79824144D01*
X87378062Y-79824152D01*
X87378064Y-79824152D01*
X87540693Y-79829620D01*
X87548846Y-79833323D01*
X87552000Y-79841313D01*
X87552000Y-80318687D01*
X87548573Y-80326960D01*
X87540693Y-80330380D01*
X87378064Y-80335847D01*
X87378062Y-80335847D01*
X87377829Y-80335855D01*
X87377604Y-80335881D01*
X87231847Y-80352722D01*
X87231840Y-80352723D01*
X87231556Y-80352756D01*
X87231267Y-80352819D01*
X87231265Y-80352819D01*
X87183808Y-80363113D01*
X87107317Y-80379705D01*
X87107008Y-80379808D01*
X87107004Y-80379809D01*
X86999543Y-80415604D01*
X86999249Y-80415702D01*
X86998978Y-80415824D01*
X86998968Y-80415828D01*
X86901703Y-80459653D01*
X86901490Y-80459749D01*
X86901300Y-80459853D01*
X86901290Y-80459858D01*
X86830778Y-80498473D01*
X86808178Y-80510849D01*
X86808067Y-80510916D01*
X86808060Y-80510920D01*
X86713451Y-80568002D01*
X86611581Y-80630128D01*
X86611325Y-80630280D01*
X86496514Y-80696351D01*
X86496049Y-80696604D01*
X86369590Y-80761954D01*
X86360667Y-80762708D01*
X86356109Y-80759993D01*
X86290193Y-80696604D01*
X85657769Y-80088433D01*
X85654181Y-80080229D01*
X85657769Y-80071567D01*
X85908969Y-79830000D01*
X86356110Y-79400007D01*
X86364448Y-79396742D01*
X86369590Y-79398046D01*
G37*
%TD.AperFunction*%
%TD*%
%TA.AperFunction,Conductor*%
%TO.N,+3.3V*%
G36*
X113643890Y-66700006D02*
G01*
X114091031Y-67130000D01*
X114342231Y-67371567D01*
X114345819Y-67379771D01*
X114342231Y-67388433D01*
X113709808Y-67996604D01*
X113643891Y-68059993D01*
X113635552Y-68063258D01*
X113630410Y-68061954D01*
X113503950Y-67996604D01*
X113503485Y-67996351D01*
X113388674Y-67930280D01*
X113388418Y-67930128D01*
X113286548Y-67868002D01*
X113191939Y-67810920D01*
X113191932Y-67810916D01*
X113191821Y-67810849D01*
X113169221Y-67798473D01*
X113098709Y-67759858D01*
X113098699Y-67759853D01*
X113098509Y-67759749D01*
X113098296Y-67759653D01*
X113001031Y-67715828D01*
X113001021Y-67715824D01*
X113000750Y-67715702D01*
X113000456Y-67715604D01*
X112892995Y-67679809D01*
X112892991Y-67679808D01*
X112892682Y-67679705D01*
X112816191Y-67663113D01*
X112768734Y-67652819D01*
X112768732Y-67652819D01*
X112768443Y-67652756D01*
X112768159Y-67652723D01*
X112768152Y-67652722D01*
X112622395Y-67635881D01*
X112622170Y-67635855D01*
X112621937Y-67635847D01*
X112621935Y-67635847D01*
X112459307Y-67630380D01*
X112451154Y-67626678D01*
X112448000Y-67618687D01*
X112448000Y-67141313D01*
X112451427Y-67133040D01*
X112459307Y-67129620D01*
X112621935Y-67124152D01*
X112621937Y-67124152D01*
X112622170Y-67124144D01*
X112623375Y-67124005D01*
X112768152Y-67107277D01*
X112768159Y-67107276D01*
X112768443Y-67107243D01*
X112768732Y-67107180D01*
X112768734Y-67107180D01*
X112816191Y-67096886D01*
X112892682Y-67080294D01*
X112892991Y-67080191D01*
X112892995Y-67080190D01*
X113000456Y-67044395D01*
X113000457Y-67044395D01*
X113000750Y-67044297D01*
X113001021Y-67044175D01*
X113001031Y-67044171D01*
X113098296Y-67000346D01*
X113098297Y-67000346D01*
X113098509Y-67000250D01*
X113098699Y-67000146D01*
X113098709Y-67000141D01*
X113191702Y-66949215D01*
X113191821Y-66949150D01*
X113286548Y-66891997D01*
X113388418Y-66829871D01*
X113388674Y-66829719D01*
X113503485Y-66763648D01*
X113503950Y-66763395D01*
X113630410Y-66698046D01*
X113639333Y-66697292D01*
X113643890Y-66700006D01*
G37*
%TD.AperFunction*%
%TD*%
%TA.AperFunction,Conductor*%
%TO.N,+5V*%
G36*
X97538037Y-86360685D02*
G01*
X97568812Y-86389314D01*
X97596050Y-86414653D01*
X97596236Y-86414798D01*
X97596243Y-86414804D01*
X97656019Y-86461395D01*
X97656024Y-86461398D01*
X97656262Y-86461584D01*
X97656523Y-86461747D01*
X97656525Y-86461748D01*
X97711890Y-86496239D01*
X97711897Y-86496243D01*
X97712175Y-86496416D01*
X97765550Y-86521777D01*
X97765836Y-86521878D01*
X97765844Y-86521881D01*
X97817931Y-86540215D01*
X97818153Y-86540293D01*
X97871745Y-86554592D01*
X97928085Y-86567299D01*
X97928089Y-86567302D01*
X97928089Y-86567300D01*
X97988797Y-86581012D01*
X97989156Y-86581100D01*
X98055781Y-86598375D01*
X98056362Y-86598541D01*
X98123254Y-86619627D01*
X98130114Y-86625383D01*
X98131434Y-86630557D01*
X98141183Y-87129256D01*
X98137918Y-87137595D01*
X98129256Y-87141183D01*
X97630557Y-87131434D01*
X97622353Y-87127846D01*
X97619627Y-87123254D01*
X97598541Y-87056362D01*
X97598375Y-87055781D01*
X97581100Y-86989156D01*
X97581012Y-86988797D01*
X97567300Y-86928089D01*
X97567301Y-86928089D01*
X97567299Y-86928085D01*
X97554623Y-86871883D01*
X97554592Y-86871745D01*
X97540293Y-86818153D01*
X97540215Y-86817931D01*
X97521881Y-86765844D01*
X97521878Y-86765836D01*
X97521777Y-86765550D01*
X97496416Y-86712175D01*
X97496243Y-86711897D01*
X97496239Y-86711890D01*
X97461748Y-86656525D01*
X97461747Y-86656523D01*
X97461584Y-86656262D01*
X97437516Y-86625383D01*
X97414804Y-86596243D01*
X97414798Y-86596236D01*
X97414653Y-86596050D01*
X97376085Y-86554592D01*
X97360685Y-86538037D01*
X97357559Y-86529646D01*
X97360978Y-86521795D01*
X97521795Y-86360978D01*
X97530068Y-86357551D01*
X97538037Y-86360685D01*
G37*
%TD.AperFunction*%
%TD*%
%TA.AperFunction,Conductor*%
%TO.N,+5V*%
G36*
X129333768Y-51910750D02*
G01*
X130462912Y-52572187D01*
X130468318Y-52579325D01*
X130467093Y-52588196D01*
X130465108Y-52590715D01*
X129591185Y-53431124D01*
X129582846Y-53434389D01*
X129577183Y-53432799D01*
X129440545Y-53353108D01*
X129439393Y-53352340D01*
X129307663Y-53252816D01*
X129307053Y-53252322D01*
X129184393Y-53146003D01*
X129184257Y-53145884D01*
X129068156Y-53042075D01*
X129068140Y-53042062D01*
X129068068Y-53041997D01*
X128955943Y-52950022D01*
X128955652Y-52949836D01*
X128955648Y-52949833D01*
X128845750Y-52879562D01*
X128845747Y-52879561D01*
X128845202Y-52879212D01*
X128780533Y-52855882D01*
X128734058Y-52839116D01*
X128734056Y-52839116D01*
X128733123Y-52838779D01*
X128650068Y-52838178D01*
X128618103Y-52837946D01*
X128616988Y-52837938D01*
X128494075Y-52885903D01*
X128493381Y-52886458D01*
X128493380Y-52886459D01*
X128369841Y-52985343D01*
X128361241Y-52987838D01*
X128354257Y-52984482D01*
X128016863Y-52647088D01*
X128013436Y-52638815D01*
X128017341Y-52630090D01*
X128161581Y-52501230D01*
X128162734Y-52500323D01*
X128305075Y-52402176D01*
X128306368Y-52401403D01*
X128440313Y-52332543D01*
X128441488Y-52332019D01*
X128525323Y-52300071D01*
X128569378Y-52283283D01*
X128570146Y-52283020D01*
X128694402Y-52245302D01*
X128694529Y-52245265D01*
X128816719Y-52209681D01*
X128816734Y-52209676D01*
X128816872Y-52209636D01*
X128817014Y-52209587D01*
X128817022Y-52209584D01*
X128938937Y-52167136D01*
X128938939Y-52167135D01*
X128939244Y-52167029D01*
X128939525Y-52166896D01*
X128939531Y-52166894D01*
X129063229Y-52108544D01*
X129063231Y-52108543D01*
X129063589Y-52108374D01*
X129063921Y-52108157D01*
X129063925Y-52108155D01*
X129114442Y-52075177D01*
X129191978Y-52024561D01*
X129320135Y-51912052D01*
X129328613Y-51909170D01*
X129333768Y-51910750D01*
G37*
%TD.AperFunction*%
%TD*%
%TA.AperFunction,Conductor*%
%TO.N,+5V*%
G36*
X85703890Y-89560007D02*
G01*
X86028321Y-89871997D01*
X86028323Y-89871998D01*
X86411000Y-90240000D01*
X86030000Y-90606389D01*
X85769808Y-90856604D01*
X85703891Y-90919993D01*
X85695552Y-90923258D01*
X85690410Y-90921954D01*
X85563950Y-90856604D01*
X85563485Y-90856351D01*
X85448674Y-90790280D01*
X85448418Y-90790128D01*
X85346548Y-90728002D01*
X85251939Y-90670920D01*
X85251932Y-90670916D01*
X85251821Y-90670849D01*
X85229221Y-90658473D01*
X85158709Y-90619858D01*
X85158699Y-90619853D01*
X85158509Y-90619749D01*
X85157901Y-90619475D01*
X85061031Y-90575828D01*
X85061021Y-90575824D01*
X85060750Y-90575702D01*
X85060456Y-90575604D01*
X84952995Y-90539809D01*
X84952991Y-90539808D01*
X84952682Y-90539705D01*
X84876191Y-90523113D01*
X84828734Y-90512819D01*
X84828732Y-90512819D01*
X84828443Y-90512756D01*
X84828159Y-90512723D01*
X84828152Y-90512722D01*
X84682395Y-90495881D01*
X84682170Y-90495855D01*
X84681937Y-90495847D01*
X84681935Y-90495847D01*
X84519307Y-90490380D01*
X84511154Y-90486678D01*
X84508000Y-90478687D01*
X84508000Y-90001313D01*
X84511427Y-89993040D01*
X84519307Y-89989620D01*
X84681935Y-89984152D01*
X84681937Y-89984152D01*
X84682170Y-89984144D01*
X84683375Y-89984005D01*
X84828152Y-89967277D01*
X84828159Y-89967276D01*
X84828443Y-89967243D01*
X84828732Y-89967180D01*
X84828734Y-89967180D01*
X84876191Y-89956886D01*
X84952682Y-89940294D01*
X84952991Y-89940191D01*
X84952995Y-89940190D01*
X85060456Y-89904395D01*
X85060457Y-89904395D01*
X85060750Y-89904297D01*
X85061021Y-89904175D01*
X85061031Y-89904171D01*
X85158296Y-89860346D01*
X85158297Y-89860346D01*
X85158509Y-89860250D01*
X85158699Y-89860146D01*
X85158709Y-89860141D01*
X85251702Y-89809215D01*
X85251821Y-89809150D01*
X85346548Y-89751997D01*
X85448418Y-89689871D01*
X85448674Y-89689719D01*
X85563485Y-89623648D01*
X85563950Y-89623395D01*
X85661800Y-89572830D01*
X85690409Y-89558046D01*
X85699332Y-89557292D01*
X85703890Y-89560007D01*
G37*
%TD.AperFunction*%
%TD*%
%TA.AperFunction,Conductor*%
%TO.N,+5V*%
G36*
X92626435Y-90272811D02*
G01*
X92680411Y-90326319D01*
X92735637Y-90379476D01*
X92785564Y-90425125D01*
X92809265Y-90445164D01*
X92831812Y-90464227D01*
X92831824Y-90464236D01*
X92831912Y-90464311D01*
X92876403Y-90498077D01*
X92876552Y-90498176D01*
X92876558Y-90498180D01*
X92920598Y-90527361D01*
X92920605Y-90527365D01*
X92920760Y-90527468D01*
X92920931Y-90527565D01*
X92966533Y-90553431D01*
X92966542Y-90553436D01*
X92966703Y-90553527D01*
X92992085Y-90565777D01*
X93015811Y-90577229D01*
X93015824Y-90577235D01*
X93015955Y-90577298D01*
X93070236Y-90599825D01*
X93123750Y-90619403D01*
X93130341Y-90625463D01*
X93131426Y-90630159D01*
X93138009Y-90966874D01*
X93141183Y-91129256D01*
X93137918Y-91137595D01*
X93129256Y-91141183D01*
X92986361Y-91138390D01*
X92630160Y-91131427D01*
X92621957Y-91127839D01*
X92619402Y-91123749D01*
X92599861Y-91070334D01*
X92599859Y-91070328D01*
X92599825Y-91070236D01*
X92577298Y-91015955D01*
X92577235Y-91015824D01*
X92577229Y-91015811D01*
X92565777Y-90992085D01*
X92553527Y-90966703D01*
X92527468Y-90920760D01*
X92498077Y-90876403D01*
X92464311Y-90831912D01*
X92464236Y-90831824D01*
X92464227Y-90831812D01*
X92445164Y-90809265D01*
X92425125Y-90785564D01*
X92379476Y-90735637D01*
X92326319Y-90680411D01*
X92272811Y-90626435D01*
X92269420Y-90618148D01*
X92272847Y-90609926D01*
X92609926Y-90272847D01*
X92618199Y-90269420D01*
X92626435Y-90272811D01*
G37*
%TD.AperFunction*%
%TD*%
%TA.AperFunction,Conductor*%
%TO.N,+5V*%
G36*
X86369590Y-89558046D02*
G01*
X86496049Y-89623395D01*
X86496514Y-89623648D01*
X86611325Y-89689719D01*
X86611581Y-89689871D01*
X86713451Y-89751997D01*
X86808178Y-89809150D01*
X86808297Y-89809215D01*
X86901290Y-89860141D01*
X86901300Y-89860146D01*
X86901490Y-89860250D01*
X86901702Y-89860346D01*
X86901703Y-89860346D01*
X86998968Y-89904171D01*
X86998978Y-89904175D01*
X86999249Y-89904297D01*
X86999542Y-89904395D01*
X86999543Y-89904395D01*
X87107004Y-89940190D01*
X87107008Y-89940191D01*
X87107317Y-89940294D01*
X87183808Y-89956886D01*
X87231265Y-89967180D01*
X87231267Y-89967180D01*
X87231556Y-89967243D01*
X87231840Y-89967276D01*
X87231847Y-89967277D01*
X87376624Y-89984005D01*
X87377829Y-89984144D01*
X87378062Y-89984152D01*
X87378064Y-89984152D01*
X87540693Y-89989620D01*
X87548846Y-89993323D01*
X87552000Y-90001313D01*
X87552000Y-90478687D01*
X87548573Y-90486960D01*
X87540693Y-90490380D01*
X87378064Y-90495847D01*
X87378062Y-90495847D01*
X87377829Y-90495855D01*
X87377604Y-90495881D01*
X87231847Y-90512722D01*
X87231840Y-90512723D01*
X87231556Y-90512756D01*
X87231267Y-90512819D01*
X87231265Y-90512819D01*
X87183808Y-90523113D01*
X87107317Y-90539705D01*
X87107008Y-90539808D01*
X87107004Y-90539809D01*
X86999543Y-90575604D01*
X86999249Y-90575702D01*
X86998978Y-90575824D01*
X86998968Y-90575828D01*
X86902098Y-90619475D01*
X86901490Y-90619749D01*
X86901300Y-90619853D01*
X86901290Y-90619858D01*
X86830778Y-90658473D01*
X86808178Y-90670849D01*
X86808067Y-90670916D01*
X86808060Y-90670920D01*
X86713451Y-90728002D01*
X86611581Y-90790128D01*
X86611325Y-90790280D01*
X86496514Y-90856351D01*
X86496049Y-90856604D01*
X86369590Y-90921954D01*
X86360667Y-90922708D01*
X86356109Y-90919993D01*
X86290193Y-90856604D01*
X86221152Y-90790211D01*
X86030000Y-90606389D01*
X85649000Y-90240000D01*
X86030000Y-89873611D01*
X86356110Y-89560007D01*
X86364448Y-89556742D01*
X86369590Y-89558046D01*
G37*
%TD.AperFunction*%
%TD*%
%TA.AperFunction,Conductor*%
%TO.N,GND*%
G36*
X130422659Y-49186690D02*
G01*
X130586678Y-49273133D01*
X130587313Y-49273493D01*
X130732501Y-49361992D01*
X130732915Y-49362256D01*
X130860214Y-49447387D01*
X130860301Y-49447446D01*
X130977288Y-49527212D01*
X130977302Y-49527221D01*
X130977343Y-49527249D01*
X131043125Y-49568928D01*
X131091773Y-49599751D01*
X131091780Y-49599755D01*
X131091963Y-49599871D01*
X131092153Y-49599972D01*
X131092164Y-49599978D01*
X131211640Y-49663258D01*
X131211933Y-49663413D01*
X131345113Y-49716036D01*
X131499361Y-49755901D01*
X131582761Y-49767405D01*
X131682244Y-49781128D01*
X131682253Y-49781129D01*
X131682537Y-49781168D01*
X131682818Y-49781179D01*
X131682826Y-49781180D01*
X131867670Y-49788602D01*
X131891269Y-49789549D01*
X131899398Y-49793305D01*
X131902500Y-49801240D01*
X131902500Y-50278760D01*
X131899073Y-50287033D01*
X131891269Y-50290451D01*
X131848817Y-50292155D01*
X131682826Y-50298819D01*
X131682818Y-50298820D01*
X131682537Y-50298831D01*
X131682253Y-50298870D01*
X131682244Y-50298871D01*
X131582761Y-50312594D01*
X131499361Y-50324098D01*
X131345113Y-50363963D01*
X131211933Y-50416586D01*
X131211643Y-50416740D01*
X131211640Y-50416741D01*
X131092164Y-50480021D01*
X131092153Y-50480027D01*
X131091963Y-50480128D01*
X131091780Y-50480244D01*
X131091773Y-50480248D01*
X131049398Y-50507097D01*
X130977343Y-50552750D01*
X130977302Y-50552778D01*
X130977288Y-50552787D01*
X130860301Y-50632553D01*
X130860214Y-50632612D01*
X130732915Y-50717743D01*
X130732501Y-50718007D01*
X130587301Y-50806514D01*
X130586666Y-50806874D01*
X130422660Y-50893310D01*
X130413743Y-50894136D01*
X130409095Y-50891393D01*
X130001679Y-50499601D01*
X129523750Y-50040000D01*
X130000000Y-49582013D01*
X130409095Y-49188607D01*
X130417433Y-49185342D01*
X130422659Y-49186690D01*
G37*
%TD.AperFunction*%
%TD*%
%TA.AperFunction,Conductor*%
%TO.N,+12V*%
G36*
X129590905Y-46648606D02*
G01*
X130207109Y-47241180D01*
X130467481Y-47491567D01*
X130471069Y-47499771D01*
X130467481Y-47508433D01*
X129590905Y-48351393D01*
X129582566Y-48354658D01*
X129577342Y-48353312D01*
X129413306Y-48266859D01*
X129412698Y-48266514D01*
X129267498Y-48178007D01*
X129267084Y-48177743D01*
X129139785Y-48092612D01*
X129139698Y-48092553D01*
X129022711Y-48012787D01*
X129022697Y-48012778D01*
X129022656Y-48012750D01*
X128950601Y-47967097D01*
X128908226Y-47940248D01*
X128908219Y-47940244D01*
X128908036Y-47940128D01*
X128907846Y-47940027D01*
X128907835Y-47940021D01*
X128788359Y-47876741D01*
X128788356Y-47876740D01*
X128788066Y-47876586D01*
X128654886Y-47823963D01*
X128500638Y-47784098D01*
X128417238Y-47772594D01*
X128317755Y-47758871D01*
X128317746Y-47758870D01*
X128317462Y-47758831D01*
X128317181Y-47758820D01*
X128317173Y-47758819D01*
X128150503Y-47752128D01*
X128108731Y-47750451D01*
X128100602Y-47746695D01*
X128097500Y-47738760D01*
X128097500Y-47261240D01*
X128100927Y-47252967D01*
X128108731Y-47249549D01*
X128131480Y-47248636D01*
X128317173Y-47241180D01*
X128317181Y-47241179D01*
X128317462Y-47241168D01*
X128317746Y-47241129D01*
X128317755Y-47241128D01*
X128417238Y-47227405D01*
X128500638Y-47215901D01*
X128654886Y-47176036D01*
X128788066Y-47123413D01*
X128788359Y-47123258D01*
X128907835Y-47059978D01*
X128907846Y-47059972D01*
X128908036Y-47059871D01*
X128908219Y-47059755D01*
X128908226Y-47059751D01*
X128950601Y-47032902D01*
X129022656Y-46987249D01*
X129022697Y-46987221D01*
X129022711Y-46987212D01*
X129139698Y-46907446D01*
X129139785Y-46907387D01*
X129267084Y-46822256D01*
X129267498Y-46821992D01*
X129412686Y-46733493D01*
X129413321Y-46733132D01*
X129577341Y-46646689D01*
X129586258Y-46645864D01*
X129590905Y-46648606D01*
G37*
%TD.AperFunction*%
%TD*%
%TA.AperFunction,Conductor*%
%TO.N,GND*%
G36*
X113643890Y-69240007D02*
G01*
X113968321Y-69551997D01*
X113968323Y-69551998D01*
X114351000Y-69920000D01*
X113970000Y-70286389D01*
X113709808Y-70536604D01*
X113643891Y-70599993D01*
X113635552Y-70603258D01*
X113630410Y-70601954D01*
X113503950Y-70536604D01*
X113503485Y-70536351D01*
X113388674Y-70470280D01*
X113388418Y-70470128D01*
X113286548Y-70408002D01*
X113191939Y-70350920D01*
X113191932Y-70350916D01*
X113191821Y-70350849D01*
X113169221Y-70338473D01*
X113098709Y-70299858D01*
X113098699Y-70299853D01*
X113098509Y-70299749D01*
X113097901Y-70299475D01*
X113001031Y-70255828D01*
X113001021Y-70255824D01*
X113000750Y-70255702D01*
X113000456Y-70255604D01*
X112892995Y-70219809D01*
X112892991Y-70219808D01*
X112892682Y-70219705D01*
X112816191Y-70203113D01*
X112768734Y-70192819D01*
X112768732Y-70192819D01*
X112768443Y-70192756D01*
X112768159Y-70192723D01*
X112768152Y-70192722D01*
X112622395Y-70175881D01*
X112622170Y-70175855D01*
X112621937Y-70175847D01*
X112621935Y-70175847D01*
X112459307Y-70170380D01*
X112451154Y-70166678D01*
X112448000Y-70158687D01*
X112448000Y-69681313D01*
X112451427Y-69673040D01*
X112459307Y-69669620D01*
X112621935Y-69664152D01*
X112621937Y-69664152D01*
X112622170Y-69664144D01*
X112623375Y-69664005D01*
X112768152Y-69647277D01*
X112768159Y-69647276D01*
X112768443Y-69647243D01*
X112768732Y-69647180D01*
X112768734Y-69647180D01*
X112816191Y-69636886D01*
X112892682Y-69620294D01*
X112892991Y-69620191D01*
X112892995Y-69620190D01*
X113000456Y-69584395D01*
X113000457Y-69584395D01*
X113000750Y-69584297D01*
X113001021Y-69584175D01*
X113001031Y-69584171D01*
X113098296Y-69540346D01*
X113098297Y-69540346D01*
X113098509Y-69540250D01*
X113098699Y-69540146D01*
X113098709Y-69540141D01*
X113191702Y-69489215D01*
X113191821Y-69489150D01*
X113286548Y-69431997D01*
X113388418Y-69369871D01*
X113388674Y-69369719D01*
X113503485Y-69303648D01*
X113503950Y-69303395D01*
X113601800Y-69252830D01*
X113630409Y-69238046D01*
X113639332Y-69237292D01*
X113643890Y-69240007D01*
G37*
%TD.AperFunction*%
%TD*%
%TA.AperFunction,Conductor*%
%TO.N,GND*%
G36*
X130122208Y-62513427D02*
G01*
X130125617Y-62521048D01*
X130141559Y-62806579D01*
X130188323Y-63048238D01*
X130260918Y-63247065D01*
X130354971Y-63415151D01*
X130466108Y-63564586D01*
X130466240Y-63564738D01*
X130466243Y-63564742D01*
X130589956Y-63707459D01*
X130721988Y-63855687D01*
X130722298Y-63856050D01*
X130857995Y-64021517D01*
X130858558Y-64022263D01*
X130994038Y-64217610D01*
X131125000Y-64455138D01*
X130010361Y-65614226D01*
X130008433Y-65616231D01*
X130000229Y-65619819D01*
X129991567Y-65616231D01*
X129989639Y-65614226D01*
X128875000Y-64455138D01*
X129005961Y-64217610D01*
X129141441Y-64022263D01*
X129142004Y-64021517D01*
X129277701Y-63856050D01*
X129278011Y-63855687D01*
X129410043Y-63707459D01*
X129533756Y-63564742D01*
X129533759Y-63564738D01*
X129533891Y-63564586D01*
X129645028Y-63415151D01*
X129739081Y-63247065D01*
X129811676Y-63048238D01*
X129858440Y-62806579D01*
X129874383Y-62521048D01*
X129878266Y-62512978D01*
X129886065Y-62510000D01*
X130113935Y-62510000D01*
X130122208Y-62513427D01*
G37*
%TD.AperFunction*%
%TD*%
%TA.AperFunction,Conductor*%
%TO.N,GND*%
G36*
X129461277Y-86380904D02*
G01*
X129583394Y-86498338D01*
X130350919Y-87236429D01*
X130616231Y-87491567D01*
X130619819Y-87499771D01*
X130616231Y-87508433D01*
X130248557Y-87862007D01*
X129461277Y-88619096D01*
X129452938Y-88622361D01*
X129447633Y-88620971D01*
X129444140Y-88619096D01*
X129225798Y-88501880D01*
X129225011Y-88501417D01*
X129033016Y-88377994D01*
X129032459Y-88377613D01*
X128866269Y-88256687D01*
X128866063Y-88256533D01*
X128714831Y-88141324D01*
X128714826Y-88141321D01*
X128714781Y-88141286D01*
X128714730Y-88141249D01*
X128567736Y-88035103D01*
X128567726Y-88035096D01*
X128567551Y-88034970D01*
X128413522Y-87940857D01*
X128241723Y-87862125D01*
X128041184Y-87801952D01*
X128040799Y-87801890D01*
X128040793Y-87801889D01*
X127801264Y-87763570D01*
X127801265Y-87763570D01*
X127800933Y-87763517D01*
X127800602Y-87763502D01*
X127800596Y-87763501D01*
X127521157Y-87750518D01*
X127513052Y-87746711D01*
X127510000Y-87738831D01*
X127510000Y-87261169D01*
X127513427Y-87252896D01*
X127521157Y-87249482D01*
X127800596Y-87236498D01*
X127800602Y-87236497D01*
X127800933Y-87236482D01*
X127824037Y-87232786D01*
X128040793Y-87198110D01*
X128040799Y-87198109D01*
X128041184Y-87198047D01*
X128241723Y-87137874D01*
X128413522Y-87059142D01*
X128567551Y-86965029D01*
X128567726Y-86964903D01*
X128567736Y-86964896D01*
X128714730Y-86858750D01*
X128714738Y-86858744D01*
X128714781Y-86858713D01*
X128714831Y-86858675D01*
X128866063Y-86743466D01*
X128866269Y-86743312D01*
X129032459Y-86622386D01*
X129033016Y-86622005D01*
X129225011Y-86498582D01*
X129225798Y-86498119D01*
X129447633Y-86379029D01*
X129456543Y-86378135D01*
X129461277Y-86380904D01*
G37*
%TD.AperFunction*%
%TD*%
%TA.AperFunction,Conductor*%
%TO.N,GND*%
G36*
X114272206Y-86986375D02*
G01*
X114272809Y-86986525D01*
X114409713Y-87024618D01*
X114410217Y-87024771D01*
X114456868Y-87040119D01*
X114530591Y-87064373D01*
X114530875Y-87064470D01*
X114641513Y-87104037D01*
X114641569Y-87104057D01*
X114749114Y-87141982D01*
X114749192Y-87142006D01*
X114749203Y-87142010D01*
X114806326Y-87159831D01*
X114860078Y-87176601D01*
X114860254Y-87176644D01*
X114860264Y-87176647D01*
X114980960Y-87206264D01*
X114981156Y-87206312D01*
X114981346Y-87206344D01*
X114981351Y-87206345D01*
X115118829Y-87229481D01*
X115118838Y-87229482D01*
X115119039Y-87229516D01*
X115220524Y-87239009D01*
X115280218Y-87244593D01*
X115280223Y-87244593D01*
X115280423Y-87244612D01*
X115280630Y-87244618D01*
X115280633Y-87244618D01*
X115338769Y-87246253D01*
X115460629Y-87249680D01*
X115468802Y-87253338D01*
X115472000Y-87261375D01*
X115472000Y-87738755D01*
X115468573Y-87747028D01*
X115460764Y-87750446D01*
X115316535Y-87756172D01*
X115316528Y-87756173D01*
X115316242Y-87756184D01*
X115185364Y-87774324D01*
X115074662Y-87803800D01*
X114979432Y-87843990D01*
X114979086Y-87844196D01*
X114895255Y-87894104D01*
X114895251Y-87894107D01*
X114894970Y-87894274D01*
X114816574Y-87954031D01*
X114816416Y-87954172D01*
X114816412Y-87954175D01*
X114792927Y-87975092D01*
X114739539Y-88022641D01*
X114739447Y-88022729D01*
X114659168Y-88099480D01*
X114659164Y-88099484D01*
X114570871Y-88183816D01*
X114570636Y-88184035D01*
X114514778Y-88234526D01*
X114475750Y-88269803D01*
X114467315Y-88272808D01*
X114462277Y-88271380D01*
X114212403Y-88134260D01*
X113903241Y-87964605D01*
X113903240Y-87964605D01*
X113901201Y-87963486D01*
X113602197Y-87799406D01*
X114107387Y-86958492D01*
X114114586Y-86953165D01*
X114119915Y-86953087D01*
X114272206Y-86986375D01*
G37*
%TD.AperFunction*%
%TD*%
%TA.AperFunction,Conductor*%
%TO.N,GND*%
G36*
X130740162Y-63988719D02*
G01*
X130918246Y-64122988D01*
X131057251Y-64243374D01*
X131082821Y-64265519D01*
X131082963Y-64265644D01*
X131237884Y-64404269D01*
X131237958Y-64404330D01*
X131237971Y-64404341D01*
X131386727Y-64526602D01*
X131387000Y-64526826D01*
X131534021Y-64621023D01*
X131682729Y-64674633D01*
X131836903Y-64675429D01*
X131837938Y-64675022D01*
X131837939Y-64675022D01*
X131999502Y-64611508D01*
X131999504Y-64611507D01*
X132000325Y-64611184D01*
X132105270Y-64527018D01*
X132168597Y-64476230D01*
X132177195Y-64473727D01*
X132184190Y-64477084D01*
X132521692Y-64814586D01*
X132525119Y-64822859D01*
X132521328Y-64831481D01*
X132382771Y-64958559D01*
X132332739Y-65004446D01*
X132331875Y-65005165D01*
X132151835Y-65140911D01*
X132150872Y-65141565D01*
X131984265Y-65242924D01*
X131983386Y-65243406D01*
X131828642Y-65319977D01*
X131826432Y-65321071D01*
X131825844Y-65321342D01*
X131674739Y-65385972D01*
X131674648Y-65386011D01*
X131525851Y-65448169D01*
X131525842Y-65448173D01*
X131525751Y-65448211D01*
X131525671Y-65448249D01*
X131525654Y-65448256D01*
X131471629Y-65473571D01*
X131375839Y-65518456D01*
X131375636Y-65518573D01*
X131375628Y-65518577D01*
X131270228Y-65579231D01*
X131221298Y-65607388D01*
X131058517Y-65725650D01*
X131058283Y-65725862D01*
X130890245Y-65878118D01*
X130881813Y-65881134D01*
X130876475Y-65879543D01*
X130487736Y-65651826D01*
X129375000Y-65000000D01*
X130544862Y-63875000D01*
X130740162Y-63988719D01*
G37*
%TD.AperFunction*%
%TD*%
%TA.AperFunction,Conductor*%
%TO.N,GND*%
G36*
X130625000Y-65000000D02*
G01*
X129988025Y-65612548D01*
X129958141Y-65641286D01*
X129461277Y-66119096D01*
X129452938Y-66122361D01*
X129447633Y-66120971D01*
X129444140Y-66119096D01*
X129225798Y-66001880D01*
X129225011Y-66001417D01*
X129033016Y-65877994D01*
X129032459Y-65877613D01*
X128866269Y-65756687D01*
X128866063Y-65756533D01*
X128714831Y-65641324D01*
X128714826Y-65641321D01*
X128714781Y-65641286D01*
X128680084Y-65616231D01*
X128567736Y-65535103D01*
X128567726Y-65535096D01*
X128567551Y-65534970D01*
X128453870Y-65465510D01*
X128413822Y-65441040D01*
X128413818Y-65441038D01*
X128413522Y-65440857D01*
X128241723Y-65362125D01*
X128041184Y-65301952D01*
X128040799Y-65301890D01*
X128040793Y-65301889D01*
X127801264Y-65263570D01*
X127801265Y-65263570D01*
X127800933Y-65263517D01*
X127800602Y-65263502D01*
X127800596Y-65263501D01*
X127521157Y-65250518D01*
X127513052Y-65246711D01*
X127510000Y-65238831D01*
X127510000Y-64761169D01*
X127513427Y-64752896D01*
X127521157Y-64749482D01*
X127800596Y-64736498D01*
X127800602Y-64736497D01*
X127800933Y-64736482D01*
X127824037Y-64732786D01*
X128040793Y-64698110D01*
X128040799Y-64698109D01*
X128041184Y-64698047D01*
X128241723Y-64637874D01*
X128413522Y-64559142D01*
X128567551Y-64465029D01*
X128567726Y-64464903D01*
X128567736Y-64464896D01*
X128714730Y-64358750D01*
X128714738Y-64358744D01*
X128714781Y-64358713D01*
X128714831Y-64358675D01*
X128866063Y-64243466D01*
X128866269Y-64243312D01*
X129032459Y-64122386D01*
X129033016Y-64122005D01*
X129102874Y-64077098D01*
X129102876Y-64077096D01*
X129225391Y-63998338D01*
X129455138Y-63875000D01*
X130625000Y-65000000D01*
G37*
%TD.AperFunction*%
%TD*%
%TA.AperFunction,Conductor*%
%TO.N,GND*%
G36*
X129590905Y-49188606D02*
G01*
X130476250Y-50040000D01*
X130000000Y-50497987D01*
X129998408Y-50499518D01*
X129590905Y-50891393D01*
X129582566Y-50894658D01*
X129577342Y-50893312D01*
X129413306Y-50806859D01*
X129412698Y-50806514D01*
X129267498Y-50718007D01*
X129267084Y-50717743D01*
X129139785Y-50632612D01*
X129139698Y-50632553D01*
X129022711Y-50552787D01*
X129022697Y-50552778D01*
X129022656Y-50552750D01*
X128950601Y-50507097D01*
X128908226Y-50480248D01*
X128908219Y-50480244D01*
X128908036Y-50480128D01*
X128907846Y-50480027D01*
X128907835Y-50480021D01*
X128788359Y-50416741D01*
X128788356Y-50416740D01*
X128788066Y-50416586D01*
X128654886Y-50363963D01*
X128500638Y-50324098D01*
X128417238Y-50312594D01*
X128317755Y-50298871D01*
X128317746Y-50298870D01*
X128317462Y-50298831D01*
X128317181Y-50298820D01*
X128317173Y-50298819D01*
X128150503Y-50292128D01*
X128108731Y-50290451D01*
X128100602Y-50286695D01*
X128097500Y-50278760D01*
X128097500Y-49801240D01*
X128100927Y-49792967D01*
X128108731Y-49789549D01*
X128131480Y-49788636D01*
X128317173Y-49781180D01*
X128317181Y-49781179D01*
X128317462Y-49781168D01*
X128317746Y-49781129D01*
X128317755Y-49781128D01*
X128417238Y-49767405D01*
X128500638Y-49755901D01*
X128654886Y-49716036D01*
X128788066Y-49663413D01*
X128788359Y-49663258D01*
X128907835Y-49599978D01*
X128907846Y-49599972D01*
X128908036Y-49599871D01*
X128908219Y-49599755D01*
X128908226Y-49599751D01*
X128956874Y-49568928D01*
X129022656Y-49527249D01*
X129022697Y-49527221D01*
X129022711Y-49527212D01*
X129139698Y-49447446D01*
X129139785Y-49447387D01*
X129267084Y-49362256D01*
X129267498Y-49361992D01*
X129412686Y-49273493D01*
X129413321Y-49273132D01*
X129577341Y-49186689D01*
X129586258Y-49185864D01*
X129590905Y-49188606D01*
G37*
%TD.AperFunction*%
%TD*%
%TA.AperFunction,Conductor*%
%TO.N,GND*%
G36*
X85704297Y-87020398D02*
G01*
X85874978Y-87184534D01*
X86305088Y-87598149D01*
X86399858Y-87689285D01*
X86403446Y-87697489D01*
X86400181Y-87705828D01*
X86397662Y-87707813D01*
X85498513Y-88234522D01*
X85489642Y-88235747D01*
X85484833Y-88233178D01*
X85384724Y-88144337D01*
X85384721Y-88144335D01*
X85384434Y-88144080D01*
X85283690Y-88075951D01*
X85283355Y-88075782D01*
X85283347Y-88075778D01*
X85219463Y-88043676D01*
X85187075Y-88027400D01*
X85092713Y-87991403D01*
X84998799Y-87960954D01*
X84998699Y-87960921D01*
X84962032Y-87948644D01*
X84903591Y-87929076D01*
X84902896Y-87928818D01*
X84804945Y-87888694D01*
X84803844Y-87888173D01*
X84700891Y-87832748D01*
X84699685Y-87832001D01*
X84589587Y-87754182D01*
X84588513Y-87753324D01*
X84537949Y-87707813D01*
X84477941Y-87653802D01*
X84474085Y-87645722D01*
X84477496Y-87636834D01*
X84638182Y-87476148D01*
X84646455Y-87472721D01*
X84653722Y-87475252D01*
X84760483Y-87559871D01*
X84760486Y-87559872D01*
X84761237Y-87560468D01*
X84762140Y-87560790D01*
X84762141Y-87560791D01*
X84845185Y-87590443D01*
X84867021Y-87598240D01*
X84868243Y-87598149D01*
X84964699Y-87590961D01*
X84965745Y-87590883D01*
X85060252Y-87547187D01*
X85153383Y-87475944D01*
X85153605Y-87475733D01*
X85247927Y-87385995D01*
X85247945Y-87385977D01*
X85247980Y-87385944D01*
X85248020Y-87385903D01*
X85248046Y-87385878D01*
X85346757Y-87286107D01*
X85346999Y-87285869D01*
X85400895Y-87234470D01*
X85452589Y-87185170D01*
X85453306Y-87184541D01*
X85568342Y-87091828D01*
X85569676Y-87090898D01*
X85621214Y-87060058D01*
X85690180Y-87018791D01*
X85699038Y-87017484D01*
X85704297Y-87020398D01*
G37*
%TD.AperFunction*%
%TD*%
%TA.AperFunction,Conductor*%
%TO.N,GND*%
G36*
X113644200Y-87020304D02*
G01*
X114351000Y-87700000D01*
X113901201Y-87963486D01*
X113899914Y-87964240D01*
X113899913Y-87964240D01*
X113438389Y-88234595D01*
X113429518Y-88235820D01*
X113424853Y-88233377D01*
X113322842Y-88145758D01*
X113217706Y-88082112D01*
X113217294Y-88081944D01*
X113217288Y-88081941D01*
X113114812Y-88040172D01*
X113114493Y-88040042D01*
X113114166Y-88039952D01*
X113114161Y-88039950D01*
X113055682Y-88023800D01*
X113011918Y-88011713D01*
X113011774Y-88011682D01*
X113011763Y-88011679D01*
X112908776Y-87989305D01*
X112908620Y-87989270D01*
X112803993Y-87965037D01*
X112803119Y-87964799D01*
X112695873Y-87931033D01*
X112694513Y-87930509D01*
X112583099Y-87879453D01*
X112581595Y-87878625D01*
X112464382Y-87802401D01*
X112463039Y-87801383D01*
X112347340Y-87699752D01*
X112343385Y-87691718D01*
X112346788Y-87682689D01*
X112684101Y-87345376D01*
X112692374Y-87341949D01*
X112699694Y-87344522D01*
X112741769Y-87378267D01*
X112793598Y-87419835D01*
X112794407Y-87420158D01*
X112794409Y-87420159D01*
X112887946Y-87457493D01*
X112888946Y-87457892D01*
X112890020Y-87457906D01*
X112890022Y-87457906D01*
X112978494Y-87459031D01*
X112978496Y-87459031D01*
X112979464Y-87459043D01*
X112980383Y-87458740D01*
X112980385Y-87458740D01*
X113032019Y-87441736D01*
X113067056Y-87430198D01*
X113067608Y-87429867D01*
X113067612Y-87429865D01*
X113153330Y-87378446D01*
X113153333Y-87378444D01*
X113153628Y-87378267D01*
X113196961Y-87344522D01*
X113240979Y-87310243D01*
X113240985Y-87310238D01*
X113241084Y-87310161D01*
X113241176Y-87310082D01*
X113241208Y-87310056D01*
X113331297Y-87232820D01*
X113331388Y-87232742D01*
X113425996Y-87153297D01*
X113426559Y-87152853D01*
X113527281Y-87078291D01*
X113528374Y-87077573D01*
X113630231Y-87018612D01*
X113639106Y-87017433D01*
X113644200Y-87020304D01*
G37*
%TD.AperFunction*%
%TD*%
%TA.AperFunction,Conductor*%
%TO.N,GND*%
G36*
X85704016Y-76860128D02*
G01*
X86016505Y-77160633D01*
X86283991Y-77417861D01*
X86402231Y-77531567D01*
X86405819Y-77539771D01*
X86402231Y-77548433D01*
X85704016Y-78219872D01*
X85695677Y-78223137D01*
X85690333Y-78221726D01*
X85556117Y-78149013D01*
X85555246Y-78148492D01*
X85437451Y-78070766D01*
X85436826Y-78070323D01*
X85335477Y-77993471D01*
X85335214Y-77993266D01*
X85287281Y-77954720D01*
X85243317Y-77919366D01*
X85241812Y-77918208D01*
X85154305Y-77850879D01*
X85154298Y-77850874D01*
X85154142Y-77850754D01*
X85060870Y-77789713D01*
X84956559Y-77738431D01*
X84834271Y-77699093D01*
X84783488Y-77690397D01*
X84687406Y-77673945D01*
X84687400Y-77673944D01*
X84687065Y-77673887D01*
X84686725Y-77673870D01*
X84686724Y-77673870D01*
X84619649Y-77670541D01*
X84519120Y-77665552D01*
X84511027Y-77661719D01*
X84508000Y-77653866D01*
X84508000Y-77426134D01*
X84511427Y-77417861D01*
X84519120Y-77414448D01*
X84588186Y-77411020D01*
X84686724Y-77406129D01*
X84686725Y-77406129D01*
X84687065Y-77406112D01*
X84687400Y-77406055D01*
X84687406Y-77406054D01*
X84783488Y-77389602D01*
X84834271Y-77380906D01*
X84956559Y-77341568D01*
X85060870Y-77290286D01*
X85154142Y-77229245D01*
X85154298Y-77229125D01*
X85154305Y-77229120D01*
X85243278Y-77160663D01*
X85243317Y-77160633D01*
X85287281Y-77125279D01*
X85335214Y-77086733D01*
X85335477Y-77086528D01*
X85436826Y-77009676D01*
X85437451Y-77009233D01*
X85555246Y-76931507D01*
X85556117Y-76930986D01*
X85690333Y-76858274D01*
X85699239Y-76857346D01*
X85704016Y-76860128D01*
G37*
%TD.AperFunction*%
%TD*%
%TA.AperFunction,Conductor*%
%TO.N,+12V*%
G36*
X130551911Y-96377884D02*
G01*
X130557768Y-96380280D01*
X130679582Y-96430114D01*
X130822003Y-96469562D01*
X130822286Y-96469611D01*
X130822288Y-96469611D01*
X130973993Y-96495630D01*
X130973996Y-96495630D01*
X130974221Y-96495669D01*
X131071393Y-96504603D01*
X131138163Y-96510743D01*
X131138174Y-96510744D01*
X131138330Y-96510758D01*
X131316424Y-96517151D01*
X131419171Y-96517162D01*
X131510494Y-96517172D01*
X131510599Y-96517172D01*
X131722950Y-96513144D01*
X131955519Y-96507391D01*
X131955570Y-96507411D01*
X131955570Y-96507390D01*
X132210552Y-96502234D01*
X132210559Y-96502234D01*
X132478207Y-96500094D01*
X132486507Y-96503455D01*
X132490000Y-96511794D01*
X132490000Y-98488206D01*
X132486573Y-98496479D01*
X132478207Y-98499906D01*
X132210559Y-98497765D01*
X132210552Y-98497765D01*
X131955570Y-98492609D01*
X131955570Y-98492587D01*
X131955519Y-98492608D01*
X131722950Y-98486855D01*
X131510599Y-98482827D01*
X131510494Y-98482827D01*
X131419171Y-98482837D01*
X131316424Y-98482848D01*
X131138330Y-98489241D01*
X131138174Y-98489255D01*
X131138163Y-98489256D01*
X131071393Y-98495396D01*
X130974221Y-98504330D01*
X130973996Y-98504369D01*
X130973993Y-98504369D01*
X130822288Y-98530388D01*
X130822286Y-98530388D01*
X130822003Y-98530437D01*
X130679582Y-98569885D01*
X130606301Y-98599865D01*
X130552007Y-98622077D01*
X130551911Y-98622116D01*
X130542956Y-98622077D01*
X130539371Y-98619720D01*
X130419421Y-98504369D01*
X129383769Y-97508433D01*
X129380181Y-97500229D01*
X129383769Y-97491567D01*
X130539372Y-96380280D01*
X130547710Y-96377015D01*
X130551911Y-96377884D01*
G37*
%TD.AperFunction*%
%TD*%
%TA.AperFunction,Conductor*%
%TO.N,+12V*%
G36*
X130502543Y-69576522D02*
G01*
X131173156Y-69589632D01*
X131181360Y-69593220D01*
X131183715Y-69596803D01*
X131237060Y-69724013D01*
X131309873Y-69852615D01*
X131399047Y-69978710D01*
X131504420Y-70105421D01*
X131625831Y-70235873D01*
X131763119Y-70373190D01*
X131763146Y-70373216D01*
X131916121Y-70520496D01*
X132084639Y-70680879D01*
X132084677Y-70680915D01*
X132268567Y-70857516D01*
X132268670Y-70857616D01*
X132459396Y-71045316D01*
X132462889Y-71053561D01*
X132459462Y-71061928D01*
X131061928Y-72459462D01*
X131053655Y-72462889D01*
X131045316Y-72459396D01*
X130857616Y-72268670D01*
X130857516Y-72268567D01*
X130680915Y-72084677D01*
X130680879Y-72084639D01*
X130520496Y-71916121D01*
X130373216Y-71763146D01*
X130373190Y-71763119D01*
X130235873Y-71625831D01*
X130105421Y-71504420D01*
X129978710Y-71399047D01*
X129852615Y-71309873D01*
X129724013Y-71237060D01*
X129723697Y-71236928D01*
X129723694Y-71236926D01*
X129686153Y-71221184D01*
X129596804Y-71183716D01*
X129590501Y-71177357D01*
X129589632Y-71173156D01*
X129558297Y-69570224D01*
X129561562Y-69561885D01*
X129570224Y-69558297D01*
X130502543Y-69576522D01*
G37*
%TD.AperFunction*%
%TD*%
M02*
