%TF.GenerationSoftware,KiCad,Pcbnew,6.0.7-f9a2dced07~116~ubuntu22.04.1*%
%TF.CreationDate,2022-09-17T16:40:37+08:00*%
%TF.ProjectId,WLED-12V,574c4544-2d31-4325-962e-6b696361645f,rev?*%
%TF.SameCoordinates,Original*%
%TF.FileFunction,Legend,Top*%
%TF.FilePolarity,Positive*%
%FSLAX46Y46*%
G04 Gerber Fmt 4.6, Leading zero omitted, Abs format (unit mm)*
G04 Created by KiCad (PCBNEW 6.0.7-f9a2dced07~116~ubuntu22.04.1) date 2022-09-17 16:40:37*
%MOMM*%
%LPD*%
G01*
G04 APERTURE LIST*
%ADD10C,0.150000*%
%ADD11C,0.120000*%
%ADD12C,1.524000*%
G04 APERTURE END LIST*
D10*
%TO.C,C1*%
X121177142Y-47666666D02*
X121224761Y-47714285D01*
X121272380Y-47857142D01*
X121272380Y-47952380D01*
X121224761Y-48095238D01*
X121129523Y-48190476D01*
X121034285Y-48238095D01*
X120843809Y-48285714D01*
X120700952Y-48285714D01*
X120510476Y-48238095D01*
X120415238Y-48190476D01*
X120320000Y-48095238D01*
X120272380Y-47952380D01*
X120272380Y-47857142D01*
X120320000Y-47714285D01*
X120367619Y-47666666D01*
X121272380Y-46714285D02*
X121272380Y-47285714D01*
X121272380Y-47000000D02*
X120272380Y-47000000D01*
X120415238Y-47095238D01*
X120510476Y-47190476D01*
X120558095Y-47285714D01*
%TO.C,U1*%
X99238095Y-74452380D02*
X99238095Y-75261904D01*
X99285714Y-75357142D01*
X99333333Y-75404761D01*
X99428571Y-75452380D01*
X99619047Y-75452380D01*
X99714285Y-75404761D01*
X99761904Y-75357142D01*
X99809523Y-75261904D01*
X99809523Y-74452380D01*
X100809523Y-75452380D02*
X100238095Y-75452380D01*
X100523809Y-75452380D02*
X100523809Y-74452380D01*
X100428571Y-74595238D01*
X100333333Y-74690476D01*
X100238095Y-74738095D01*
X110668095Y-66832380D02*
X111287142Y-66832380D01*
X110953809Y-67213333D01*
X111096666Y-67213333D01*
X111191904Y-67260952D01*
X111239523Y-67308571D01*
X111287142Y-67403809D01*
X111287142Y-67641904D01*
X111239523Y-67737142D01*
X111191904Y-67784761D01*
X111096666Y-67832380D01*
X110810952Y-67832380D01*
X110715714Y-67784761D01*
X110668095Y-67737142D01*
X111572857Y-66832380D02*
X111906190Y-67832380D01*
X112239523Y-66832380D01*
X110691904Y-62752380D02*
X110691904Y-61752380D01*
X110930000Y-61752380D01*
X111072857Y-61800000D01*
X111168095Y-61895238D01*
X111215714Y-61990476D01*
X111263333Y-62180952D01*
X111263333Y-62323809D01*
X111215714Y-62514285D01*
X111168095Y-62609523D01*
X111072857Y-62704761D01*
X110930000Y-62752380D01*
X110691904Y-62752380D01*
X111596666Y-61752380D02*
X112215714Y-61752380D01*
X111882380Y-62133333D01*
X112025238Y-62133333D01*
X112120476Y-62180952D01*
X112168095Y-62228571D01*
X112215714Y-62323809D01*
X112215714Y-62561904D01*
X112168095Y-62657142D01*
X112120476Y-62704761D01*
X112025238Y-62752380D01*
X111739523Y-62752380D01*
X111644285Y-62704761D01*
X111596666Y-62657142D01*
X110691904Y-55132380D02*
X110691904Y-54132380D01*
X110930000Y-54132380D01*
X111072857Y-54180000D01*
X111168095Y-54275238D01*
X111215714Y-54370476D01*
X111263333Y-54560952D01*
X111263333Y-54703809D01*
X111215714Y-54894285D01*
X111168095Y-54989523D01*
X111072857Y-55084761D01*
X110930000Y-55132380D01*
X110691904Y-55132380D01*
X111882380Y-54132380D02*
X111977619Y-54132380D01*
X112072857Y-54180000D01*
X112120476Y-54227619D01*
X112168095Y-54322857D01*
X112215714Y-54513333D01*
X112215714Y-54751428D01*
X112168095Y-54941904D01*
X112120476Y-55037142D01*
X112072857Y-55084761D01*
X111977619Y-55132380D01*
X111882380Y-55132380D01*
X111787142Y-55084761D01*
X111739523Y-55037142D01*
X111691904Y-54941904D01*
X111644285Y-54751428D01*
X111644285Y-54513333D01*
X111691904Y-54322857D01*
X111739523Y-54227619D01*
X111787142Y-54180000D01*
X111882380Y-54132380D01*
X110691904Y-77992380D02*
X110691904Y-76992380D01*
X110930000Y-76992380D01*
X111072857Y-77040000D01*
X111168095Y-77135238D01*
X111215714Y-77230476D01*
X111263333Y-77420952D01*
X111263333Y-77563809D01*
X111215714Y-77754285D01*
X111168095Y-77849523D01*
X111072857Y-77944761D01*
X110930000Y-77992380D01*
X110691904Y-77992380D01*
X111596666Y-76992380D02*
X112263333Y-76992380D01*
X111834761Y-77992380D01*
X88022380Y-85612380D02*
X87689047Y-85136190D01*
X87450952Y-85612380D02*
X87450952Y-84612380D01*
X87831904Y-84612380D01*
X87927142Y-84660000D01*
X87974761Y-84707619D01*
X88022380Y-84802857D01*
X88022380Y-84945714D01*
X87974761Y-85040952D01*
X87927142Y-85088571D01*
X87831904Y-85136190D01*
X87450952Y-85136190D01*
X88403333Y-85564761D02*
X88546190Y-85612380D01*
X88784285Y-85612380D01*
X88879523Y-85564761D01*
X88927142Y-85517142D01*
X88974761Y-85421904D01*
X88974761Y-85326666D01*
X88927142Y-85231428D01*
X88879523Y-85183809D01*
X88784285Y-85136190D01*
X88593809Y-85088571D01*
X88498571Y-85040952D01*
X88450952Y-84993333D01*
X88403333Y-84898095D01*
X88403333Y-84802857D01*
X88450952Y-84707619D01*
X88498571Y-84660000D01*
X88593809Y-84612380D01*
X88831904Y-84612380D01*
X88974761Y-84660000D01*
X89260476Y-84612380D02*
X89831904Y-84612380D01*
X89546190Y-85612380D02*
X89546190Y-84612380D01*
X110668095Y-84612380D02*
X111239523Y-84612380D01*
X110953809Y-85612380D02*
X110953809Y-84612380D01*
X111477619Y-84612380D02*
X112144285Y-85612380D01*
X112144285Y-84612380D02*
X111477619Y-85612380D01*
X87808095Y-67784761D02*
X87950952Y-67832380D01*
X88189047Y-67832380D01*
X88284285Y-67784761D01*
X88331904Y-67737142D01*
X88379523Y-67641904D01*
X88379523Y-67546666D01*
X88331904Y-67451428D01*
X88284285Y-67403809D01*
X88189047Y-67356190D01*
X87998571Y-67308571D01*
X87903333Y-67260952D01*
X87855714Y-67213333D01*
X87808095Y-67118095D01*
X87808095Y-67022857D01*
X87855714Y-66927619D01*
X87903333Y-66880000D01*
X87998571Y-66832380D01*
X88236666Y-66832380D01*
X88379523Y-66880000D01*
X89331904Y-67832380D02*
X88760476Y-67832380D01*
X89046190Y-67832380D02*
X89046190Y-66832380D01*
X88950952Y-66975238D01*
X88855714Y-67070476D01*
X88760476Y-67118095D01*
X88831904Y-77040000D02*
X88736666Y-76992380D01*
X88593809Y-76992380D01*
X88450952Y-77040000D01*
X88355714Y-77135238D01*
X88308095Y-77230476D01*
X88260476Y-77420952D01*
X88260476Y-77563809D01*
X88308095Y-77754285D01*
X88355714Y-77849523D01*
X88450952Y-77944761D01*
X88593809Y-77992380D01*
X88689047Y-77992380D01*
X88831904Y-77944761D01*
X88879523Y-77897142D01*
X88879523Y-77563809D01*
X88689047Y-77563809D01*
X110691904Y-80532380D02*
X110691904Y-79532380D01*
X110930000Y-79532380D01*
X111072857Y-79580000D01*
X111168095Y-79675238D01*
X111215714Y-79770476D01*
X111263333Y-79960952D01*
X111263333Y-80103809D01*
X111215714Y-80294285D01*
X111168095Y-80389523D01*
X111072857Y-80484761D01*
X110930000Y-80532380D01*
X110691904Y-80532380D01*
X111834761Y-79960952D02*
X111739523Y-79913333D01*
X111691904Y-79865714D01*
X111644285Y-79770476D01*
X111644285Y-79722857D01*
X111691904Y-79627619D01*
X111739523Y-79580000D01*
X111834761Y-79532380D01*
X112025238Y-79532380D01*
X112120476Y-79580000D01*
X112168095Y-79627619D01*
X112215714Y-79722857D01*
X112215714Y-79770476D01*
X112168095Y-79865714D01*
X112120476Y-79913333D01*
X112025238Y-79960952D01*
X111834761Y-79960952D01*
X111739523Y-80008571D01*
X111691904Y-80056190D01*
X111644285Y-80151428D01*
X111644285Y-80341904D01*
X111691904Y-80437142D01*
X111739523Y-80484761D01*
X111834761Y-80532380D01*
X112025238Y-80532380D01*
X112120476Y-80484761D01*
X112168095Y-80437142D01*
X112215714Y-80341904D01*
X112215714Y-80151428D01*
X112168095Y-80056190D01*
X112120476Y-80008571D01*
X112025238Y-79960952D01*
X111691904Y-87200000D02*
X111596666Y-87152380D01*
X111453809Y-87152380D01*
X111310952Y-87200000D01*
X111215714Y-87295238D01*
X111168095Y-87390476D01*
X111120476Y-87580952D01*
X111120476Y-87723809D01*
X111168095Y-87914285D01*
X111215714Y-88009523D01*
X111310952Y-88104761D01*
X111453809Y-88152380D01*
X111549047Y-88152380D01*
X111691904Y-88104761D01*
X111739523Y-88057142D01*
X111739523Y-87723809D01*
X111549047Y-87723809D01*
X110691904Y-65292380D02*
X110691904Y-64292380D01*
X110930000Y-64292380D01*
X111072857Y-64340000D01*
X111168095Y-64435238D01*
X111215714Y-64530476D01*
X111263333Y-64720952D01*
X111263333Y-64863809D01*
X111215714Y-65054285D01*
X111168095Y-65149523D01*
X111072857Y-65244761D01*
X110930000Y-65292380D01*
X110691904Y-65292380D01*
X112120476Y-64625714D02*
X112120476Y-65292380D01*
X111882380Y-64244761D02*
X111644285Y-64959047D01*
X112263333Y-64959047D01*
X110691904Y-60212380D02*
X110691904Y-59212380D01*
X110930000Y-59212380D01*
X111072857Y-59260000D01*
X111168095Y-59355238D01*
X111215714Y-59450476D01*
X111263333Y-59640952D01*
X111263333Y-59783809D01*
X111215714Y-59974285D01*
X111168095Y-60069523D01*
X111072857Y-60164761D01*
X110930000Y-60212380D01*
X110691904Y-60212380D01*
X111644285Y-59307619D02*
X111691904Y-59260000D01*
X111787142Y-59212380D01*
X112025238Y-59212380D01*
X112120476Y-59260000D01*
X112168095Y-59307619D01*
X112215714Y-59402857D01*
X112215714Y-59498095D01*
X112168095Y-59640952D01*
X111596666Y-60212380D01*
X112215714Y-60212380D01*
X111691904Y-69420000D02*
X111596666Y-69372380D01*
X111453809Y-69372380D01*
X111310952Y-69420000D01*
X111215714Y-69515238D01*
X111168095Y-69610476D01*
X111120476Y-69800952D01*
X111120476Y-69943809D01*
X111168095Y-70134285D01*
X111215714Y-70229523D01*
X111310952Y-70324761D01*
X111453809Y-70372380D01*
X111549047Y-70372380D01*
X111691904Y-70324761D01*
X111739523Y-70277142D01*
X111739523Y-69943809D01*
X111549047Y-69943809D01*
X87808095Y-62704761D02*
X87950952Y-62752380D01*
X88189047Y-62752380D01*
X88284285Y-62704761D01*
X88331904Y-62657142D01*
X88379523Y-62561904D01*
X88379523Y-62466666D01*
X88331904Y-62371428D01*
X88284285Y-62323809D01*
X88189047Y-62276190D01*
X87998571Y-62228571D01*
X87903333Y-62180952D01*
X87855714Y-62133333D01*
X87808095Y-62038095D01*
X87808095Y-61942857D01*
X87855714Y-61847619D01*
X87903333Y-61800000D01*
X87998571Y-61752380D01*
X88236666Y-61752380D01*
X88379523Y-61800000D01*
X88712857Y-61752380D02*
X89331904Y-61752380D01*
X88998571Y-62133333D01*
X89141428Y-62133333D01*
X89236666Y-62180952D01*
X89284285Y-62228571D01*
X89331904Y-62323809D01*
X89331904Y-62561904D01*
X89284285Y-62657142D01*
X89236666Y-62704761D01*
X89141428Y-62752380D01*
X88855714Y-62752380D01*
X88760476Y-62704761D01*
X88712857Y-62657142D01*
X87760476Y-72864761D02*
X87903333Y-72912380D01*
X88141428Y-72912380D01*
X88236666Y-72864761D01*
X88284285Y-72817142D01*
X88331904Y-72721904D01*
X88331904Y-72626666D01*
X88284285Y-72531428D01*
X88236666Y-72483809D01*
X88141428Y-72436190D01*
X87950952Y-72388571D01*
X87855714Y-72340952D01*
X87808095Y-72293333D01*
X87760476Y-72198095D01*
X87760476Y-72102857D01*
X87808095Y-72007619D01*
X87855714Y-71960000D01*
X87950952Y-71912380D01*
X88189047Y-71912380D01*
X88331904Y-71960000D01*
X88950952Y-71912380D02*
X89141428Y-71912380D01*
X89236666Y-71960000D01*
X89331904Y-72055238D01*
X89379523Y-72245714D01*
X89379523Y-72579047D01*
X89331904Y-72769523D01*
X89236666Y-72864761D01*
X89141428Y-72912380D01*
X88950952Y-72912380D01*
X88855714Y-72864761D01*
X88760476Y-72769523D01*
X88712857Y-72579047D01*
X88712857Y-72245714D01*
X88760476Y-72055238D01*
X88855714Y-71960000D01*
X88950952Y-71912380D01*
X87831904Y-82548571D02*
X88165238Y-82548571D01*
X88308095Y-83072380D02*
X87831904Y-83072380D01*
X87831904Y-82072380D01*
X88308095Y-82072380D01*
X88736666Y-83072380D02*
X88736666Y-82072380D01*
X89308095Y-83072380D01*
X89308095Y-82072380D01*
X87808095Y-79532380D02*
X88427142Y-79532380D01*
X88093809Y-79913333D01*
X88236666Y-79913333D01*
X88331904Y-79960952D01*
X88379523Y-80008571D01*
X88427142Y-80103809D01*
X88427142Y-80341904D01*
X88379523Y-80437142D01*
X88331904Y-80484761D01*
X88236666Y-80532380D01*
X87950952Y-80532380D01*
X87855714Y-80484761D01*
X87808095Y-80437142D01*
X88712857Y-79532380D02*
X89046190Y-80532380D01*
X89379523Y-79532380D01*
X88831904Y-87200000D02*
X88736666Y-87152380D01*
X88593809Y-87152380D01*
X88450952Y-87200000D01*
X88355714Y-87295238D01*
X88308095Y-87390476D01*
X88260476Y-87580952D01*
X88260476Y-87723809D01*
X88308095Y-87914285D01*
X88355714Y-88009523D01*
X88450952Y-88104761D01*
X88593809Y-88152380D01*
X88689047Y-88152380D01*
X88831904Y-88104761D01*
X88879523Y-88057142D01*
X88879523Y-87723809D01*
X88689047Y-87723809D01*
X87784285Y-70324761D02*
X87927142Y-70372380D01*
X88165238Y-70372380D01*
X88260476Y-70324761D01*
X88308095Y-70277142D01*
X88355714Y-70181904D01*
X88355714Y-70086666D01*
X88308095Y-69991428D01*
X88260476Y-69943809D01*
X88165238Y-69896190D01*
X87974761Y-69848571D01*
X87879523Y-69800952D01*
X87831904Y-69753333D01*
X87784285Y-69658095D01*
X87784285Y-69562857D01*
X87831904Y-69467619D01*
X87879523Y-69420000D01*
X87974761Y-69372380D01*
X88212857Y-69372380D01*
X88355714Y-69420000D01*
X89355714Y-70277142D02*
X89308095Y-70324761D01*
X89165238Y-70372380D01*
X89070000Y-70372380D01*
X88927142Y-70324761D01*
X88831904Y-70229523D01*
X88784285Y-70134285D01*
X88736666Y-69943809D01*
X88736666Y-69800952D01*
X88784285Y-69610476D01*
X88831904Y-69515238D01*
X88927142Y-69420000D01*
X89070000Y-69372380D01*
X89165238Y-69372380D01*
X89308095Y-69420000D01*
X89355714Y-69467619D01*
X110691904Y-57672380D02*
X110691904Y-56672380D01*
X110930000Y-56672380D01*
X111072857Y-56720000D01*
X111168095Y-56815238D01*
X111215714Y-56910476D01*
X111263333Y-57100952D01*
X111263333Y-57243809D01*
X111215714Y-57434285D01*
X111168095Y-57529523D01*
X111072857Y-57624761D01*
X110930000Y-57672380D01*
X110691904Y-57672380D01*
X112215714Y-57672380D02*
X111644285Y-57672380D01*
X111930000Y-57672380D02*
X111930000Y-56672380D01*
X111834761Y-56815238D01*
X111739523Y-56910476D01*
X111644285Y-56958095D01*
X110691904Y-75452380D02*
X110691904Y-74452380D01*
X110930000Y-74452380D01*
X111072857Y-74500000D01*
X111168095Y-74595238D01*
X111215714Y-74690476D01*
X111263333Y-74880952D01*
X111263333Y-75023809D01*
X111215714Y-75214285D01*
X111168095Y-75309523D01*
X111072857Y-75404761D01*
X110930000Y-75452380D01*
X110691904Y-75452380D01*
X112120476Y-74452380D02*
X111930000Y-74452380D01*
X111834761Y-74500000D01*
X111787142Y-74547619D01*
X111691904Y-74690476D01*
X111644285Y-74880952D01*
X111644285Y-75261904D01*
X111691904Y-75357142D01*
X111739523Y-75404761D01*
X111834761Y-75452380D01*
X112025238Y-75452380D01*
X112120476Y-75404761D01*
X112168095Y-75357142D01*
X112215714Y-75261904D01*
X112215714Y-75023809D01*
X112168095Y-74928571D01*
X112120476Y-74880952D01*
X112025238Y-74833333D01*
X111834761Y-74833333D01*
X111739523Y-74880952D01*
X111691904Y-74928571D01*
X111644285Y-75023809D01*
X88831904Y-56720000D02*
X88736666Y-56672380D01*
X88593809Y-56672380D01*
X88450952Y-56720000D01*
X88355714Y-56815238D01*
X88308095Y-56910476D01*
X88260476Y-57100952D01*
X88260476Y-57243809D01*
X88308095Y-57434285D01*
X88355714Y-57529523D01*
X88450952Y-57624761D01*
X88593809Y-57672380D01*
X88689047Y-57672380D01*
X88831904Y-57624761D01*
X88879523Y-57577142D01*
X88879523Y-57243809D01*
X88689047Y-57243809D01*
X87474761Y-89692380D02*
X87808095Y-90692380D01*
X88141428Y-89692380D01*
X88474761Y-90692380D02*
X88474761Y-89692380D01*
X88950952Y-90692380D02*
X88950952Y-89692380D01*
X89522380Y-90692380D01*
X89522380Y-89692380D01*
X87712857Y-59212380D02*
X88046190Y-60212380D01*
X88379523Y-59212380D01*
X88712857Y-59212380D02*
X88712857Y-60021904D01*
X88760476Y-60117142D01*
X88808095Y-60164761D01*
X88903333Y-60212380D01*
X89093809Y-60212380D01*
X89189047Y-60164761D01*
X89236666Y-60117142D01*
X89284285Y-60021904D01*
X89284285Y-59212380D01*
X87808095Y-65244761D02*
X87950952Y-65292380D01*
X88189047Y-65292380D01*
X88284285Y-65244761D01*
X88331904Y-65197142D01*
X88379523Y-65101904D01*
X88379523Y-65006666D01*
X88331904Y-64911428D01*
X88284285Y-64863809D01*
X88189047Y-64816190D01*
X87998571Y-64768571D01*
X87903333Y-64720952D01*
X87855714Y-64673333D01*
X87808095Y-64578095D01*
X87808095Y-64482857D01*
X87855714Y-64387619D01*
X87903333Y-64340000D01*
X87998571Y-64292380D01*
X88236666Y-64292380D01*
X88379523Y-64340000D01*
X88760476Y-64387619D02*
X88808095Y-64340000D01*
X88903333Y-64292380D01*
X89141428Y-64292380D01*
X89236666Y-64340000D01*
X89284285Y-64387619D01*
X89331904Y-64482857D01*
X89331904Y-64578095D01*
X89284285Y-64720952D01*
X88712857Y-65292380D01*
X89331904Y-65292380D01*
X111263333Y-83072380D02*
X110930000Y-82596190D01*
X110691904Y-83072380D02*
X110691904Y-82072380D01*
X111072857Y-82072380D01*
X111168095Y-82120000D01*
X111215714Y-82167619D01*
X111263333Y-82262857D01*
X111263333Y-82405714D01*
X111215714Y-82500952D01*
X111168095Y-82548571D01*
X111072857Y-82596190D01*
X110691904Y-82596190D01*
X111596666Y-82072380D02*
X112263333Y-83072380D01*
X112263333Y-82072380D02*
X111596666Y-83072380D01*
X87855714Y-54846666D02*
X88331904Y-54846666D01*
X87760476Y-55132380D02*
X88093809Y-54132380D01*
X88427142Y-55132380D01*
X88950952Y-54132380D02*
X89046190Y-54132380D01*
X89141428Y-54180000D01*
X89189047Y-54227619D01*
X89236666Y-54322857D01*
X89284285Y-54513333D01*
X89284285Y-54751428D01*
X89236666Y-54941904D01*
X89189047Y-55037142D01*
X89141428Y-55084761D01*
X89046190Y-55132380D01*
X88950952Y-55132380D01*
X88855714Y-55084761D01*
X88808095Y-55037142D01*
X88760476Y-54941904D01*
X88712857Y-54751428D01*
X88712857Y-54513333D01*
X88760476Y-54322857D01*
X88808095Y-54227619D01*
X88855714Y-54180000D01*
X88950952Y-54132380D01*
X110691904Y-72912380D02*
X110691904Y-71912380D01*
X110930000Y-71912380D01*
X111072857Y-71960000D01*
X111168095Y-72055238D01*
X111215714Y-72150476D01*
X111263333Y-72340952D01*
X111263333Y-72483809D01*
X111215714Y-72674285D01*
X111168095Y-72769523D01*
X111072857Y-72864761D01*
X110930000Y-72912380D01*
X110691904Y-72912380D01*
X112168095Y-71912380D02*
X111691904Y-71912380D01*
X111644285Y-72388571D01*
X111691904Y-72340952D01*
X111787142Y-72293333D01*
X112025238Y-72293333D01*
X112120476Y-72340952D01*
X112168095Y-72388571D01*
X112215714Y-72483809D01*
X112215714Y-72721904D01*
X112168095Y-72817142D01*
X112120476Y-72864761D01*
X112025238Y-72912380D01*
X111787142Y-72912380D01*
X111691904Y-72864761D01*
X111644285Y-72817142D01*
X87784285Y-75404761D02*
X87927142Y-75452380D01*
X88165238Y-75452380D01*
X88260476Y-75404761D01*
X88308095Y-75357142D01*
X88355714Y-75261904D01*
X88355714Y-75166666D01*
X88308095Y-75071428D01*
X88260476Y-75023809D01*
X88165238Y-74976190D01*
X87974761Y-74928571D01*
X87879523Y-74880952D01*
X87831904Y-74833333D01*
X87784285Y-74738095D01*
X87784285Y-74642857D01*
X87831904Y-74547619D01*
X87879523Y-74500000D01*
X87974761Y-74452380D01*
X88212857Y-74452380D01*
X88355714Y-74500000D01*
X88784285Y-75452380D02*
X88784285Y-74452380D01*
X89355714Y-75452380D02*
X88927142Y-74880952D01*
X89355714Y-74452380D02*
X88784285Y-75023809D01*
X110668095Y-89692380D02*
X111287142Y-89692380D01*
X110953809Y-90073333D01*
X111096666Y-90073333D01*
X111191904Y-90120952D01*
X111239523Y-90168571D01*
X111287142Y-90263809D01*
X111287142Y-90501904D01*
X111239523Y-90597142D01*
X111191904Y-90644761D01*
X111096666Y-90692380D01*
X110810952Y-90692380D01*
X110715714Y-90644761D01*
X110668095Y-90597142D01*
X111572857Y-89692380D02*
X111906190Y-90692380D01*
X112239523Y-89692380D01*
%TO.C,R1*%
X102333333Y-62102380D02*
X102000000Y-61626190D01*
X101761904Y-62102380D02*
X101761904Y-61102380D01*
X102142857Y-61102380D01*
X102238095Y-61150000D01*
X102285714Y-61197619D01*
X102333333Y-61292857D01*
X102333333Y-61435714D01*
X102285714Y-61530952D01*
X102238095Y-61578571D01*
X102142857Y-61626190D01*
X101761904Y-61626190D01*
X103285714Y-62102380D02*
X102714285Y-62102380D01*
X103000000Y-62102380D02*
X103000000Y-61102380D01*
X102904761Y-61245238D01*
X102809523Y-61340476D01*
X102714285Y-61388095D01*
%TO.C,J1*%
X124392380Y-67833333D02*
X125106666Y-67833333D01*
X125249523Y-67880952D01*
X125344761Y-67976190D01*
X125392380Y-68119047D01*
X125392380Y-68214285D01*
X125392380Y-66833333D02*
X125392380Y-67404761D01*
X125392380Y-67119047D02*
X124392380Y-67119047D01*
X124535238Y-67214285D01*
X124630476Y-67309523D01*
X124678095Y-67404761D01*
%TO.C,J2*%
X124392380Y-92833333D02*
X125106666Y-92833333D01*
X125249523Y-92880952D01*
X125344761Y-92976190D01*
X125392380Y-93119047D01*
X125392380Y-93214285D01*
X124487619Y-92404761D02*
X124440000Y-92357142D01*
X124392380Y-92261904D01*
X124392380Y-92023809D01*
X124440000Y-91928571D01*
X124487619Y-91880952D01*
X124582857Y-91833333D01*
X124678095Y-91833333D01*
X124820952Y-91880952D01*
X125392380Y-92452380D01*
X125392380Y-91833333D01*
%TO.C,U2*%
X133722380Y-50801904D02*
X134531904Y-50801904D01*
X134627142Y-50754285D01*
X134674761Y-50706666D01*
X134722380Y-50611428D01*
X134722380Y-50420952D01*
X134674761Y-50325714D01*
X134627142Y-50278095D01*
X134531904Y-50230476D01*
X133722380Y-50230476D01*
X133817619Y-49801904D02*
X133770000Y-49754285D01*
X133722380Y-49659047D01*
X133722380Y-49420952D01*
X133770000Y-49325714D01*
X133817619Y-49278095D01*
X133912857Y-49230476D01*
X134008095Y-49230476D01*
X134150952Y-49278095D01*
X134722380Y-49849523D01*
X134722380Y-49230476D01*
%TO.C,U3*%
X101738095Y-66992380D02*
X101738095Y-67801904D01*
X101785714Y-67897142D01*
X101833333Y-67944761D01*
X101928571Y-67992380D01*
X102119047Y-67992380D01*
X102214285Y-67944761D01*
X102261904Y-67897142D01*
X102309523Y-67801904D01*
X102309523Y-66992380D01*
X102690476Y-66992380D02*
X103309523Y-66992380D01*
X102976190Y-67373333D01*
X103119047Y-67373333D01*
X103214285Y-67420952D01*
X103261904Y-67468571D01*
X103309523Y-67563809D01*
X103309523Y-67801904D01*
X103261904Y-67897142D01*
X103214285Y-67944761D01*
X103119047Y-67992380D01*
X102833333Y-67992380D01*
X102738095Y-67944761D01*
X102690476Y-67897142D01*
%TO.C,C2*%
X121177142Y-54216666D02*
X121224761Y-54264285D01*
X121272380Y-54407142D01*
X121272380Y-54502380D01*
X121224761Y-54645238D01*
X121129523Y-54740476D01*
X121034285Y-54788095D01*
X120843809Y-54835714D01*
X120700952Y-54835714D01*
X120510476Y-54788095D01*
X120415238Y-54740476D01*
X120320000Y-54645238D01*
X120272380Y-54502380D01*
X120272380Y-54407142D01*
X120320000Y-54264285D01*
X120367619Y-54216666D01*
X120367619Y-53835714D02*
X120320000Y-53788095D01*
X120272380Y-53692857D01*
X120272380Y-53454761D01*
X120320000Y-53359523D01*
X120367619Y-53311904D01*
X120462857Y-53264285D01*
X120558095Y-53264285D01*
X120700952Y-53311904D01*
X121272380Y-53883333D01*
X121272380Y-53264285D01*
%TO.C,C4*%
X97677142Y-70166666D02*
X97724761Y-70214285D01*
X97772380Y-70357142D01*
X97772380Y-70452380D01*
X97724761Y-70595238D01*
X97629523Y-70690476D01*
X97534285Y-70738095D01*
X97343809Y-70785714D01*
X97200952Y-70785714D01*
X97010476Y-70738095D01*
X96915238Y-70690476D01*
X96820000Y-70595238D01*
X96772380Y-70452380D01*
X96772380Y-70357142D01*
X96820000Y-70214285D01*
X96867619Y-70166666D01*
X97105714Y-69309523D02*
X97772380Y-69309523D01*
X96724761Y-69547619D02*
X97439047Y-69785714D01*
X97439047Y-69166666D01*
%TO.C,C3*%
X103677142Y-70166666D02*
X103724761Y-70214285D01*
X103772380Y-70357142D01*
X103772380Y-70452380D01*
X103724761Y-70595238D01*
X103629523Y-70690476D01*
X103534285Y-70738095D01*
X103343809Y-70785714D01*
X103200952Y-70785714D01*
X103010476Y-70738095D01*
X102915238Y-70690476D01*
X102820000Y-70595238D01*
X102772380Y-70452380D01*
X102772380Y-70357142D01*
X102820000Y-70214285D01*
X102867619Y-70166666D01*
X102772380Y-69833333D02*
X102772380Y-69214285D01*
X103153333Y-69547619D01*
X103153333Y-69404761D01*
X103200952Y-69309523D01*
X103248571Y-69261904D01*
X103343809Y-69214285D01*
X103581904Y-69214285D01*
X103677142Y-69261904D01*
X103724761Y-69309523D01*
X103772380Y-69404761D01*
X103772380Y-69690476D01*
X103724761Y-69785714D01*
X103677142Y-69833333D01*
D11*
%TO.C,C1*%
X123235000Y-47761252D02*
X123235000Y-47238748D01*
X121765000Y-47761252D02*
X121765000Y-47238748D01*
D10*
%TO.C,U1*%
X115250000Y-101500000D02*
X115250000Y-44500000D01*
X84750000Y-101500000D02*
X115250000Y-101500000D01*
X115250000Y-44500000D02*
X85250000Y-44500000D01*
X84750000Y-44500000D02*
X84750000Y-101500000D01*
X85250000Y-44500000D02*
X84750000Y-44500000D01*
X89096051Y-47060000D02*
G75*
G03*
X89096051Y-47060000I-1796051J0D01*
G01*
X114496051Y-47060000D02*
G75*
G03*
X114496051Y-47060000I-1796051J0D01*
G01*
X114496051Y-99130000D02*
G75*
G03*
X114496051Y-99130000I-1796051J0D01*
G01*
X89096051Y-99130000D02*
G75*
G03*
X89096051Y-99130000I-1796051J0D01*
G01*
D11*
%TO.C,R1*%
X102727064Y-60735000D02*
X102272936Y-60735000D01*
X102727064Y-59265000D02*
X102272936Y-59265000D01*
%TO.C,J1*%
X132060000Y-72800000D02*
X134300000Y-72800000D01*
X130976000Y-66180000D02*
X131069000Y-66274000D01*
X128000000Y-72560000D02*
X128000000Y-62440000D01*
X128931000Y-63725000D02*
X129024000Y-63819000D01*
X125940000Y-62440000D02*
X134060000Y-62440000D01*
X134060000Y-72560000D02*
X134060000Y-62440000D01*
X134300000Y-72800000D02*
X134300000Y-70800000D01*
X125940000Y-72560000D02*
X134060000Y-72560000D01*
X132000000Y-72560000D02*
X132000000Y-62440000D01*
X131216000Y-66010000D02*
X131274000Y-66069000D01*
X125940000Y-72560000D02*
X125940000Y-62440000D01*
X128725000Y-63930000D02*
X128784000Y-63989000D01*
X129211000Y-71484000D02*
G75*
G03*
X130789089Y-71483953I789000J1483995D01*
G01*
X130789000Y-68515999D02*
G75*
G03*
X129210911Y-68516047I-789000J-1484001D01*
G01*
X131680000Y-70000000D02*
G75*
G03*
X131483352Y-69211288I-1680000J0D01*
G01*
X131484000Y-70789000D02*
G75*
G03*
X131680450Y-69970617I-1483995J788998D01*
G01*
X128516000Y-69211000D02*
G75*
G03*
X128516047Y-70789089I1483995J-789000D01*
G01*
X131680000Y-65000000D02*
G75*
G03*
X131680000Y-65000000I-1680000J0D01*
G01*
%TO.C,J2*%
X131216000Y-93510000D02*
X131274000Y-93569000D01*
X125940000Y-100060000D02*
X125940000Y-84940000D01*
X128931000Y-86225000D02*
X129024000Y-86319000D01*
X134060000Y-100060000D02*
X134060000Y-84940000D01*
X132060000Y-100300000D02*
X134300000Y-100300000D01*
X128725000Y-91430000D02*
X128784000Y-91489000D01*
X131216000Y-88510000D02*
X131274000Y-88569000D01*
X125940000Y-100060000D02*
X134060000Y-100060000D01*
X125940000Y-84940000D02*
X134060000Y-84940000D01*
X132000000Y-100060000D02*
X132000000Y-84940000D01*
X130976000Y-88680000D02*
X131069000Y-88774000D01*
X134300000Y-100300000D02*
X134300000Y-98300000D01*
X130976000Y-93680000D02*
X131069000Y-93774000D01*
X128000000Y-100060000D02*
X128000000Y-84940000D01*
X128725000Y-86430000D02*
X128784000Y-86489000D01*
X128931000Y-91225000D02*
X129024000Y-91319000D01*
X129211000Y-98984000D02*
G75*
G03*
X130789089Y-98983953I789000J1483995D01*
G01*
X130789000Y-96015999D02*
G75*
G03*
X129210911Y-96016047I-789000J-1484001D01*
G01*
X128516000Y-96711000D02*
G75*
G03*
X128516047Y-98289089I1483995J-789000D01*
G01*
X131484000Y-98289000D02*
G75*
G03*
X131680450Y-97470617I-1483995J788998D01*
G01*
X131680000Y-97500000D02*
G75*
G03*
X131483352Y-96711288I-1680000J0D01*
G01*
X131680000Y-92500000D02*
G75*
G03*
X131680000Y-92500000I-1680000J0D01*
G01*
X131680000Y-87500000D02*
G75*
G03*
X131680000Y-87500000I-1680000J0D01*
G01*
%TO.C,U2*%
X128629000Y-44920000D02*
X128629000Y-55160000D01*
X133270000Y-44920000D02*
X133270000Y-55160000D01*
X131760000Y-44920000D02*
X131760000Y-55160000D01*
X133270000Y-51891000D02*
X131760000Y-51891000D01*
X133270000Y-44920000D02*
X128629000Y-44920000D01*
X133270000Y-48190000D02*
X131760000Y-48190000D01*
X133270000Y-55160000D02*
X128629000Y-55160000D01*
%TO.C,U3*%
X103800000Y-63800000D02*
X101200000Y-63800000D01*
X101200000Y-66000000D02*
X101200000Y-66200000D01*
X103800000Y-66100000D02*
X104200000Y-66100000D01*
X101200000Y-63800000D02*
X101200000Y-64000000D01*
X101200000Y-66200000D02*
X103800000Y-66200000D01*
X103800000Y-63800000D02*
X103800000Y-64000000D01*
X103800000Y-66200000D02*
X103800000Y-66100000D01*
%TO.C,C2*%
X123235000Y-54311252D02*
X123235000Y-53788748D01*
X121765000Y-54311252D02*
X121765000Y-53788748D01*
%TO.C,C4*%
X98265000Y-70261252D02*
X98265000Y-69738748D01*
X99735000Y-70261252D02*
X99735000Y-69738748D01*
%TO.C,C3*%
X105735000Y-70261252D02*
X105735000Y-69738748D01*
X104265000Y-70261252D02*
X104265000Y-69738748D01*
%TD*%
D12*
%TO.C,U1*%
X86030000Y-54680000D03*
X86030000Y-57220000D03*
X86030000Y-59760000D03*
X86030000Y-62300000D03*
X86030000Y-64840000D03*
X86030000Y-67380000D03*
X86030000Y-69920000D03*
X86030000Y-72460000D03*
X86030000Y-75000000D03*
X86030000Y-77540000D03*
X86030000Y-80080000D03*
X86030000Y-82620000D03*
X86030000Y-85160000D03*
X86030000Y-87700000D03*
X86030000Y-90240000D03*
X113970000Y-90240000D03*
X113970000Y-87700000D03*
X113970000Y-85160000D03*
X113970000Y-82620000D03*
X113970000Y-80080000D03*
X113970000Y-77540000D03*
X113970000Y-75000000D03*
X113970000Y-72460000D03*
X113970000Y-69920000D03*
X113970000Y-67380000D03*
X113970000Y-64840000D03*
X113970000Y-62300000D03*
X113970000Y-59760000D03*
X113970000Y-57220000D03*
X113970000Y-54680000D03*
%TD*%
M02*
