M48
; DRILL file {KiCad 6.0.7-f9a2dced07~116~ubuntu22.04.1} date 2022年09月17日 星期六 16时40分42秒
; FORMAT={-:-/ absolute / inch / decimal}
; #@! TF.CreationDate,2022-09-17T16:40:42+08:00
; #@! TF.GenerationSoftware,Kicad,Pcbnew,6.0.7-f9a2dced07~116~ubuntu22.04.1
; #@! TF.FileFunction,Plated,1,2,PTH
FMAT,2
INCH
; #@! TA.AperFunction,Plated,PTH,ViaDrill
T1C0.0157
; #@! TA.AperFunction,Plated,PTH,ComponentDrill
T2C0.0300
; #@! TA.AperFunction,Plated,PTH,ComponentDrill
T3C0.0433
; #@! TA.AperFunction,Plated,PTH,ComponentDrill
T4C0.0512
%
G90
G05
T1
X3.6614Y-3.5827
X3.8583Y-3.4252
T2
X3.387Y-2.1528
X3.387Y-2.2528
X3.387Y-2.3528
X3.387Y-2.4528
X3.387Y-2.5528
X3.387Y-2.6528
X3.387Y-2.7528
X3.387Y-2.8528
X3.387Y-2.9528
X3.387Y-3.0528
X3.387Y-3.1528
X3.387Y-3.2528
X3.387Y-3.3528
X3.387Y-3.4528
X3.387Y-3.5528
X4.487Y-2.1528
X4.487Y-2.2528
X4.487Y-2.3528
X4.487Y-2.4528
X4.487Y-2.5528
X4.487Y-2.6528
X4.487Y-2.7528
X4.487Y-2.8528
X4.487Y-2.9528
X4.487Y-3.0528
X4.487Y-3.1528
X4.487Y-3.2528
X4.487Y-3.3528
X4.487Y-3.4528
X4.487Y-3.5528
T3
X5.1181Y-1.8701
X5.1181Y-1.9701
X5.1181Y-2.0701
T4
X5.1181Y-2.5591
X5.1181Y-2.7559
X5.1181Y-3.4449
X5.1181Y-3.6417
X5.1181Y-3.8386
T0
M30
